<svg width="101" height="101" viewBox="0 0 101 101" fill="none" xmlns="http://www.w3.org/2000/svg">
<path d="M50.2015 0.854431C77.8284 0.854431 100.221 23.2428 100.221 50.8643C100.221 78.4858 77.8284 100.854 50.2212 100.854C22.5943 100.854 0.221204 78.4661 0.221204 50.8643C0.201527 23.2428 22.5943 0.854431 50.2015 0.854431Z" fill="#8247E5"/>
<path d="M66.5929 39.9652C65.3926 39.2766 63.8577 39.2766 62.5 39.9652L52.9368 45.6311L46.4433 49.2313L37.0573 54.8776C35.8569 55.5662 34.3221 55.5662 32.9644 54.8776L25.6248 50.4118C24.4244 49.7232 23.5783 48.346 23.5783 46.8115V38.2339C23.5783 36.8568 24.267 35.4993 25.6248 34.6337L32.9644 30.3449C34.1647 29.6563 35.6995 29.6563 37.0573 30.3449L44.3969 34.8107C45.5972 35.4993 46.4433 36.8764 46.4433 38.411V44.0769L52.9368 40.2996V34.4763C52.9368 33.0991 52.2481 31.7417 50.8904 30.876L37.2344 22.8099C36.034 22.1214 34.4992 22.1214 33.1415 22.8099L19.1509 31.0531C17.7932 31.7417 17.1045 33.1188 17.1045 34.4763V50.5888C17.1045 51.966 17.7932 53.3234 19.1509 54.1891L32.9841 62.2552C34.1844 62.9437 35.7192 62.9437 37.0769 62.2552L46.463 56.7663L52.9565 52.989L62.3426 47.5001C63.5429 46.8115 65.0777 46.8115 66.4355 47.5001L73.7751 51.7889C74.9754 52.4775 75.8215 53.8546 75.8215 55.3891V63.9667C75.8215 65.3439 75.1328 66.7013 73.7751 67.567L66.6125 71.8558C65.4122 72.5444 63.8774 72.5444 62.5197 71.8558L55.1604 67.567C53.9601 66.8784 53.1139 65.5013 53.1139 63.9667V58.4779L46.6204 62.2552V67.9211C46.6204 69.2982 47.3091 70.6557 48.6669 71.5213L62.5 79.5874C63.7003 80.276 65.2351 80.276 66.5929 79.5874L80.426 71.5213C81.6263 70.8328 82.4724 69.4556 82.4724 67.9211V51.6315C82.4724 50.2544 81.7837 48.8969 80.426 48.0313L66.5929 39.9652Z" fill="white"/>
</svg>
