<svg width="71" height="71" viewBox="0 0 71 71" fill="none" xmlns="http://www.w3.org/2000/svg">
<path d="M44.5336 49.6758H52.0957L40.0454 18.3937H31.7144L19.6624 49.6758H27.2245L29.2078 44.3712H40.5899L38.5323 38.4975H31.0197L35.9038 25.0378L44.5336 49.6758ZM69.4525 26.501C69.1803 25.5591 68.1886 24.9884 67.2217 25.2375C66.2795 25.5096 65.7086 26.501 65.9578 27.4675C66.702 30.1941 67.098 33.0196 67.098 35.8451C67.098 53.1216 53.0379 67.2015 35.7305 67.2015C18.4232 67.2015 4.36312 53.1463 4.36312 35.8699C4.36312 18.5934 18.448 4.51353 35.7305 4.51353C43.0452 4.51353 50.1619 7.14114 55.7406 11.7514C55.5179 12.2727 55.3942 12.8417 55.3942 13.4371C55.3942 15.8421 57.328 17.8247 59.7833 17.8247C62.1891 17.8247 64.1725 15.8916 64.1725 13.4371C64.1725 10.9827 62.2386 9.04956 59.7833 9.04956C59.3114 9.04956 58.8659 9.12377 58.4452 9.27221C52.147 3.8933 44.0881 0.869873 35.7571 0.869873C16.4646 0.869873 0.74292 16.5613 0.74292 35.8699C0.74292 55.1784 16.4399 70.8699 35.7305 70.8699C55.0212 70.8699 70.7429 55.1537 70.7429 35.8699C70.7429 32.6962 70.2957 29.5491 69.4525 26.501Z" fill="#C8BAF9"/>
</svg>
