<svg width="71" height="71" viewBox="0 0 71 71" fill="none" xmlns="http://www.w3.org/2000/svg">
<path fill-rule="evenodd" clip-rule="evenodd" d="M35.3369 0.869873C15.9994 0.869873 0.336914 16.9285 0.336914 36.7552C0.336914 52.6344 10.3557 66.0465 24.2682 70.8013C26.0182 71.1153 26.6744 70.0388 26.6744 69.0968C26.6744 68.2445 26.6307 65.4185 26.6307 62.4131C17.8369 64.0728 15.5619 60.2152 14.8619 58.1966C14.4682 57.1649 12.7619 53.9801 11.2744 53.1278C10.0494 52.455 8.29941 50.7953 11.2307 50.7504C13.9869 50.7056 15.9557 53.3521 16.6119 54.4287C19.7619 59.8563 24.7932 58.3312 26.8057 57.3892C27.1119 55.0567 28.0307 53.4867 29.0369 52.5895C21.2494 51.6924 13.1119 48.5973 13.1119 34.8712C13.1119 30.9687 14.4682 27.739 16.6994 25.227C16.3494 24.3299 15.1244 20.6516 17.0494 15.7174C17.0494 15.7174 19.9807 14.7754 26.6744 19.3957C29.4744 18.5882 32.4494 18.1845 35.4244 18.1845C38.3994 18.1845 41.3744 18.5882 44.1744 19.3957C50.8682 14.7306 53.7994 15.7174 53.7994 15.7174C55.7244 20.6516 54.4994 24.3299 54.1494 25.227C56.3807 27.739 57.7369 30.9238 57.7369 34.8712C57.7369 48.6422 49.5557 51.6924 41.7682 52.5895C43.0369 53.711 44.1307 55.8641 44.1307 59.2283C44.1307 64.028 44.0869 67.8856 44.0869 69.0968C44.0869 70.0388 44.7432 71.1602 46.4932 70.8013C60.3182 66.0465 70.3369 52.5895 70.3369 36.7552C70.3369 16.9285 54.6744 0.869873 35.3369 0.869873Z" fill="#C8BAF9"/>
</svg>
