<svg width="71" height="71" viewBox="0 0 71 71" fill="none" xmlns="http://www.w3.org/2000/svg">
<path d="M33.2091 0.976573C31.3848 1.3828 29.5448 2.78359 28.6641 4.42251C28.1765 5.33302 28.1608 5.4591 28.1451 7.12603V8.87702L20.5962 12.7572C16.4601 14.8864 12.8429 16.7494 12.5755 16.8755L12.1037 17.1137L11.1129 16.4553C7.62159 14.172 2.58901 15.2366 0.733249 18.6545C-0.241812 20.4475 -0.241812 22.3806 0.733249 24.1876C1.55104 25.6725 2.77773 26.611 5.01094 27.4094L5.43556 27.5775V35.8282V44.0928L4.14597 44.6391C2.30593 45.4236 1.06351 46.5722 0.450167 48.0851C-0.79225 51.1668 0.670342 54.3746 3.97297 55.8314C4.96376 56.2657 5.3412 56.3497 6.47353 56.4058C8.53374 56.5038 10.0121 56.0416 11.9622 54.6968C12.0723 54.6268 15.0289 56.0696 20.1401 58.689L28.1293 62.8074L28.1451 64.5584C28.1608 66.2253 28.1922 66.3514 28.6641 67.2619C30.394 70.4977 34.7031 71.8004 38.3203 70.1615C39.4212 69.6572 40.6164 68.5226 41.2455 67.3879C41.8274 66.3654 41.8431 66.2673 41.8431 64.8525C41.8431 64.0401 41.8117 63.2136 41.7645 63.0175C41.6858 62.6953 42.1419 62.4432 49.6908 58.549C55.0536 55.7894 57.7586 54.4727 57.8845 54.5567C57.9945 54.6268 58.4192 54.9209 58.8438 55.2011C60.1648 56.0976 61.0927 56.3497 63.0743 56.3637C64.6942 56.3637 64.8672 56.3357 65.8737 55.9155C70.3401 54.0244 71.3938 48.9536 67.9653 45.8999C67.1161 45.1574 66.6757 44.9053 65.3232 44.401L64.5683 44.1209V35.8422V27.5775L65.0087 27.4094C67.2262 26.611 68.4529 25.6725 69.2707 24.1876C70.2457 22.3806 70.2457 20.4475 69.2707 18.6545C67.4149 15.2366 62.3823 14.172 58.9067 16.4553C58.1675 16.9456 57.853 17.0716 57.6328 16.9736C57.4756 16.9175 53.8584 15.0685 49.5964 12.8693L41.8431 8.87702V7.12603C41.8431 5.44509 41.8274 5.33302 41.3399 4.42251C40.6321 3.10577 39.4684 2.04117 38.0058 1.42483C36.9521 0.962566 36.6847 0.906534 35.3322 0.878518C34.4987 0.850503 33.5551 0.892526 33.2091 0.976573ZM30.1266 11.4825C30.1266 11.7907 8.97409 44.2469 8.78537 44.2469C8.6281 44.2469 8.58092 42.594 8.58092 35.8562V27.4655L9.33581 27.2414C12.2924 26.3589 14.3369 23.3191 13.8337 20.5596C13.6764 19.7611 13.6921 19.6911 13.9909 19.523C14.8245 19.0467 29.9065 11.3284 30.0008 11.3284C30.0795 11.3284 30.1266 11.3984 30.1266 11.4825ZM48.2125 15.5027C53.6225 18.2903 56.296 19.7471 56.2646 19.8872C56.2331 19.9853 56.1702 20.4896 56.123 21.0078C55.8714 23.6693 57.8687 26.4149 60.6681 27.2414L61.423 27.4655V35.8562C61.423 42.538 61.3758 44.2469 61.2185 44.2469C61.0298 44.2469 39.8773 11.7767 39.8773 11.4685C39.8773 11.3984 39.9244 11.3284 40.0031 11.3284C40.066 11.3284 43.7618 13.2055 48.2125 15.5027ZM47.5991 29.3285C53.3866 38.2656 58.1204 45.6057 58.1204 45.6757C58.1204 45.7318 57.8373 46.11 57.4913 46.5162C57.1453 46.9224 56.7049 47.6228 56.5162 48.0571L56.186 48.8695H35.002H13.8179L13.4877 48.0571C13.299 47.6228 12.8586 46.9224 12.5126 46.5022C12.088 46.0259 11.8993 45.6757 11.9622 45.5216C12.0094 45.3956 16.7589 38.0414 22.4991 29.1884L32.9417 13.0794L35.0177 13.0934L37.0779 13.1074L47.5991 29.3285ZM56.296 51.9092C56.359 52.0353 56.3432 52.1754 56.2803 52.2314C56.2174 52.2874 52.5688 54.1785 48.1653 56.4338L40.1918 60.5241L39.547 60.0058C39.1853 59.7256 38.4304 59.2914 37.8485 59.0392C36.8734 58.633 36.7004 58.605 35.002 58.605C33.3035 58.605 33.1305 58.633 32.1711 59.0392C31.605 59.2774 30.8815 59.6696 30.567 59.9217C30.2525 60.1599 29.9694 60.356 29.9379 60.356C29.9065 60.356 26.2579 58.5069 21.8543 56.2377C17.2621 53.8703 13.8337 52.0213 13.8022 51.8952C13.755 51.6851 15.5636 51.6711 34.9705 51.6711C54.6447 51.6711 56.2017 51.6851 56.296 51.9092Z" fill="#fff"/>
</svg>
