<svg width="70" height="71" viewBox="0 0 70 71" fill="none" xmlns="http://www.w3.org/2000/svg">
<path d="M17.8419 0.987232C17.6874 1.0474 17.4838 1.13565 17.3925 1.18379C17.3012 1.22792 13.934 3.46628 9.91373 6.15793C5.89346 8.84557 2.43147 11.1601 2.21729 11.2965C1.69413 11.6375 1.40973 11.8822 1.09723 12.2633C0.542472 12.9372 0.19838 13.7435 0.0474005 14.7223C-0.0158002 15.1354 -0.0158002 35.4973 0.0474005 35.9105C0.205402 36.9495 0.612695 37.8721 1.2447 38.6222C1.67657 39.1357 1.93991 39.3483 3.20743 40.1907C9.86808 44.6112 17.0449 49.3607 17.2274 49.465C18.3194 50.0908 19.7063 50.1149 20.9738 49.5332C21.2161 49.4249 22.8277 48.3739 26.3705 46.0192C29.1478 44.17 33.0136 41.6067 34.9552 40.323C36.8969 39.0354 40.724 36.4962 43.4557 34.679C46.1874 32.8658 48.5258 31.3174 48.6522 31.2452C49.2105 30.9203 49.8706 30.7518 50.5623 30.7518C51.261 30.7518 51.8509 30.8842 52.4759 31.1811C52.7813 31.3215 60.6217 36.5042 61.0466 36.8411C61.352 37.0858 61.9033 37.7277 62.114 38.0887C62.444 38.6543 62.6722 39.264 62.8267 39.9901C62.8829 40.2549 62.8864 40.7242 62.8969 45.9952C62.911 52.2329 62.9145 52.1326 62.7109 52.8948C62.5845 53.3802 62.279 54.0621 62.0121 54.4672C61.7453 54.8724 61.2888 55.3738 60.9307 55.6546C60.6147 55.9033 53.1886 60.9537 52.834 61.1623C51.7069 61.8242 50.2322 61.8442 48.9436 61.2144C48.6698 61.078 41.0014 56.0116 40.4993 55.6346C40.0078 55.2655 39.4565 54.5796 39.1511 53.9578C38.9615 53.5687 38.807 53.1194 38.6946 52.6501L38.5928 52.2329L38.5822 48.5103C38.5787 46.4645 38.5612 44.7917 38.5471 44.7917C38.5331 44.7917 36.9741 45.8187 35.0816 47.0702L31.6407 49.3447V53.0552C31.6407 57.1549 31.6337 57.0305 31.8689 57.8368C32.1498 58.7956 32.7783 59.7623 33.5086 60.364C33.765 60.5766 48.0167 70.0515 48.7049 70.4687C48.8804 70.577 49.1332 70.7094 49.2632 70.7656L49.5054 70.8699L50.8432 70.8578L52.1809 70.8458L52.5671 70.6653C52.8551 70.5289 54.8705 69.2132 60.4146 65.5347C64.5191 62.815 67.9846 60.5044 68.118 60.4041C69.0274 59.7061 69.7086 58.4987 69.9333 57.179C69.9965 56.7939 70 56.4569 70 46.3161C70 36.1953 69.9965 35.8343 69.9333 35.4572C69.8139 34.7632 69.6208 34.2097 69.2802 33.612C69.0379 33.1868 68.4094 32.4607 68.0338 32.1719C67.7072 31.9192 53.1395 22.2597 52.7673 22.0471C51.9562 21.5898 50.9134 21.4534 49.9268 21.6821C49.53 21.7743 49.0525 21.9588 48.754 22.1273C48.6487 22.1915 46.2682 23.784 43.4698 25.6694C39.1756 28.5576 37.8519 29.4281 34.9939 31.2332C31.7776 33.263 31.3458 33.5478 26.4969 36.8692C23.688 38.7947 21.2793 40.4314 21.1424 40.5116C20.1557 41.0732 18.8391 41.1374 17.6628 40.6801C17.4522 40.5958 17.2064 40.4875 17.1186 40.4354C16.8131 40.2589 8.92358 34.7953 8.69185 34.5988C7.8281 33.8687 7.18556 32.6532 6.99245 31.3776C6.91169 30.8441 6.91169 19.7927 6.99245 19.2552C7.18556 17.9675 7.8281 16.7841 8.76558 15.9819C9.01838 15.7652 16.7429 10.6106 17.245 10.3218C18.3194 9.70802 19.7941 9.69599 21.037 10.2897C21.2407 10.39 22.7575 11.4129 25.3698 13.218C27.5783 14.7423 29.4814 16.0661 29.6007 16.1584C30.2678 16.6758 30.9315 17.7148 31.2159 18.6855C31.4336 19.4317 31.423 19.2351 31.4441 23.3749L31.4652 27.1656L34.9061 24.8912L38.347 22.6167L38.3575 18.7898C38.3646 14.626 38.3681 14.6822 38.1679 13.9641C38.0345 13.4908 37.7606 12.8851 37.5078 12.5C37.248 12.1068 36.7951 11.5974 36.4685 11.3286C36.2157 11.124 21.7322 1.3964 21.3706 1.1878C20.7983 0.858867 20.8545 0.86689 19.4114 0.870902L18.1228 0.874913L17.8419 0.987232Z" fill="#C8BAF9"/>
</svg>
