<svg width="74" height="71" viewBox="0 0 74 71" fill="none" xmlns="http://www.w3.org/2000/svg">
<path d="M36.9038 42.0407C40.5062 42.0407 43.4266 39.2778 43.4266 35.8694C43.4266 32.4611 40.5062 29.6981 36.9038 29.6981C33.3014 29.6981 30.3811 32.4611 30.3811 35.8694C30.3811 39.2778 33.3014 42.0407 36.9038 42.0407Z" fill="#C8BAF9"/>
<path d="M36.9026 48.513C56.2326 48.513 71.9026 42.8523 71.9026 35.8694C71.9026 28.8865 56.2326 23.2257 36.9026 23.2257C17.5726 23.2257 1.90259 28.8865 1.90259 35.8694C1.90259 42.8523 17.5726 48.513 36.9026 48.513Z" stroke="#C8BAF9" stroke-width="3.19314"/>
<path d="M25.3306 42.1915C34.9955 58.0299 48.0121 68.039 54.4038 64.5476C60.7955 61.0561 58.142 45.3862 48.4771 29.5479C38.8121 13.7095 25.7955 3.70038 19.4038 7.19183C13.0121 10.6833 15.6656 26.3532 25.3306 42.1915Z" stroke="#C8BAF9" stroke-width="3.19314"/>
<path d="M25.3303 29.5485C15.6653 45.3869 13.0118 61.0568 19.4036 64.5482C25.7953 68.0397 38.8118 58.0305 48.4768 42.1922C58.1418 26.3538 60.7953 10.6839 54.4036 7.19245C48.0118 3.701 34.9953 13.7101 25.3303 29.5485Z" stroke="#C8BAF9" stroke-width="3.19314"/>
</svg>
