<svg width="71" height="71" viewBox="0 0 71 71" fill="none" xmlns="http://www.w3.org/2000/svg">
<circle cx="35.4951" cy="35.8699" r="33.7657" stroke="#C6B7F8" stroke-width="2.46865"/>
<mask id="path-2-outside-1_667_3277" maskUnits="userSpaceOnUse" x="22.4395" y="31.37" width="34" height="23" fill="black">
<rect fill="white" x="22.4395" y="31.37" width="34" height="23"/>
<path fill-rule="evenodd" clip-rule="evenodd" d="M32.2423 32.6097C32.016 32.6097 31.7872 32.6096 31.5562 32.6096L23.4741 32.6443V34.5397L23.4395 34.5281V36.4119H29.4433V53.5165H33.7037V36.4119H39.7076V34.5628C39.7076 33.5226 39.7076 32.679 39.6614 32.6559C39.6614 32.6365 38.5239 32.6244 36.747 32.6174C36.2862 32.6156 35.7823 32.6142 35.2441 32.613C34.7567 32.612 34.2411 32.6112 33.7037 32.6107C33.2319 32.6102 32.7433 32.6099 32.2423 32.6097ZM43.8035 33.9767C43.6087 34.1588 43.4285 34.3545 43.2638 34.5628C42.9235 34.9931 42.6493 35.4773 42.4487 36.0083C42.399 36.14 42.3538 36.2746 42.3132 36.4119C42.2709 36.5554 42.2336 36.7018 42.2015 36.8511C42.1365 37.116 42.107 37.5397 42.1062 37.9953C42.105 38.6727 42.1672 39.4205 42.2708 39.8213C42.3505 40.0887 42.462 40.3755 42.596 40.661C42.6105 40.6918 42.6252 40.7226 42.6402 40.7534C42.7967 41.0748 42.9808 41.3919 43.1795 41.6754C43.2407 41.7627 43.3033 41.8469 43.3669 41.927C43.3711 41.9322 43.3753 41.9375 43.3795 41.9427C43.4326 42.0091 43.4865 42.0726 43.5408 42.1327C43.6059 42.2011 43.6714 42.2678 43.7376 42.3331C43.9648 42.5573 44.2009 42.7649 44.463 42.9654C44.8346 43.2496 45.2585 43.5194 45.7835 43.8017C45.8255 43.8242 45.8681 43.8468 45.9113 43.8696C46.1227 43.9806 46.3501 44.0939 46.5965 44.211C46.8595 44.336 47.1442 44.4654 47.4539 44.6011C47.4635 44.6053 47.4731 44.6095 47.4828 44.6138C47.5893 44.6603 47.6987 44.7076 47.8112 44.7557C47.8385 44.7674 47.866 44.7791 47.8936 44.7909C47.9243 44.8046 47.9548 44.8181 47.9849 44.8315C48.001 44.8387 48.017 44.8459 48.0329 44.853C48.1003 44.8831 48.1661 44.9126 48.2306 44.9416C48.268 44.9585 48.3049 44.9751 48.3414 44.9916C48.3427 44.9922 48.3441 44.9929 48.3454 44.9935C48.4249 45.0294 48.502 45.0645 48.577 45.0988C48.5945 45.1069 48.6119 45.1149 48.6292 45.1228C48.6492 45.132 48.669 45.1411 48.6887 45.1502C48.6966 45.1538 48.7045 45.1574 48.7123 45.1611C48.7169 45.1632 48.7215 45.1653 48.7261 45.1674C48.7347 45.1714 48.7432 45.1754 48.7518 45.1793C48.769 45.1873 48.7861 45.1952 48.8031 45.2031C49.5824 45.5651 50.1041 45.8375 50.4669 46.0815C50.6449 46.2012 50.7846 46.314 50.8977 46.4273C50.9679 46.4975 51.0278 46.5678 51.0803 46.64C51.0974 46.666 51.1137 46.6914 51.1292 46.7161C51.1332 46.7224 51.1371 46.7287 51.141 46.735C51.2004 46.8308 51.2487 46.9188 51.2875 47.006C51.3792 47.2119 51.4179 47.4136 51.4253 47.7054C51.4262 47.7418 51.4267 47.7795 51.4267 47.8189C51.4267 48.0661 51.3928 48.2837 51.3207 48.4826C51.3162 48.495 51.3115 48.5075 51.3067 48.5198C51.2965 48.5456 51.2858 48.5711 51.2743 48.5963C51.1746 48.8158 51.0237 49.0135 50.8147 49.2057C50.4928 49.498 50.0642 49.7064 49.5806 49.8283C49.5738 49.83 49.567 49.8317 49.5601 49.8334C48.9047 49.9947 48.1504 49.998 47.4255 49.8363C47.408 49.8324 47.3905 49.8284 47.3731 49.8243C47.1983 49.7833 47.0253 49.7327 46.856 49.6723C46.7996 49.6522 46.7436 49.631 46.6881 49.6087C46.6694 49.6012 46.6508 49.5936 46.6323 49.5859C46.6134 49.578 46.5945 49.57 46.5757 49.5618C46.4862 49.5231 46.3982 49.4814 46.3118 49.4369C46.2149 49.3827 46.1044 49.3083 45.9863 49.2191C45.9651 49.2031 45.9436 49.1866 45.9219 49.1696C45.8216 49.0911 45.7169 49.0031 45.6114 48.9086C45.5943 48.8933 45.5771 48.8778 45.56 48.8622C45.3992 48.7156 45.2379 48.5555 45.0885 48.3931C45.0823 48.3862 45.076 48.3794 45.0698 48.3725C45.0451 48.3455 45.0209 48.3185 44.997 48.2914C44.8548 48.1304 44.7269 47.9693 44.6254 47.8189C44.6096 47.7955 44.5944 47.7724 44.58 47.7495L44.2798 47.345L42.9751 48.1078L41.2432 49.1133L40.8045 49.3906C40.7955 49.4063 40.819 49.4651 40.8657 49.5533C40.8964 49.6111 40.9371 49.6815 40.9852 49.7606C41.0181 49.8146 41.0544 49.8726 41.0934 49.9334C41.1446 50.0133 41.2004 50.0979 41.2589 50.1845C41.4109 50.4094 41.5812 50.6474 41.7375 50.8488C41.8348 50.9742 41.9267 51.0854 42.0052 51.1704C42.2603 51.4502 42.553 51.7153 42.8756 51.9617C42.9002 51.9805 42.925 51.9992 42.9499 52.0178C43.0406 52.0852 43.1334 52.1512 43.2284 52.2157C43.2429 52.2255 43.2574 52.2353 43.272 52.2451C43.5867 52.4557 43.9236 52.6494 44.2768 52.8231C44.3081 52.8385 44.3396 52.8538 44.3711 52.8688C44.3831 52.8745 44.395 52.8802 44.407 52.8859C44.4256 52.8947 44.4443 52.9034 44.463 52.9121C44.4722 52.9164 44.4814 52.9206 44.4905 52.9249C45.0173 53.1674 45.5765 53.3657 46.1497 53.5102C46.1584 53.5124 46.1671 53.5146 46.1758 53.5167C46.3509 53.5603 46.5273 53.5989 46.7044 53.6321C47.0473 53.6916 47.544 53.7312 48.0691 53.7486C48.2275 53.7539 48.3884 53.7572 48.5485 53.7584C49.1983 53.7632 49.8342 53.734 50.2259 53.6668C50.3891 53.6397 50.5492 53.609 50.7061 53.5749C51.8667 53.3227 52.8533 52.881 53.636 52.276C53.6432 52.2704 53.6504 52.2648 53.6575 52.2592C54.4276 51.6581 54.9982 50.8977 55.3407 50.0032C55.59 49.3335 55.7134 48.5792 55.7171 47.8189C55.7175 47.7533 55.7169 47.6877 55.7155 47.6222C55.6894 46.4398 55.3757 45.2592 54.7981 44.3748C54.7759 44.3405 54.7533 44.3064 54.7303 44.2725C54.692 44.216 54.6525 44.1602 54.6119 44.1049C54.6069 44.0981 54.6018 44.0913 54.5968 44.0845C54.1855 43.5316 53.6518 43.0414 52.892 42.543C52.6886 42.4096 52.4689 42.2756 52.2311 42.1397C52.0766 42.0514 51.9145 41.9623 51.7442 41.872C51.6026 41.7969 51.4552 41.7211 51.3019 41.6441C51.1552 41.5705 51.003 41.4959 50.8451 41.4203C50.7542 41.3767 50.6614 41.3328 50.5666 41.2884C50.5336 41.273 50.5004 41.2575 50.4669 41.2419C50.2111 41.1232 49.9413 41.0014 49.6565 40.876C49.6351 40.8665 49.6136 40.8571 49.592 40.8476C49.4638 40.7914 49.3326 40.7344 49.1983 40.6765C48.9675 40.5752 48.7569 40.4806 48.5644 40.3912C48.5563 40.3875 48.5483 40.3838 48.5403 40.3801C48.4959 40.3594 48.4524 40.339 48.4099 40.3189C48.4065 40.3173 48.4032 40.3157 48.3998 40.3141C48.3801 40.3048 48.3607 40.2955 48.3414 40.2863C48.3337 40.2826 48.3262 40.279 48.3186 40.2753C47.9605 40.1035 47.6731 39.9508 47.4395 39.8056C47.4293 39.7993 47.4192 39.7929 47.4091 39.7866C47.3761 39.7657 47.3442 39.745 47.3133 39.7245C47.2673 39.6937 47.2236 39.6633 47.1821 39.6329C47.1014 39.5739 47.0289 39.5154 46.9634 39.4565C46.8896 39.3901 46.8247 39.3233 46.7668 39.2547C46.7417 39.2249 46.7178 39.1947 46.6952 39.1641C46.6271 39.072 46.5699 38.9761 46.5197 38.8736C46.5 38.831 46.4818 38.7903 46.4649 38.7507C46.4433 38.7 46.424 38.6511 46.407 38.6026C46.3436 38.4217 46.3118 38.2456 46.3118 37.9953C46.3118 37.9456 46.3134 37.8967 46.3165 37.8487C46.3191 37.8074 46.3228 37.7668 46.3277 37.7267C46.3374 37.647 46.3514 37.5698 46.3696 37.4952C46.487 37.0152 46.7784 36.6438 47.2017 36.4119C47.3361 36.3383 47.4839 36.2787 47.6435 36.2341C47.6613 36.2292 47.6792 36.2244 47.6973 36.2198C47.9733 36.1498 48.2835 36.1236 48.621 36.1461C48.9323 36.1687 49.2071 36.2229 49.4567 36.3152C49.4601 36.3164 49.4635 36.3177 49.4668 36.3189C49.4878 36.3268 49.5087 36.3349 49.5293 36.3434C49.567 36.3587 49.6041 36.375 49.6406 36.3921C49.6544 36.3986 49.668 36.4052 49.6816 36.4119C49.739 36.4403 49.795 36.4711 49.8499 36.5043C49.9353 36.5559 50.018 36.6134 50.0986 36.6773C50.1933 36.7523 50.2851 36.836 50.3752 36.929C50.3916 36.946 50.4079 36.9632 50.4242 36.9808C50.4244 36.981 50.4246 36.9812 50.4248 36.9814C50.4389 36.9966 50.4529 37.012 50.4669 37.0276C50.4769 37.0389 50.487 37.0502 50.497 37.0617C50.5575 37.1311 50.6173 37.2048 50.6769 37.2832C50.6831 37.2914 50.6893 37.2997 50.6956 37.308C50.7019 37.3164 50.7082 37.3249 50.7145 37.3335C50.7403 37.3683 50.766 37.404 50.7916 37.4405C50.8308 37.5043 50.87 37.5634 50.9079 37.6166C50.9241 37.6393 50.9401 37.661 50.9557 37.6815C50.9874 37.7231 51.0177 37.7598 51.0456 37.7909C51.1235 37.8776 51.1836 37.9206 51.2073 37.9028C51.4923 37.7262 51.8206 37.5164 52.1562 37.2979C52.8214 36.8647 53.5151 36.3972 53.9557 36.086C53.9649 36.0795 53.9739 36.0731 53.9828 36.0668C54.0631 36.0099 54.1343 35.9586 54.1947 35.9142C54.3352 35.8107 54.417 35.7441 54.417 35.7301C54.402 35.6624 54.3248 35.5312 54.2126 35.3691C54.2116 35.3676 54.2105 35.3661 54.2095 35.3645C54.1741 35.3136 54.1354 35.2595 54.0941 35.2035C54.0854 35.1918 54.0767 35.1801 54.0679 35.1682C53.8399 34.8624 53.543 34.5044 53.3086 34.2508C53.0212 33.9507 52.7221 33.6902 52.403 33.4665C52.3869 33.4552 52.3708 33.444 52.3546 33.4329C51.8047 33.0562 51.1949 32.7872 50.4836 32.6128C50.4719 32.61 50.4602 32.6071 50.4484 32.6043C50.445 32.6035 50.4416 32.6027 50.4382 32.6019C50.4328 32.6006 50.4275 32.5993 50.4222 32.5981L50.4453 32.575C50.4398 32.5735 50.4343 32.5721 50.4287 32.5707C50.4259 32.57 50.4231 32.5693 50.4203 32.5686C50.4082 32.5655 50.3958 32.5625 50.3831 32.5595C50.0214 32.4741 49.4693 32.4141 48.8963 32.3868C48.8892 32.3864 48.8821 32.3861 48.875 32.3857C48.4888 32.3679 48.0941 32.3648 47.7426 32.3787C47.4828 32.389 47.2467 32.4086 47.055 32.4383C47.0129 32.4448 46.9729 32.4519 46.9353 32.4594C46.658 32.5108 46.3899 32.5765 46.1318 32.6559C45.2219 32.9357 44.4358 33.3852 43.8035 33.9767Z"/>
</mask>
<path fill-rule="evenodd" clip-rule="evenodd" d="M32.2423 32.6097C32.016 32.6097 31.7872 32.6096 31.5562 32.6096L23.4741 32.6443V34.5397L23.4395 34.5281V36.4119H29.4433V53.5165H33.7037V36.4119H39.7076V34.5628C39.7076 33.5226 39.7076 32.679 39.6614 32.6559C39.6614 32.6365 38.5239 32.6244 36.747 32.6174C36.2862 32.6156 35.7823 32.6142 35.2441 32.613C34.7567 32.612 34.2411 32.6112 33.7037 32.6107C33.2319 32.6102 32.7433 32.6099 32.2423 32.6097ZM43.8035 33.9767C43.6087 34.1588 43.4285 34.3545 43.2638 34.5628C42.9235 34.9931 42.6493 35.4773 42.4487 36.0083C42.399 36.14 42.3538 36.2746 42.3132 36.4119C42.2709 36.5554 42.2336 36.7018 42.2015 36.8511C42.1365 37.116 42.107 37.5397 42.1062 37.9953C42.105 38.6727 42.1672 39.4205 42.2708 39.8213C42.3505 40.0887 42.462 40.3755 42.596 40.661C42.6105 40.6918 42.6252 40.7226 42.6402 40.7534C42.7967 41.0748 42.9808 41.3919 43.1795 41.6754C43.2407 41.7627 43.3033 41.8469 43.3669 41.927C43.3711 41.9322 43.3753 41.9375 43.3795 41.9427C43.4326 42.0091 43.4865 42.0726 43.5408 42.1327C43.6059 42.2011 43.6714 42.2678 43.7376 42.3331C43.9648 42.5573 44.2009 42.7649 44.463 42.9654C44.8346 43.2496 45.2585 43.5194 45.7835 43.8017C45.8255 43.8242 45.8681 43.8468 45.9113 43.8696C46.1227 43.9806 46.3501 44.0939 46.5965 44.211C46.8595 44.336 47.1442 44.4654 47.4539 44.6011C47.4635 44.6053 47.4731 44.6095 47.4828 44.6138C47.5893 44.6603 47.6987 44.7076 47.8112 44.7557C47.8385 44.7674 47.866 44.7791 47.8936 44.7909C47.9243 44.8046 47.9548 44.8181 47.9849 44.8315C48.001 44.8387 48.017 44.8459 48.0329 44.853C48.1003 44.8831 48.1661 44.9126 48.2306 44.9416C48.268 44.9585 48.3049 44.9751 48.3414 44.9916C48.3427 44.9922 48.3441 44.9929 48.3454 44.9935C48.4249 45.0294 48.502 45.0645 48.577 45.0988C48.5945 45.1069 48.6119 45.1149 48.6292 45.1228C48.6492 45.132 48.669 45.1411 48.6887 45.1502C48.6966 45.1538 48.7045 45.1574 48.7123 45.1611C48.7169 45.1632 48.7215 45.1653 48.7261 45.1674C48.7347 45.1714 48.7432 45.1754 48.7518 45.1793C48.769 45.1873 48.7861 45.1952 48.8031 45.2031C49.5824 45.5651 50.1041 45.8375 50.4669 46.0815C50.6449 46.2012 50.7846 46.314 50.8977 46.4273C50.9679 46.4975 51.0278 46.5678 51.0803 46.64C51.0974 46.666 51.1137 46.6914 51.1292 46.7161C51.1332 46.7224 51.1371 46.7287 51.141 46.735C51.2004 46.8308 51.2487 46.9188 51.2875 47.006C51.3792 47.2119 51.4179 47.4136 51.4253 47.7054C51.4262 47.7418 51.4267 47.7795 51.4267 47.8189C51.4267 48.0661 51.3928 48.2837 51.3207 48.4826C51.3162 48.495 51.3115 48.5075 51.3067 48.5198C51.2965 48.5456 51.2858 48.5711 51.2743 48.5963C51.1746 48.8158 51.0237 49.0135 50.8147 49.2057C50.4928 49.498 50.0642 49.7064 49.5806 49.8283C49.5738 49.83 49.567 49.8317 49.5601 49.8334C48.9047 49.9947 48.1504 49.998 47.4255 49.8363C47.408 49.8324 47.3905 49.8284 47.3731 49.8243C47.1983 49.7833 47.0253 49.7327 46.856 49.6723C46.7996 49.6522 46.7436 49.631 46.6881 49.6087C46.6694 49.6012 46.6508 49.5936 46.6323 49.5859C46.6134 49.578 46.5945 49.57 46.5757 49.5618C46.4862 49.5231 46.3982 49.4814 46.3118 49.4369C46.2149 49.3827 46.1044 49.3083 45.9863 49.2191C45.9651 49.2031 45.9436 49.1866 45.9219 49.1696C45.8216 49.0911 45.7169 49.0031 45.6114 48.9086C45.5943 48.8933 45.5771 48.8778 45.56 48.8622C45.3992 48.7156 45.2379 48.5555 45.0885 48.3931C45.0823 48.3862 45.076 48.3794 45.0698 48.3725C45.0451 48.3455 45.0209 48.3185 44.997 48.2914C44.8548 48.1304 44.7269 47.9693 44.6254 47.8189C44.6096 47.7955 44.5944 47.7724 44.58 47.7495L44.2798 47.345L42.9751 48.1078L41.2432 49.1133L40.8045 49.3906C40.7955 49.4063 40.819 49.4651 40.8657 49.5533C40.8964 49.6111 40.9371 49.6815 40.9852 49.7606C41.0181 49.8146 41.0544 49.8726 41.0934 49.9334C41.1446 50.0133 41.2004 50.0979 41.2589 50.1845C41.4109 50.4094 41.5812 50.6474 41.7375 50.8488C41.8348 50.9742 41.9267 51.0854 42.0052 51.1704C42.2603 51.4502 42.553 51.7153 42.8756 51.9617C42.9002 51.9805 42.925 51.9992 42.9499 52.0178C43.0406 52.0852 43.1334 52.1512 43.2284 52.2157C43.2429 52.2255 43.2574 52.2353 43.272 52.2451C43.5867 52.4557 43.9236 52.6494 44.2768 52.8231C44.3081 52.8385 44.3396 52.8538 44.3711 52.8688C44.3831 52.8745 44.395 52.8802 44.407 52.8859C44.4256 52.8947 44.4443 52.9034 44.463 52.9121C44.4722 52.9164 44.4814 52.9206 44.4905 52.9249C45.0173 53.1674 45.5765 53.3657 46.1497 53.5102C46.1584 53.5124 46.1671 53.5146 46.1758 53.5167C46.3509 53.5603 46.5273 53.5989 46.7044 53.6321C47.0473 53.6916 47.544 53.7312 48.0691 53.7486C48.2275 53.7539 48.3884 53.7572 48.5485 53.7584C49.1983 53.7632 49.8342 53.734 50.2259 53.6668C50.3891 53.6397 50.5492 53.609 50.7061 53.5749C51.8667 53.3227 52.8533 52.881 53.636 52.276C53.6432 52.2704 53.6504 52.2648 53.6575 52.2592C54.4276 51.6581 54.9982 50.8977 55.3407 50.0032C55.59 49.3335 55.7134 48.5792 55.7171 47.8189C55.7175 47.7533 55.7169 47.6877 55.7155 47.6222C55.6894 46.4398 55.3757 45.2592 54.7981 44.3748C54.7759 44.3405 54.7533 44.3064 54.7303 44.2725C54.692 44.216 54.6525 44.1602 54.6119 44.1049C54.6069 44.0981 54.6018 44.0913 54.5968 44.0845C54.1855 43.5316 53.6518 43.0414 52.892 42.543C52.6886 42.4096 52.4689 42.2756 52.2311 42.1397C52.0766 42.0514 51.9145 41.9623 51.7442 41.872C51.6026 41.7969 51.4552 41.7211 51.3019 41.6441C51.1552 41.5705 51.003 41.4959 50.8451 41.4203C50.7542 41.3767 50.6614 41.3328 50.5666 41.2884C50.5336 41.273 50.5004 41.2575 50.4669 41.2419C50.2111 41.1232 49.9413 41.0014 49.6565 40.876C49.6351 40.8665 49.6136 40.8571 49.592 40.8476C49.4638 40.7914 49.3326 40.7344 49.1983 40.6765C48.9675 40.5752 48.7569 40.4806 48.5644 40.3912C48.5563 40.3875 48.5483 40.3838 48.5403 40.3801C48.4959 40.3594 48.4524 40.339 48.4099 40.3189C48.4065 40.3173 48.4032 40.3157 48.3998 40.3141C48.3801 40.3048 48.3607 40.2955 48.3414 40.2863C48.3337 40.2826 48.3262 40.279 48.3186 40.2753C47.9605 40.1035 47.6731 39.9508 47.4395 39.8056C47.4293 39.7993 47.4192 39.7929 47.4091 39.7866C47.3761 39.7657 47.3442 39.745 47.3133 39.7245C47.2673 39.6937 47.2236 39.6633 47.1821 39.6329C47.1014 39.5739 47.0289 39.5154 46.9634 39.4565C46.8896 39.3901 46.8247 39.3233 46.7668 39.2547C46.7417 39.2249 46.7178 39.1947 46.6952 39.1641C46.6271 39.072 46.5699 38.9761 46.5197 38.8736C46.5 38.831 46.4818 38.7903 46.4649 38.7507C46.4433 38.7 46.424 38.6511 46.407 38.6026C46.3436 38.4217 46.3118 38.2456 46.3118 37.9953C46.3118 37.9456 46.3134 37.8967 46.3165 37.8487C46.3191 37.8074 46.3228 37.7668 46.3277 37.7267C46.3374 37.647 46.3514 37.5698 46.3696 37.4952C46.487 37.0152 46.7784 36.6438 47.2017 36.4119C47.3361 36.3383 47.4839 36.2787 47.6435 36.2341C47.6613 36.2292 47.6792 36.2244 47.6973 36.2198C47.9733 36.1498 48.2835 36.1236 48.621 36.1461C48.9323 36.1687 49.2071 36.2229 49.4567 36.3152C49.4601 36.3164 49.4635 36.3177 49.4668 36.3189C49.4878 36.3268 49.5087 36.3349 49.5293 36.3434C49.567 36.3587 49.6041 36.375 49.6406 36.3921C49.6544 36.3986 49.668 36.4052 49.6816 36.4119C49.739 36.4403 49.795 36.4711 49.8499 36.5043C49.9353 36.5559 50.018 36.6134 50.0986 36.6773C50.1933 36.7523 50.2851 36.836 50.3752 36.929C50.3916 36.946 50.4079 36.9632 50.4242 36.9808C50.4244 36.981 50.4246 36.9812 50.4248 36.9814C50.4389 36.9966 50.4529 37.012 50.4669 37.0276C50.4769 37.0389 50.487 37.0502 50.497 37.0617C50.5575 37.1311 50.6173 37.2048 50.6769 37.2832C50.6831 37.2914 50.6893 37.2997 50.6956 37.308C50.7019 37.3164 50.7082 37.3249 50.7145 37.3335C50.7403 37.3683 50.766 37.404 50.7916 37.4405C50.8308 37.5043 50.87 37.5634 50.9079 37.6166C50.9241 37.6393 50.9401 37.661 50.9557 37.6815C50.9874 37.7231 51.0177 37.7598 51.0456 37.7909C51.1235 37.8776 51.1836 37.9206 51.2073 37.9028C51.4923 37.7262 51.8206 37.5164 52.1562 37.2979C52.8214 36.8647 53.5151 36.3972 53.9557 36.086C53.9649 36.0795 53.9739 36.0731 53.9828 36.0668C54.0631 36.0099 54.1343 35.9586 54.1947 35.9142C54.3352 35.8107 54.417 35.7441 54.417 35.7301C54.402 35.6624 54.3248 35.5312 54.2126 35.3691C54.2116 35.3676 54.2105 35.3661 54.2095 35.3645C54.1741 35.3136 54.1354 35.2595 54.0941 35.2035C54.0854 35.1918 54.0767 35.1801 54.0679 35.1682C53.8399 34.8624 53.543 34.5044 53.3086 34.2508C53.0212 33.9507 52.7221 33.6902 52.403 33.4665C52.3869 33.4552 52.3708 33.444 52.3546 33.4329C51.8047 33.0562 51.1949 32.7872 50.4836 32.6128C50.4719 32.61 50.4602 32.6071 50.4484 32.6043C50.445 32.6035 50.4416 32.6027 50.4382 32.6019C50.4328 32.6006 50.4275 32.5993 50.4222 32.5981L50.4453 32.575C50.4398 32.5735 50.4343 32.5721 50.4287 32.5707C50.4259 32.57 50.4231 32.5693 50.4203 32.5686C50.4082 32.5655 50.3958 32.5625 50.3831 32.5595C50.0214 32.4741 49.4693 32.4141 48.8963 32.3868C48.8892 32.3864 48.8821 32.3861 48.875 32.3857C48.4888 32.3679 48.0941 32.3648 47.7426 32.3787C47.4828 32.389 47.2467 32.4086 47.055 32.4383C47.0129 32.4448 46.9729 32.4519 46.9353 32.4594C46.658 32.5108 46.3899 32.5765 46.1318 32.6559C45.2219 32.9357 44.4358 33.3852 43.8035 33.9767Z" fill="#C8BAF9"/>
<path fill-rule="evenodd" clip-rule="evenodd" d="M32.2423 32.6097C32.016 32.6097 31.7872 32.6096 31.5562 32.6096L23.4741 32.6443V34.5397L23.4395 34.5281V36.4119H29.4433V53.5165H33.7037V36.4119H39.7076V34.5628C39.7076 33.5226 39.7076 32.679 39.6614 32.6559C39.6614 32.6365 38.5239 32.6244 36.747 32.6174C36.2862 32.6156 35.7823 32.6142 35.2441 32.613C34.7567 32.612 34.2411 32.6112 33.7037 32.6107C33.2319 32.6102 32.7433 32.6099 32.2423 32.6097ZM43.8035 33.9767C43.6087 34.1588 43.4285 34.3545 43.2638 34.5628C42.9235 34.9931 42.6493 35.4773 42.4487 36.0083C42.399 36.14 42.3538 36.2746 42.3132 36.4119C42.2709 36.5554 42.2336 36.7018 42.2015 36.8511C42.1365 37.116 42.107 37.5397 42.1062 37.9953C42.105 38.6727 42.1672 39.4205 42.2708 39.8213C42.3505 40.0887 42.462 40.3755 42.596 40.661C42.6105 40.6918 42.6252 40.7226 42.6402 40.7534C42.7967 41.0748 42.9808 41.3919 43.1795 41.6754C43.2407 41.7627 43.3033 41.8469 43.3669 41.927C43.3711 41.9322 43.3753 41.9375 43.3795 41.9427C43.4326 42.0091 43.4865 42.0726 43.5408 42.1327C43.6059 42.2011 43.6714 42.2678 43.7376 42.3331C43.9648 42.5573 44.2009 42.7649 44.463 42.9654C44.8346 43.2496 45.2585 43.5194 45.7835 43.8017C45.8255 43.8242 45.8681 43.8468 45.9113 43.8696C46.1227 43.9806 46.3501 44.0939 46.5965 44.211C46.8595 44.336 47.1442 44.4654 47.4539 44.6011C47.4635 44.6053 47.4731 44.6095 47.4828 44.6138C47.5893 44.6603 47.6987 44.7076 47.8112 44.7557C47.8385 44.7674 47.866 44.7791 47.8936 44.7909C47.9243 44.8046 47.9548 44.8181 47.9849 44.8315C48.001 44.8387 48.017 44.8459 48.0329 44.853C48.1003 44.8831 48.1661 44.9126 48.2306 44.9416C48.268 44.9585 48.3049 44.9751 48.3414 44.9916C48.3427 44.9922 48.3441 44.9929 48.3454 44.9935C48.4249 45.0294 48.502 45.0645 48.577 45.0988C48.5945 45.1069 48.6119 45.1149 48.6292 45.1228C48.6492 45.132 48.669 45.1411 48.6887 45.1502C48.6966 45.1538 48.7045 45.1574 48.7123 45.1611C48.7169 45.1632 48.7215 45.1653 48.7261 45.1674C48.7347 45.1714 48.7432 45.1754 48.7518 45.1793C48.769 45.1873 48.7861 45.1952 48.8031 45.2031C49.5824 45.5651 50.1041 45.8375 50.4669 46.0815C50.6449 46.2012 50.7846 46.314 50.8977 46.4273C50.9679 46.4975 51.0278 46.5678 51.0803 46.64C51.0974 46.666 51.1137 46.6914 51.1292 46.7161C51.1332 46.7224 51.1371 46.7287 51.141 46.735C51.2004 46.8308 51.2487 46.9188 51.2875 47.006C51.3792 47.2119 51.4179 47.4136 51.4253 47.7054C51.4262 47.7418 51.4267 47.7795 51.4267 47.8189C51.4267 48.0661 51.3928 48.2837 51.3207 48.4826C51.3162 48.495 51.3115 48.5075 51.3067 48.5198C51.2965 48.5456 51.2858 48.5711 51.2743 48.5963C51.1746 48.8158 51.0237 49.0135 50.8147 49.2057C50.4928 49.498 50.0642 49.7064 49.5806 49.8283C49.5738 49.83 49.567 49.8317 49.5601 49.8334C48.9047 49.9947 48.1504 49.998 47.4255 49.8363C47.408 49.8324 47.3905 49.8284 47.3731 49.8243C47.1983 49.7833 47.0253 49.7327 46.856 49.6723C46.7996 49.6522 46.7436 49.631 46.6881 49.6087C46.6694 49.6012 46.6508 49.5936 46.6323 49.5859C46.6134 49.578 46.5945 49.57 46.5757 49.5618C46.4862 49.5231 46.3982 49.4814 46.3118 49.4369C46.2149 49.3827 46.1044 49.3083 45.9863 49.2191C45.9651 49.2031 45.9436 49.1866 45.9219 49.1696C45.8216 49.0911 45.7169 49.0031 45.6114 48.9086C45.5943 48.8933 45.5771 48.8778 45.56 48.8622C45.3992 48.7156 45.2379 48.5555 45.0885 48.3931C45.0823 48.3862 45.076 48.3794 45.0698 48.3725C45.0451 48.3455 45.0209 48.3185 44.997 48.2914C44.8548 48.1304 44.7269 47.9693 44.6254 47.8189C44.6096 47.7955 44.5944 47.7724 44.58 47.7495L44.2798 47.345L42.9751 48.1078L41.2432 49.1133L40.8045 49.3906C40.7955 49.4063 40.819 49.4651 40.8657 49.5533C40.8964 49.6111 40.9371 49.6815 40.9852 49.7606C41.0181 49.8146 41.0544 49.8726 41.0934 49.9334C41.1446 50.0133 41.2004 50.0979 41.2589 50.1845C41.4109 50.4094 41.5812 50.6474 41.7375 50.8488C41.8348 50.9742 41.9267 51.0854 42.0052 51.1704C42.2603 51.4502 42.553 51.7153 42.8756 51.9617C42.9002 51.9805 42.925 51.9992 42.9499 52.0178C43.0406 52.0852 43.1334 52.1512 43.2284 52.2157C43.2429 52.2255 43.2574 52.2353 43.272 52.2451C43.5867 52.4557 43.9236 52.6494 44.2768 52.8231C44.3081 52.8385 44.3396 52.8538 44.3711 52.8688C44.3831 52.8745 44.395 52.8802 44.407 52.8859C44.4256 52.8947 44.4443 52.9034 44.463 52.9121C44.4722 52.9164 44.4814 52.9206 44.4905 52.9249C45.0173 53.1674 45.5765 53.3657 46.1497 53.5102C46.1584 53.5124 46.1671 53.5146 46.1758 53.5167C46.3509 53.5603 46.5273 53.5989 46.7044 53.6321C47.0473 53.6916 47.544 53.7312 48.0691 53.7486C48.2275 53.7539 48.3884 53.7572 48.5485 53.7584C49.1983 53.7632 49.8342 53.734 50.2259 53.6668C50.3891 53.6397 50.5492 53.609 50.7061 53.5749C51.8667 53.3227 52.8533 52.881 53.636 52.276C53.6432 52.2704 53.6504 52.2648 53.6575 52.2592C54.4276 51.6581 54.9982 50.8977 55.3407 50.0032C55.59 49.3335 55.7134 48.5792 55.7171 47.8189C55.7175 47.7533 55.7169 47.6877 55.7155 47.6222C55.6894 46.4398 55.3757 45.2592 54.7981 44.3748C54.7759 44.3405 54.7533 44.3064 54.7303 44.2725C54.692 44.216 54.6525 44.1602 54.6119 44.1049C54.6069 44.0981 54.6018 44.0913 54.5968 44.0845C54.1855 43.5316 53.6518 43.0414 52.892 42.543C52.6886 42.4096 52.4689 42.2756 52.2311 42.1397C52.0766 42.0514 51.9145 41.9623 51.7442 41.872C51.6026 41.7969 51.4552 41.7211 51.3019 41.6441C51.1552 41.5705 51.003 41.4959 50.8451 41.4203C50.7542 41.3767 50.6614 41.3328 50.5666 41.2884C50.5336 41.273 50.5004 41.2575 50.4669 41.2419C50.2111 41.1232 49.9413 41.0014 49.6565 40.876C49.6351 40.8665 49.6136 40.8571 49.592 40.8476C49.4638 40.7914 49.3326 40.7344 49.1983 40.6765C48.9675 40.5752 48.7569 40.4806 48.5644 40.3912C48.5563 40.3875 48.5483 40.3838 48.5403 40.3801C48.4959 40.3594 48.4524 40.339 48.4099 40.3189C48.4065 40.3173 48.4032 40.3157 48.3998 40.3141C48.3801 40.3048 48.3607 40.2955 48.3414 40.2863C48.3337 40.2826 48.3262 40.279 48.3186 40.2753C47.9605 40.1035 47.6731 39.9508 47.4395 39.8056C47.4293 39.7993 47.4192 39.7929 47.4091 39.7866C47.3761 39.7657 47.3442 39.745 47.3133 39.7245C47.2673 39.6937 47.2236 39.6633 47.1821 39.6329C47.1014 39.5739 47.0289 39.5154 46.9634 39.4565C46.8896 39.3901 46.8247 39.3233 46.7668 39.2547C46.7417 39.2249 46.7178 39.1947 46.6952 39.1641C46.6271 39.072 46.5699 38.9761 46.5197 38.8736C46.5 38.831 46.4818 38.7903 46.4649 38.7507C46.4433 38.7 46.424 38.6511 46.407 38.6026C46.3436 38.4217 46.3118 38.2456 46.3118 37.9953C46.3118 37.9456 46.3134 37.8967 46.3165 37.8487C46.3191 37.8074 46.3228 37.7668 46.3277 37.7267C46.3374 37.647 46.3514 37.5698 46.3696 37.4952C46.487 37.0152 46.7784 36.6438 47.2017 36.4119C47.3361 36.3383 47.4839 36.2787 47.6435 36.2341C47.6613 36.2292 47.6792 36.2244 47.6973 36.2198C47.9733 36.1498 48.2835 36.1236 48.621 36.1461C48.9323 36.1687 49.2071 36.2229 49.4567 36.3152C49.4601 36.3164 49.4635 36.3177 49.4668 36.3189C49.4878 36.3268 49.5087 36.3349 49.5293 36.3434C49.567 36.3587 49.6041 36.375 49.6406 36.3921C49.6544 36.3986 49.668 36.4052 49.6816 36.4119C49.739 36.4403 49.795 36.4711 49.8499 36.5043C49.9353 36.5559 50.018 36.6134 50.0986 36.6773C50.1933 36.7523 50.2851 36.836 50.3752 36.929C50.3916 36.946 50.4079 36.9632 50.4242 36.9808C50.4244 36.981 50.4246 36.9812 50.4248 36.9814C50.4389 36.9966 50.4529 37.012 50.4669 37.0276C50.4769 37.0389 50.487 37.0502 50.497 37.0617C50.5575 37.1311 50.6173 37.2048 50.6769 37.2832C50.6831 37.2914 50.6893 37.2997 50.6956 37.308C50.7019 37.3164 50.7082 37.3249 50.7145 37.3335C50.7403 37.3683 50.766 37.404 50.7916 37.4405C50.8308 37.5043 50.87 37.5634 50.9079 37.6166C50.9241 37.6393 50.9401 37.661 50.9557 37.6815C50.9874 37.7231 51.0177 37.7598 51.0456 37.7909C51.1235 37.8776 51.1836 37.9206 51.2073 37.9028C51.4923 37.7262 51.8206 37.5164 52.1562 37.2979C52.8214 36.8647 53.5151 36.3972 53.9557 36.086C53.9649 36.0795 53.9739 36.0731 53.9828 36.0668C54.0631 36.0099 54.1343 35.9586 54.1947 35.9142C54.3352 35.8107 54.417 35.7441 54.417 35.7301C54.402 35.6624 54.3248 35.5312 54.2126 35.3691C54.2116 35.3676 54.2105 35.3661 54.2095 35.3645C54.1741 35.3136 54.1354 35.2595 54.0941 35.2035C54.0854 35.1918 54.0767 35.1801 54.0679 35.1682C53.8399 34.8624 53.543 34.5044 53.3086 34.2508C53.0212 33.9507 52.7221 33.6902 52.403 33.4665C52.3869 33.4552 52.3708 33.444 52.3546 33.4329C51.8047 33.0562 51.1949 32.7872 50.4836 32.6128C50.4719 32.61 50.4602 32.6071 50.4484 32.6043C50.445 32.6035 50.4416 32.6027 50.4382 32.6019C50.4328 32.6006 50.4275 32.5993 50.4222 32.5981L50.4453 32.575C50.4398 32.5735 50.4343 32.5721 50.4287 32.5707C50.4259 32.57 50.4231 32.5693 50.4203 32.5686C50.4082 32.5655 50.3958 32.5625 50.3831 32.5595C50.0214 32.4741 49.4693 32.4141 48.8963 32.3868C48.8892 32.3864 48.8821 32.3861 48.875 32.3857C48.4888 32.3679 48.0941 32.3648 47.7426 32.3787C47.4828 32.389 47.2467 32.4086 47.055 32.4383C47.0129 32.4448 46.9729 32.4519 46.9353 32.4594C46.658 32.5108 46.3899 32.5765 46.1318 32.6559C45.2219 32.9357 44.4358 33.3852 43.8035 33.9767Z" stroke="#C6B7F8" stroke-width="0.617161" mask="url(#path-2-outside-1_667_3277)"/>
</svg>
