<?xml version="1.0" encoding="UTF-8"?>
<svg width="1636px" height="450px" viewBox="0 0 1636 450" version="1.1" xmlns="http://www.w3.org/2000/svg" xmlns:xlink="http://www.w3.org/1999/xlink">
    <!-- Generator: Sketch 53.2 (72643) - https://sketchapp.com -->
    <title>999logo</title>
    <desc>Created with Sketch.</desc>
    <g id="999logo" stroke="none" stroke-width="1" fill="none" fill-rule="evenodd">
        <g id="Group" transform="translate(51.000000, 149.000000)" fill="#FFFFFF">
            <g id="999-copy" transform="translate(646.000000, 0.000000)">
                <polygon id="Path-001" points="154.012122 222.123534 154.55248 267.214564 110.599671 191.004797 123.447902 168.749187"></polygon>
                <polygon id="Path-002" points="122.603582 167.062659 109.698121 189.46047 66.7955238 115.180055 92.6455238 115.180055"></polygon>
                <polygon id="Path-003" transform="translate(53.683894, 81.445701) scale(-1, 1) rotate(240.000000) translate(-53.683894, -81.445701) " points="75.2562089 85.3397528 75.2964384 130.161283 32.0713501 55.0116831 44.9356173 32.7301187"></polygon>
                <polygon id="Path-004" points="24.1362582 37.894176 62.7788862 59.6840466 122.621708 59.6840466 110.055897 37.8850318"></polygon>
                <polygon id="Path-005" points="112.089101 37.8850318 124.805558 59.6840466 185.06205 59.6840466 197.591388 37.8850318"></polygon>
                <polygon id="Path-006" transform="translate(233.294371, 43.523498) scale(1, -1) rotate(300.000000) translate(-233.294371, -43.523498) " points="254.482688 48.0080952 254.684275 91.5490342 211.904466 17.4522314 224.165949 -4.50203814"></polygon>
                <polygon id="Path-007" transform="translate(256.333756, 81.123843) rotate(240.000000) translate(-256.333756, -81.123843) " points="277.341239 84.3637279 277.581649 129.933821 235.085863 53.7599909 247.46779 32.3138657"></polygon>
                <polygon id="Path-008" points="187.395375 167.172324 217.439055 115.052607 242.615385 115.052607 200.259994 189.628942"></polygon>
                <polygon id="Path-009" transform="translate(177.393259, 217.949753) scale(-1, 1) translate(-177.393259, -217.949753) " points="198.926594 222.361458 199.308709 267.214564 155.477809 190.648663 168.2734 168.684942"></polygon>
                <polygon id="Path-010" points="153.544296 180.681558 153.544296 218.277124 123.956383 167.407196 135.038244 148.033417"></polygon>
                <polygon id="Path-020" points="133.98241 146.270978 122.827332 165.927376 94.1279033 115.214849 115.989028 115.214849"></polygon>
                <polygon id="Path-030" points="115.101225 113.414642 92.923037 113.405227 62.9571734 61.9646262 96.4454562 81.6061698"></polygon>
                <polygon id="Path-040" points="64.4034111 61.1943755 98.4441516 80.7187495 134.348364 80.7187495 122.907644 61.349462"></polygon>
                <polygon id="Path-050" points="136.490884 80.7187495 125.263635 61.349462 183.34261 61.349462 172.304604 80.7187495"></polygon>
                <polygon id="Path-060" points="174.475131 80.7187495 185.910102 61.349462 244.410653 61.349462 210.275819 80.7187495"></polygon>
                <polygon id="Path-070" points="210.515405 83.3798962 245.480629 62.9296458 216.103692 113.241917 193.33942 113.241917"></polygon>
                <polygon id="Path-080" points="174.966073 146.242122 192.824176 115.08741 215.20061 115.08741 185.803306 165.402299"></polygon>
                <polygon id="Path-090" transform="translate(170.151272, 183.182369) scale(-1, 1) translate(-170.151272, -183.182369) " points="184.793517 180.739737 184.907211 218.277124 155.395334 166.816816 166.092836 148.087615"></polygon>
                <polygon id="Path-100" points="153.334458 139.553818 153.334458 176.308148 135.88236 145.859813 146.715481 127.602148"></polygon>
                <polygon id="Path-200" points="134.925409 144.182531 145.750653 125.553372 139.518636 114.654984 117.941896 114.654984"></polygon>
                <polygon id="Path-300" points="131.733494 101.888176 100.633293 84.0015107 117.382441 112.978498 138.113473 112.969521"></polygon>
                <polygon id="Path-400" points="133.415873 100.474756 102.476581 82.1663605 135.311129 82.1519157 145.750653 100.416589"></polygon>
                <polygon id="Path-500" points="137.359299 81.9788066 147.752521 100.474756 160.100402 100.474756 171.013722 81.9788066"></polygon>
                <polygon id="Path-600" points="175.07051 100.416589 206.789796 81.9933176 173.484914 81.9788066 162.569072 100.416589"></polygon>
                <polygon id="Path-700" points="176.542013 101.788291 208.633084 83.3698235 191.689701 112.805389 169.924046 112.796405"></polygon>
                <polygon id="Path-800" points="173.615245 144.421612 163.165325 125.484923 169.184671 114.664669 190.814637 114.654984"></polygon>
                <polygon id="Path-900" transform="translate(163.811135, 151.955148) scale(-1, 1) translate(-163.811135, -151.955148) " points="172.444526 139.677395 172.444526 176.308148 155.177745 145.847052 165.821935 127.602148"></polygon>
            </g>
            <path d="M1040.464,192.198 C1040.464,194.838013 1040.167,196.916992 1039.573,198.435 C1038.979,199.953008 1038.484,202.031987 1038.088,204.672 C1037.428,208.500019 1036.735,212.657978 1036.009,217.146 C1035.283,221.634022 1034.425,225.791981 1033.435,229.62 C1032.445,233.448019 1031.35601,236.681987 1030.168,239.322 C1028.97999,241.962013 1027.72601,243.282 1026.406,243.282 L1023.436,243.282 C1022.11599,243.282 1020.66401,243.216001 1019.08,243.084 C1017.49599,242.951999 1016.01101,242.721002 1014.625,242.391 C1013.23899,242.060998 1012.348,241.500004 1011.952,240.708 C1012.348,239.519994 1012.843,237.342016 1013.437,234.174 C1014.031,231.005984 1014.526,227.343021 1014.922,223.185 C1015.318,219.026979 1015.549,214.671023 1015.615,210.117 C1015.681,205.562977 1015.45,201.30602 1014.922,197.346 C1012.94199,194.969988 1009.70802,193.353004 1005.22,192.495 C1000.73198,191.636996 995.881026,191.142001 990.667,191.01 C985.452974,190.877999 980.404024,191.009998 975.52,191.406 C970.635976,191.802002 966.808014,192 964.036,192 C961.791989,192 959.68001,192.065999 957.7,192.198 C955.71999,192.330001 953.542012,192.396 951.166,192.396 C947.07398,192.396 945.028,190.614018 945.028,187.05 C945.028,185.465992 945.126999,184.278004 945.325,183.486 C945.523001,182.693996 945.753999,182.067002 946.018,181.605 C946.282001,181.142998 946.578998,180.747002 946.909,180.417 C947.239002,180.086998 947.535999,179.592003 947.8,178.932 C948.064001,178.403997 948.294999,176.622015 948.493,173.586 C948.691001,170.549985 948.79,166.854022 948.79,162.498 L948.79,148.242 C948.79,142.961974 948.724001,137.847025 948.592,132.897 C948.459999,127.946975 948.328001,123.42602 948.196,119.334 C948.063999,115.24198 947.932001,112.074011 947.8,109.83 C947.271997,109.169997 947.008,108.114007 947.008,106.662 C947.008,105.209993 947.337997,104.154003 947.998,103.494 C949.186006,102.701996 950.901989,102.108002 953.146,101.712 C955.390011,101.315998 957.699988,101.118 960.076,101.118 C962.584013,101.118 965.025988,101.216999 967.402,101.415 C969.778012,101.613001 971.691993,101.843999 973.144,102.108 C973.672003,102.240001 974.034999,103.625987 974.233,106.266 C974.431001,108.906013 974.53,112.337979 974.53,116.562 C974.53,120.65402 974.464001,125.207975 974.332,130.224 C974.199999,135.240025 974.035001,140.189976 973.837,145.074 C973.638999,149.958024 973.474001,154.44598 973.342,158.538 C973.209999,162.63002 973.144,165.797989 973.144,168.042 C973.144,168.966005 973.177,170.153993 973.243,171.606 C973.309,173.058007 973.506998,174.476993 973.837,175.863 C974.167002,177.249007 974.694996,178.469995 975.421,179.526 C976.147004,180.582005 977.169993,181.11 978.49,181.11 L992.152,181.11 C993.208005,181.11 993.966998,180.219009 994.429,178.437 C994.891002,176.654991 995.122,175.368004 995.122,174.576 C995.650003,169.955977 996.078998,164.64303 996.409,158.637 C996.739002,152.63097 996.969999,146.526031 997.102,140.322 C997.234001,134.117969 997.168001,128.04603 996.904,122.106 C996.639999,116.16597 996.112004,110.886023 995.32,106.266 C995.055999,105.077994 995.616993,104.154003 997.003,103.494 C998.389007,102.833997 1000.10499,102.306002 1002.151,101.91 C1004.19701,101.513998 1006.27599,101.283 1008.388,101.217 C1010.50001,101.151 1012.28199,101.118 1013.734,101.118 L1017.496,101.118 C1018.81601,101.118 1019.938,101.249999 1020.862,101.514 C1021.786,101.778001 1022.512,102.305996 1023.04,103.098 C1023.568,103.890004 1023.832,105.143991 1023.832,106.86 C1023.832,112.536028 1023.733,118.508969 1023.535,124.779 C1023.337,131.049031 1023.139,137.384968 1022.941,143.787 C1022.743,150.189032 1022.578,156.557968 1022.446,162.894 C1022.314,169.230032 1022.248,175.301971 1022.248,181.11 C1023.43601,181.374001 1025.05299,181.802997 1027.099,182.397 C1029.14501,182.991003 1031.15799,183.782995 1033.138,184.773 C1035.11801,185.763005 1036.83399,186.884994 1038.286,188.139 C1039.73801,189.393006 1040.464,190.745993 1040.464,192.198 Z M1140.9985,189.624 C1141.3945,190.416004 1141.0315,190.943999 1139.9095,191.208 C1138.78749,191.472001 1137.30251,191.637 1135.4545,191.703 C1133.60649,191.769 1131.56051,191.802 1129.3165,191.802 C1127.20449,191.802 1125.29051,191.867999 1123.5745,192 C1120.93448,192.264001 1118.9215,192.264001 1117.5355,192 C1116.14949,191.735999 1115.1265,190.944007 1114.4665,189.624 C1113.27849,187.379989 1112.4205,184.938013 1111.8925,182.298 C1111.36449,179.657987 1110.7705,177.612007 1110.1105,176.16 L1083.3805,176.16 L1033.2865,246.45 C1031.57049,248.298009 1029.65651,249.452998 1027.5445,249.915 C1025.43249,250.377002 1023.6505,249.684009 1022.1985,247.836 C1020.74649,245.723989 1020.28449,243.216015 1020.8125,240.312 C1024.64052,238.859993 1029.02947,235.725024 1033.9795,230.907 C1038.92952,226.088976 1044.04447,220.347033 1049.3245,213.681 C1054.60452,207.014967 1059.85147,199.755039 1065.0655,191.901 C1070.27952,184.046961 1075.06448,176.358038 1079.4205,168.834 C1083.77652,161.309962 1087.50548,154.248033 1090.6075,147.648 C1093.70951,141.047967 1095.78849,135.70202 1096.8445,131.61 C1096.5805,130.025992 1096.4155,128.013012 1096.3495,125.571 C1096.2835,123.128988 1096.2175,120.720012 1096.1515,118.344 C1096.0855,115.967988 1095.8875,113.856009 1095.5575,112.008 C1095.2275,110.159991 1094.7985,109.038002 1094.2705,108.642 C1091.89449,107.981997 1089.22151,107.816998 1086.2515,108.147 C1083.28148,108.477002 1080.87251,109.235994 1079.0245,110.424 C1078.49649,111.744007 1078.0675,112.832996 1077.7375,113.691 C1077.4075,114.549004 1077.1435,115.373996 1076.9455,116.166 C1076.7475,116.958004 1076.6155,117.749996 1076.5495,118.542 C1076.4835,119.334004 1076.4505,120.323994 1076.4505,121.512 C1076.4505,122.172003 1076.0545,122.600999 1075.2625,122.799 C1074.47049,122.997001 1073.5795,122.997001 1072.5895,122.799 C1071.59949,122.600999 1070.6425,122.304002 1069.7185,121.908 C1068.79449,121.511998 1068.0685,120.984003 1067.5405,120.324 C1066.48449,119.135994 1065.8245,117.684009 1065.5605,115.968 C1065.2965,114.251991 1064.9995,112.602008 1064.6695,111.018 C1064.3395,109.433992 1063.8115,107.982007 1063.0855,106.662 C1062.35949,105.341993 1061.00651,104.484002 1059.0265,104.088 C1058.23449,103.955999 1057.8715,103.494004 1057.9375,102.702 C1058.0035,101.909996 1058.33349,101.151004 1058.9275,100.425 C1059.5215,99.6989964 1060.21449,99.0720026 1061.0065,98.544 C1061.7985,98.0159974 1062.3925,97.8179993 1062.7885,97.95 C1065.95651,99.4020073 1069.55348,100.424997 1073.5795,101.019 C1077.60552,101.613003 1081.79648,101.975999 1086.1525,102.108 C1090.50852,102.240001 1094.79848,102.207001 1099.0225,102.009 C1103.24652,101.810999 1107.07448,101.646001 1110.5065,101.514 C1113.93851,101.381999 1116.77649,101.283 1119.0205,101.217 C1121.26451,101.151 1122.5845,101.315998 1122.9805,101.712 C1123.6405,102.504004 1123.8385,103.85699 1123.5745,105.771 C1123.3105,107.68501 1122.9145,109.796988 1122.3865,112.107 C1121.85849,114.417012 1121.3965,116.693989 1121.0005,118.938 C1120.6045,121.182011 1120.6045,123.029993 1121.0005,124.482 C1122.1885,129.498025 1123.44249,134.744973 1124.7625,140.223 C1126.0825,145.701027 1127.53449,151.277972 1129.1185,156.954 C1130.7025,162.630028 1132.48449,168.239972 1134.4645,173.784 C1136.44451,179.328028 1138.62249,184.607975 1140.9985,189.624 Z M1108.7245,170.22 C1108.7245,169.691997 1108.3945,168.240012 1107.7345,165.864 C1107.07449,163.487988 1106.2825,160.881014 1105.3585,158.043 C1104.43449,155.204986 1103.5435,152.499013 1102.6855,149.925 C1101.82749,147.350987 1101.2005,145.668004 1100.8045,144.876 C1100.14449,145.668004 1099.3195,147.251988 1098.3295,149.628 C1097.33949,152.004012 1096.3825,153.983992 1095.4585,155.568 C1094.00649,157.812011 1092.45551,160.319986 1090.8055,163.092 C1089.15549,165.864014 1087.9345,168.23999 1087.1425,170.22 L1108.7245,170.22 Z M1234.40499,117.552 C1233.61299,120.720016 1232.689,123.392989 1231.63299,125.571 C1230.57699,127.749011 1229.257,129.563993 1227.67299,131.016 C1226.08899,132.468007 1224.208,133.622996 1222.02999,134.481 C1219.85198,135.339004 1217.17901,136.097997 1214.01099,136.758 C1209.78697,137.550004 1206.02501,137.946 1202.72499,137.946 L1197.77499,137.946 C1197.77499,139.266007 1197.70899,142.136978 1197.57699,146.559 C1197.44499,150.981022 1197.41199,155.765974 1197.47799,160.914 C1197.54399,166.062026 1197.77499,171.044976 1198.17099,175.863 C1198.567,180.681024 1199.29299,184.145989 1200.34899,186.258 C1200.877,187.314005 1200.745,188.369995 1199.95299,189.426 C1199.16099,190.482005 1198.237,191.141999 1197.18099,191.406 C1194.14498,192.066003 1191.17501,192.264001 1188.27099,192 C1185.36698,191.735999 1182.00101,191.735999 1178.17299,192 C1177.11699,192.264001 1176.226,192.165002 1175.49999,191.703 C1174.77399,191.240998 1174.18,190.515005 1173.71799,189.525 C1173.25599,188.534995 1172.92599,187.446006 1172.72799,186.258 C1172.52999,185.069994 1172.43099,183.948005 1172.43099,182.892 C1172.29899,176.291967 1172.101,170.253027 1171.83699,164.775 C1171.57299,159.296973 1171.37499,153.984026 1171.24299,148.836 C1171.11099,143.687974 1171.11099,138.408027 1171.24299,132.996 C1171.37499,127.583973 1171.77099,121.710032 1172.43099,115.374 C1172.56299,113.921993 1172.431,112.569006 1172.03499,111.315 C1171.63899,110.060994 1171.21,108.873006 1170.74799,107.751 C1170.28599,106.628994 1169.95599,105.606005 1169.75799,104.682 C1169.55999,103.757995 1169.79099,102.900004 1170.45099,102.108 C1170.979,101.579997 1172.52998,101.250001 1175.10399,101.118 C1177.67801,100.985999 1180.41698,100.985999 1183.32099,101.118 C1186.22501,101.250001 1188.83198,101.414999 1191.14199,101.613 L1194.60699,101.91 C1196.191,101.91 1198.03898,101.811001 1200.15099,101.613 C1202.263,101.414999 1204.50698,101.250001 1206.88299,101.118 C1209.25901,100.985999 1211.70098,100.92 1214.20899,100.92 C1216.71701,100.92 1219.09298,101.051999 1221.33699,101.316 C1223.58101,101.580001 1225.65998,102.074996 1227.57399,102.801 C1229.488,103.527004 1231.07199,104.516994 1232.32599,105.771 C1233.58,107.025006 1234.40499,108.60899 1234.80099,110.523 C1235.197,112.43701 1235.065,114.779986 1234.40499,117.552 Z M1209.25899,113.79 C1208.99499,111.941991 1207.807,110.787002 1205.69499,110.325 C1203.58298,109.862998 1201.603,109.697999 1199.75499,109.83 C1198.96299,110.358003 1198.435,111.380992 1198.17099,112.899 C1197.90699,114.417008 1197.77499,116.099991 1197.77499,117.948 C1197.77499,119.796009 1197.80799,121.610991 1197.87399,123.393 C1197.93999,125.175009 1197.90699,126.461996 1197.77499,127.254 C1197.90699,128.046004 1198.30299,128.573999 1198.96299,128.838 C1199.623,129.102001 1200.34899,129.234 1201.14099,129.234 C1202.065,129.234 1202.95599,129.201 1203.81399,129.135 C1204.672,129.069 1205.36499,129.101999 1205.89299,129.234 C1206.421,128.705997 1206.91599,127.782007 1207.37799,126.462 C1207.84,125.141993 1208.23599,123.690008 1208.56599,122.106 C1208.896,120.521992 1209.12699,118.938008 1209.25899,117.354 C1209.39099,115.769992 1209.39099,114.582004 1209.25899,113.79 Z M1292.17149,97.95 C1292.17149,99.5340079 1291.3795,100.919994 1289.79549,102.108 C1288.21148,103.296006 1286.3965,104.252996 1284.35049,104.979 C1282.30448,105.705004 1280.3575,106.232998 1278.50949,106.563 C1276.66148,106.893002 1275.47349,107.123999 1274.94549,107.256 C1272.43748,107.784003 1270.4245,108.476996 1268.90649,109.335 C1267.38848,110.193004 1266.2005,111.248994 1265.34249,112.503 C1264.48449,113.757006 1263.89049,115.34099 1263.56049,117.255 C1263.23049,119.16901 1263.06549,121.511986 1263.06549,124.284 C1263.06549,128.37602 1263.39549,133.028974 1264.05549,138.243 C1264.71549,143.457026 1265.60649,148.835972 1266.72849,154.38 C1267.8505,159.924028 1269.13748,165.401973 1270.58949,170.814 C1272.0415,176.226027 1273.52648,181.208977 1275.04449,185.763 C1276.5625,190.317023 1278.04748,194.243984 1279.49949,197.544 C1280.9515,200.844017 1282.20549,203.021995 1283.26149,204.078 C1284.7135,205.530007 1286.39648,207.542987 1288.31049,210.117 C1290.2245,212.691013 1291.18149,215.099989 1291.18149,217.344 C1291.18149,218.268005 1290.6205,219.059997 1289.49849,219.72 C1288.37649,220.380003 1287.0565,220.940998 1285.53849,221.403 C1284.02048,221.865002 1282.5025,222.227999 1280.98449,222.492 C1279.46648,222.756001 1278.31149,222.888 1277.51949,222.888 C1275.27548,222.888 1273.2625,222.393005 1271.48049,221.403 C1269.69848,220.412995 1268.1145,219.159008 1266.72849,217.641 C1265.34248,216.122992 1264.1545,214.440009 1263.16449,212.592 C1262.17449,210.743991 1261.34949,208.962009 1260.68949,207.246 C1258.84148,202.097974 1257.1915,196.026035 1255.73949,189.03 C1254.28748,182.033965 1253.0995,174.807037 1252.17549,167.349 C1251.25149,159.890963 1250.62449,152.532036 1250.29449,145.272 C1249.96449,138.011964 1249.99749,131.41203 1250.39349,125.472 C1250.65749,121.37998 1251.51548,117.090022 1252.96749,112.602 C1254.4195,108.113978 1256.33348,103.956019 1258.70949,100.128 C1261.0855,96.2999809 1263.85748,93.0660132 1267.02549,90.426 C1270.19351,87.7859868 1273.55947,86.2020026 1277.12349,85.674 C1278.0475,85.5419993 1279.36748,85.871996 1281.08349,86.664 C1282.7995,87.456004 1284.48248,88.4459941 1286.13249,89.634 C1287.7825,90.8220059 1289.20149,92.1749924 1290.38949,93.693 C1291.5775,95.2110076 1292.17149,96.6299934 1292.17149,97.95 Z M1386.96399,115.374 C1386.96399,116.034003 1386.238,116.792996 1384.78599,117.651 C1383.33398,118.509004 1381.684,119.300996 1379.83599,120.027 C1377.98798,120.753004 1376.206,121.346998 1374.48999,121.809 C1372.77398,122.271002 1371.65199,122.436001 1371.12399,122.304 C1370.33198,122.039999 1369.53999,121.248007 1368.74799,119.928 C1367.95598,118.607993 1367.26299,117.222007 1366.66899,115.77 C1366.07498,114.317993 1365.54699,112.965006 1365.08499,111.711 C1364.62299,110.456994 1364.19399,109.764001 1363.79799,109.632 C1363.40199,109.499999 1362.77499,109.401 1361.91699,109.335 C1361.05898,109.269 1360.10199,109.236 1359.04599,109.236 L1355.87799,109.236 C1354.82198,109.236 1354.02999,109.301999 1353.50199,109.434 C1352.84198,109.566001 1352.51199,110.093995 1352.51199,111.018 L1352.51199,112.602 C1352.51199,115.374014 1352.54499,119.069977 1352.61099,123.69 C1352.67699,128.310023 1352.74299,133.259974 1352.80899,138.54 C1352.87499,143.820026 1353.00699,149.198973 1353.20499,154.677 C1353.40299,160.155027 1353.56799,165.137978 1353.69999,169.626 C1353.83199,174.114022 1353.96399,177.941984 1354.09599,181.11 C1354.22799,184.278016 1354.35999,186.191997 1354.49199,186.852 C1354.75599,188.304007 1354.62399,189.326997 1354.09599,189.921 C1353.56799,190.515003 1352.84199,190.943999 1351.91799,191.208 C1350.99398,191.472001 1349.93799,191.604 1348.74999,191.604 C1347.56198,191.604 1346.43999,191.669999 1345.38399,191.802 C1345.11999,191.802 1344.196,191.835 1342.61199,191.901 C1341.02798,191.967 1339.312,192.033 1337.46399,192.099 C1335.61598,192.165 1333.966,192.198 1332.51399,192.198 L1330.13799,192.198 C1329.34598,192.330001 1328.45499,191.802006 1327.46499,190.614 C1326.47498,189.425994 1326.11199,188.502003 1326.37599,187.842 C1326.77199,186.521993 1327.06899,183.750021 1327.26699,179.526 C1327.46499,175.301979 1327.59699,170.319029 1327.66299,164.577 C1327.72899,158.834971 1327.72899,152.796032 1327.66299,146.46 C1327.59699,140.123968 1327.49799,134.250027 1327.36599,128.838 C1327.23399,123.425973 1327.06899,118.806019 1326.87099,114.978 C1326.67299,111.149981 1326.50799,108.972003 1326.37599,108.444 C1322.15197,108.444 1318.654,108.477 1315.88199,108.543 C1313.10997,108.609 1311.72399,108.839998 1311.72399,109.236 C1311.72399,110.160005 1311.78999,111.61199 1311.92199,113.592 C1312.05399,115.57201 1312.18599,117.848987 1312.31799,120.423 C1312.44999,122.997013 1312.61499,125.669986 1312.81299,128.442 C1313.01099,131.214014 1313.17599,133.754988 1313.30799,136.065 C1313.43999,138.375012 1313.53899,140.288992 1313.60499,141.807 C1313.67099,143.325008 1313.70399,144.149999 1313.70399,144.282 C1313.30799,145.074004 1312.44999,145.898996 1311.12999,146.757 C1309.80998,147.615004 1308.358,148.406996 1306.77399,149.133 C1305.18998,149.859004 1303.639,150.452998 1302.12099,150.915 C1300.60298,151.377002 1299.44799,151.608 1298.65599,151.608 C1297.86398,151.475999 1297.17099,150.321011 1296.57699,148.143 C1295.98298,145.964989 1295.48799,143.226017 1295.09199,139.926 C1294.69599,136.625984 1294.39899,132.99602 1294.20099,129.036 C1294.00299,125.07598 1293.83799,121.314018 1293.70599,117.75 C1293.57399,114.185982 1293.50799,111.018014 1293.50799,108.246 L1293.50799,102.702 C1294.03599,101.381993 1294.59698,100.656001 1295.19099,100.524 C1295.78499,100.391999 1296.60998,100.326 1297.66599,100.326 C1300.438,100.326 1304.00197,100.424999 1308.35799,100.623 C1312.71401,100.821001 1317.20196,101.018999 1321.82199,101.217 C1326.44201,101.415001 1330.92997,101.612999 1335.28599,101.811 C1339.64201,102.009001 1343.27197,102.108 1346.17599,102.108 C1348.288,102.108 1350.72997,102.042001 1353.50199,101.91 C1356.274,101.777999 1359.07897,101.679 1361.91699,101.613 C1364.755,101.547 1367.55997,101.448001 1370.33199,101.316 C1373.104,101.183999 1375.54598,101.118 1377.65799,101.118 C1378.44999,101.118 1379.37398,101.678994 1380.42999,102.801 C1381.48599,103.923006 1382.50898,105.275992 1383.49899,106.86 C1384.48899,108.444008 1385.31398,110.027992 1385.97399,111.612 C1386.63399,113.196008 1386.96399,114.449995 1386.96399,115.374 Z M1461.16448,185.664 C1460.10848,187.64401 1459.05249,189.062996 1457.99648,189.921 C1456.94048,190.779004 1455.75249,191.306999 1454.43248,191.505 C1453.11248,191.703001 1451.66049,191.736001 1450.07648,191.604 C1448.49248,191.471999 1446.71049,191.406 1444.73048,191.406 C1437.20645,191.670001 1429.91352,191.900999 1422.85148,192.099 C1415.78945,192.297001 1409.75051,191.934005 1404.73448,191.01 C1402.22647,190.613998 1400.47749,190.020004 1399.48748,189.228 C1398.49748,188.435996 1397.96949,187.611004 1397.90348,186.753 C1397.83748,185.894996 1397.96948,184.971005 1398.29948,183.981 C1398.62949,182.990995 1398.86048,181.968005 1398.99248,180.912 C1399.25649,178.93199 1399.42148,175.269027 1399.48748,169.923 C1399.55349,164.576973 1399.58648,158.538034 1399.58648,151.806 C1399.58648,145.073966 1399.55349,138.243035 1399.48748,131.313 C1399.42148,124.382965 1399.32249,118.344026 1399.19048,113.196 C1399.05848,110.819988 1398.76149,108.840008 1398.29948,107.256 C1397.83748,105.671992 1397.73848,104.550003 1398.00248,103.89 C1397.87048,102.701994 1398.62948,101.943002 1400.27948,101.613 C1401.92949,101.282998 1403.94247,101.183999 1406.31848,101.316 C1408.6945,101.448001 1411.07047,101.612999 1413.44648,101.811 C1415.8225,102.009001 1417.67048,102.108 1418.99048,102.108 C1422.2905,101.975999 1425.52447,101.745002 1428.69248,101.415 C1431.8605,101.084998 1434.92947,100.887 1437.89948,100.821 C1440.8695,100.755 1443.77347,100.952998 1446.61148,101.415 C1449.4495,101.877002 1452.32047,102.701994 1455.22448,103.89 C1456.28049,104.286002 1457.10548,104.978995 1457.69948,105.969 C1458.29349,106.959005 1458.65648,108.014994 1458.78848,109.137 C1458.92049,110.259006 1458.92049,111.413994 1458.78848,112.602 C1458.65648,113.790006 1458.39249,114.845995 1457.99648,115.77 C1457.60048,116.694005 1455.8845,118.343988 1452.84848,120.72 C1449.81247,123.096012 1446.4135,125.570987 1442.65148,128.145 C1438.88947,130.719013 1435.2595,133.160988 1431.76148,135.471 C1428.26347,137.781012 1425.85449,139.331996 1424.53448,140.124 C1424.93049,142.10401 1426.01948,143.423997 1427.80148,144.084 C1429.58349,144.744003 1431.66247,145.074 1434.03848,145.074 C1436.5465,145.074 1439.18647,144.942001 1441.95848,144.678 C1444.7305,144.413999 1447.37047,144.347999 1449.87848,144.48 C1452.3865,144.612001 1454.56448,145.106996 1456.41248,145.965 C1458.26049,146.823004 1459.44848,148.373989 1459.97648,150.618 C1460.63649,153.390014 1461.32948,156.293985 1462.05548,159.33 C1462.78149,162.366015 1463.27648,165.368985 1463.54048,168.339 C1463.80449,171.309015 1463.80449,174.278985 1463.54048,177.249 C1463.27648,180.219015 1462.48449,183.023987 1461.16448,185.664 Z M1437.80048,115.176 C1437.40448,113.987994 1436.61249,112.965004 1435.42448,112.107 C1434.23648,111.248996 1432.98249,110.523003 1431.66248,109.929 C1430.34248,109.334997 1429.12149,108.906001 1427.99948,108.642 C1426.87748,108.377999 1426.25049,108.377999 1426.11848,108.642 C1425.32648,109.566005 1424.76549,111.05099 1424.43548,113.097 C1424.10548,115.14301 1423.90749,117.320988 1423.84148,119.631 C1423.77548,121.941012 1423.80848,124.184989 1423.94048,126.363 C1424.07249,128.541011 1424.20448,130.091995 1424.33648,131.016 C1425.12849,131.016 1426.34948,130.422006 1427.99948,129.234 C1429.64949,128.045994 1431.26648,126.594009 1432.85048,124.878 C1434.43449,123.161991 1435.75448,121.413009 1436.81048,119.631 C1437.86649,117.848991 1438.19649,116.364006 1437.80048,115.176 Z M1438.98848,182.298 C1439.51649,181.637997 1439.87948,180.252011 1440.07748,178.14 C1440.27549,176.027989 1440.34149,173.685013 1440.27548,171.111 C1440.20948,168.536987 1439.94549,166.029012 1439.48348,163.587 C1439.02148,161.144988 1438.46049,159.264007 1437.80048,157.944 C1437.27248,157.019995 1436.90949,156.393002 1436.71148,156.063 C1436.51348,155.732998 1436.24949,155.502001 1435.91948,155.37 C1435.58948,155.237999 1435.22649,155.139 1434.83048,155.073 C1434.43448,155.007 1433.77449,154.842001 1432.85048,154.578 C1431.00248,153.917997 1429.25349,153.225004 1427.60348,152.499 C1425.95348,151.772996 1424.73249,151.146003 1423.94048,150.618 C1423.80848,152.862011 1423.67649,155.501985 1423.54448,158.538 C1423.41248,161.574015 1423.34648,164.741984 1423.34648,168.042 C1423.34648,171.342017 1423.54448,174.476985 1423.94048,177.447 C1424.33649,180.417015 1424.93048,182.89199 1425.72248,184.872 C1426.77849,185.136001 1427.96648,185.268 1429.28648,185.268 C1430.60649,185.268 1431.89348,185.169001 1433.14748,184.971 C1434.40149,184.772999 1435.55648,184.443002 1436.61248,183.981 C1437.66849,183.518998 1438.46048,182.958003 1438.98848,182.298 Z M1536.35498,155.964 C1536.61898,156.888005 1536.42099,158.471989 1535.76098,160.716 C1535.10098,162.960011 1534.17699,165.500986 1532.98898,168.339 C1531.80098,171.177014 1530.44799,174.080985 1528.92998,177.051 C1527.41197,180.021015 1525.95999,182.759987 1524.57398,185.268 C1523.18797,187.776013 1521.90099,189.821992 1520.71298,191.406 C1519.52498,192.990008 1518.73298,193.782 1518.33698,193.782 C1513.58496,193.782 1509.856,193.089007 1507.14998,191.703 C1504.44397,190.316993 1502.36499,188.370013 1500.91298,185.862 C1499.46097,183.353987 1498.37199,180.450017 1497.64598,177.15 C1496.91998,173.849984 1496.09499,170.286019 1495.17098,166.458 C1494.64298,164.081988 1493.98299,161.706012 1493.19098,159.33 C1492.39898,156.953988 1492.00298,154.578012 1492.00298,152.202 C1492.00298,147.977979 1492.36598,143.82002 1493.09198,139.728 C1493.81799,135.63598 1494.51098,131.54402 1495.17098,127.452 C1495.69898,124.151984 1496.22698,120.918016 1496.75498,117.75 C1497.28298,114.581984 1498.20698,111.744013 1499.52698,109.236 C1500.84699,106.727987 1502.69497,104.715008 1505.07098,103.197 C1507.44699,101.678992 1510.74696,100.92 1514.97098,100.92 C1516.42299,100.92 1517.57798,101.513994 1518.43598,102.702 C1519.29399,103.890006 1519.98698,105.077994 1520.51498,106.266 C1522.23099,110.22602 1523.68298,114.317979 1524.87098,118.542 C1526.05899,122.766021 1527.18098,126.989979 1528.23698,131.214 C1529.29299,135.438021 1530.44798,139.628979 1531.70198,143.787 C1532.95599,147.945021 1534.50697,152.00398 1536.35498,155.964 Z M1520.51498,169.626 C1520.64698,169.229998 1520.77898,168.570005 1520.91098,167.646 C1521.04298,166.721995 1521.10898,165.732005 1521.10898,164.676 C1521.10898,163.619995 1521.04298,162.564005 1520.91098,161.508 C1520.77898,160.451995 1520.64698,159.594003 1520.51498,158.934 C1520.38298,158.273997 1519.95399,157.086009 1519.22798,155.37 C1518.50198,153.653991 1517.61099,151.641012 1516.55498,149.331 C1515.49898,147.020988 1514.37699,144.612013 1513.18898,142.104 C1512.00098,139.595987 1510.84599,137.31901 1509.72398,135.273 C1508.60198,133.22699 1507.54599,131.544007 1506.55598,130.224 C1505.56598,128.903993 1504.80698,128.309999 1504.27898,128.442 C1503.22298,128.706001 1502.59598,129.266996 1502.39798,130.125 C1502.19998,130.983004 1502.10098,132.533989 1502.10098,134.778 C1502.10098,137.022011 1502.59598,139.859983 1503.58598,143.292 C1504.57599,146.724017 1505.79697,150.221982 1507.24898,153.786 C1508.70099,157.350018 1510.21897,160.781984 1511.80298,164.082 C1513.38699,167.382017 1514.83898,169.889991 1516.15898,171.606 C1516.68698,172.266003 1517.47898,172.266003 1518.53498,171.606 C1519.59099,170.945997 1520.25098,170.286003 1520.51498,169.626 Z" id="ЦАРСТВО" fill-rule="nonzero"></path>
            <path d="M109.88,182.694 C109.88,184.542009 109.649002,186.554989 109.187,188.733 C108.724998,190.911011 108.428001,192.98999 108.296,194.97 C107.899998,199.590023 107.405003,203.516984 106.811,206.751 C106.216997,209.985016 105.590003,213.64798 104.93,217.74 C104.93,218.004001 104.501004,218.201999 103.643,218.334 C102.784996,218.466001 101.861005,218.565 100.871,218.631 C99.880995,218.697 98.9240046,218.73 98,218.73 L93.842,218.73 C92.9179954,218.73 91.9610049,218.631001 90.971,218.433 C89.980995,218.234999 89.1230036,217.872003 88.397,217.344 C87.6709964,216.815997 87.308,216.090005 87.308,215.166 C87.308,213.18599 87.802995,211.041012 88.793,208.731 C89.7830049,206.420988 90.278,204.144011 90.278,201.9 C90.278,200.447993 90.0470023,198.76501 89.585,196.851 C89.1229977,194.93699 88.0340086,193.716003 86.318,193.188 C83.4139855,192.395996 80.3120165,191.835002 77.012,191.505 C73.7119835,191.174998 70.3790168,190.944001 67.013,190.812 C63.6469832,190.679999 60.2480172,190.614 56.816,190.614 L47.51,190.614 C46.717996,190.614 45.2330109,190.647 43.055,190.713 C40.8769891,190.779 38.6000119,190.845 36.224,190.911 C33.8479881,190.977 31.6370102,191.108999 29.591,191.307 C27.5449898,191.505001 26.2580026,191.801998 25.73,192.198 C24.6739947,192.858003 24.0800007,194.21099 23.948,196.257 C23.8159993,198.30301 23.75,199.853995 23.75,200.91 C23.75,206.454028 24.0799967,211.898973 24.74,217.245 C25.4000033,222.591027 25.73,227.375979 25.73,231.6 C25.73,232.656005 25.4660026,233.414998 24.938,233.877 C24.4099974,234.339002 23.750004,234.668999 22.958,234.867 C22.165996,235.065001 21.3080046,235.164 20.384,235.164 L15.83,235.164 C14.6419941,235.164 13.3550069,235.131 11.969,235.065 C10.5829931,234.999 9.36200528,234.900001 8.306,234.768 C7.24999472,234.635999 6.722,234.438001 6.722,234.174 C6.722,232.853993 6.68900033,231.006012 6.623,228.63 C6.55699967,226.253988 6.42500099,223.680014 6.227,220.908 C6.02899901,218.135986 5.79800132,215.298015 5.534,212.394 C5.26999868,209.489985 4.94000198,206.784013 4.544,204.276 C4.14799802,200.975983 3.58700363,197.808015 2.861,194.772 C2.13499637,191.735985 1.37600396,188.634016 0.584,185.466 C0.18799802,184.013993 0.78199208,183.189001 2.366,182.991 C3.95000792,182.792999 5.20399538,182.694 6.128,182.694 C7.97600924,182.694 9.85699043,182.759999 11.771,182.892 C13.6850096,183.024001 15.5659908,183.09 17.414,183.09 C18.6020059,183.09 20.0539914,182.991001 21.77,182.793 C23.4860086,182.594999 24.4099993,181.704008 24.542,180.12 C24.6740007,178.799993 24.9709977,176.721014 25.433,173.883 C25.8950023,171.044986 26.521996,168.174015 27.314,165.27 C28.106004,162.365985 29.0299947,159.726012 30.086,157.35 C31.1420053,154.973988 32.2639941,153.456003 33.452,152.796 C35.4320099,151.871995 37.2469917,151.212002 38.897,150.816 C40.5470082,150.419998 42.0979927,149.991002 43.55,149.529 C45.0020073,149.066998 46.4209931,148.374005 47.807,147.45 C49.1930069,146.525995 50.6119927,145.008011 52.064,142.896 C50.8759941,139.199982 49.886004,135.30602 49.094,131.214 C48.9619993,130.421996 48.7640013,128.805012 48.5,126.363 C48.2359987,123.920988 47.906002,121.413013 47.51,118.839 C47.113998,116.264987 46.6520026,113.922011 46.124,111.81 C45.5959974,109.697989 44.936004,108.510001 44.144,108.246 C42.1639901,107.453996 40.1840099,107.288998 38.204,107.751 C36.2239901,108.213002 34.3760086,108.971995 32.66,110.028 C32.263998,110.952005 32.0000007,112.139993 31.868,113.592 C31.7359993,115.044007 31.5380013,116.462993 31.274,117.849 C31.0099987,119.235007 30.6140026,120.422995 30.086,121.413 C29.5579974,122.403005 28.8320046,122.898 27.908,122.898 C24.4759828,122.898 22.2650049,122.073008 21.275,120.423 C20.284995,118.772992 19.592002,116.892011 19.196,114.78 C18.799998,112.667989 18.2720033,110.58901 17.612,108.543 C16.9519967,106.49699 15.3680125,105.012005 12.86,104.088 C12.067996,103.823999 11.672,103.362003 11.672,102.702 C11.672,101.909996 12.2329944,100.854007 13.355,99.534 C14.4770056,98.2139934 15.5659947,97.6859987 16.622,97.95 C19.5260145,98.742004 22.0009898,99.4019974 24.047,99.93 C26.0930102,100.458003 28.0729904,100.919998 29.987,101.316 C31.9010096,101.712002 33.9469891,101.975999 36.125,102.108 C38.3030109,102.240001 40.9759842,102.306 44.144,102.306 C48.2360205,102.306 52.2619802,102.141002 56.222,101.811 C60.1820198,101.480998 64.2079795,101.316 68.3,101.316 C69.3560053,101.316 70.3129957,101.381999 71.171,101.514 C72.0290043,101.646001 72.458,102.371993 72.458,103.692 C72.458,105.012007 71.9960046,106.463992 71.072,108.048 C70.1479954,109.632008 69.686,111.347991 69.686,113.196 C69.686,118.872028 70.6099908,124.349974 72.458,129.63 C74.3060092,134.910026 76.3189891,140.156974 78.497,145.371 C80.6750109,150.585026 82.6879908,155.897973 84.536,161.31 C86.3840092,166.722027 87.308,172.39797 87.308,178.338 C87.308,180.186009 87.6709964,181.274998 88.397,181.605 C89.1230036,181.935002 90.3439914,182.1 92.06,182.1 C94.4360119,182.1 96.7789884,181.902002 99.089,181.506 C101.399012,181.109998 103.675989,180.912 105.92,180.912 C106.448003,180.912 107.239995,181.010999 108.296,181.209 C109.352005,181.407001 109.88,181.901996 109.88,182.694 Z M61.964,177.15 C61.964,176.225995 61.766002,174.576012 61.37,172.2 C60.973998,169.823988 60.4460033,167.349013 59.786,164.775 C59.1259967,162.200987 58.4330036,159.825011 57.707,157.647 C56.9809964,155.468989 56.222004,154.116003 55.43,153.588 C55.033998,153.588 54.539003,153.950996 53.945,154.677 C53.350997,155.403004 52.9220013,155.897999 52.658,156.162 C50.9419914,158.406011 49.7540033,160.880986 49.094,163.587 C48.4339967,166.293014 48.104,168.965987 48.104,171.606 C48.104,173.850011 48.1699993,175.664993 48.302,177.051 C48.4340007,178.437007 48.7639974,179.525996 49.292,180.318 C49.8200026,181.110004 50.6779941,181.637999 51.866,181.902 C53.0540059,182.166001 54.7699888,182.298 57.014,182.298 C59.2580112,182.298 60.6439974,182.001003 61.172,181.407 C61.7000026,180.812997 61.964,179.394011 61.964,177.15 Z M204.474499,166.854 C204.474499,168.438008 204.342501,169.790994 204.078499,170.913 C203.814498,172.035006 203.517501,173.189994 203.187499,174.378 C202.857498,175.566006 202.5935,176.885993 202.395499,178.338 C202.197498,179.790007 202.164499,181.50599 202.296499,183.486 C202.4285,185.202009 202.131503,186.719993 201.405499,188.04 C200.679496,189.360007 199.755505,190.415996 198.633499,191.208 C197.511494,192.000004 196.191507,192.461999 194.673499,192.594 C193.155492,192.726001 191.670507,192.396004 190.218499,191.604 C188.766492,190.811996 186.852511,190.613998 184.476499,191.01 C182.100487,191.406002 179.988509,191.538001 178.140499,191.406 C174.31248,191.273999 170.38552,191.438998 166.359499,191.901 C162.333479,192.363002 158.604517,192.396002 155.172499,192 C153.32449,191.867999 151.31151,191.867999 149.133499,192 L142.599499,192.396 C140.421488,192.528001 138.30951,192.528001 136.263499,192.396 C134.217489,192.263999 132.402507,191.802004 130.818499,191.01 C130.290497,190.481997 130.059499,189.987002 130.125499,189.525 C130.1915,189.062998 130.356498,188.601002 130.620499,188.139 C130.884501,187.676998 131.181498,187.215002 131.511499,186.753 C131.841501,186.290998 132.072499,185.796003 132.204499,185.268 C132.864503,173.25594 133.458497,161.376059 133.986499,149.628 C134.514502,137.879941 134.382503,126.198058 133.590499,114.582 C133.854501,113.393994 133.689502,112.305005 133.095499,111.315 L131.313499,108.345 C130.719496,107.354995 130.257501,106.332005 129.927499,105.276 C129.597498,104.219995 129.894495,103.032007 130.818499,101.712 C135.306522,100.787995 140.48747,100.391999 146.361499,100.524 C152.235529,100.656001 158.274468,100.820999 164.478499,101.019 C170.68253,101.217001 176.787469,101.250001 182.793499,101.118 C188.799529,100.985999 194.178476,100.128008 198.930499,98.544 L201.702499,100.722 C201.702499,102.834011 201.405502,105.011989 200.811499,107.256 C200.217496,109.500011 199.557503,111.809988 198.831499,114.186 C198.105496,116.562012 197.379503,118.970988 196.653499,121.413 C195.927496,123.855012 195.366501,126.263988 194.970499,128.64 C192.462487,129.036002 189.855513,128.871004 187.149499,128.145 C184.443486,127.418996 182.166509,126.06601 180.318499,124.086 C179.658496,122.765993 179.493498,121.578005 179.823499,120.522 C180.153501,119.465995 180.615496,118.443005 181.209499,117.453 C181.803502,116.462995 182.331497,115.440005 182.793499,114.384 C183.255502,113.327995 183.354501,112.008008 183.090499,110.424 C182.166495,109.367995 180.549511,108.642002 178.239499,108.246 C175.929488,107.849998 173.388513,107.652 170.616499,107.652 C167.976486,107.652 165.435512,107.783999 162.993499,108.048 C160.551487,108.312001 158.736505,108.444 157.548499,108.444 C157.020497,109.632006 156.6905,111.842984 156.558499,115.077 C156.426499,118.311016 156.393499,121.643983 156.459499,125.076 C156.5255,128.508017 156.657498,131.576986 156.855499,134.283 C157.0535,136.989014 157.284498,138.407999 157.548499,138.54 C160.188513,138.407999 162.43249,138.210001 164.280499,137.946 C166.128509,137.681999 167.910491,137.517 169.626499,137.451 C171.342508,137.385 173.09149,137.483999 174.873499,137.748 C176.655508,138.012001 178.866486,138.605995 181.506499,139.53 L182.199499,142.104 C182.661502,143.820009 182.958499,145.63499 183.090499,147.549 C183.2225,149.46301 182.892503,151.046994 182.100499,152.301 C181.308495,153.555006 179.724511,153.720005 177.348499,152.796 C171.012468,150.551989 166.392514,149.034004 163.488499,148.242 C160.584485,147.449996 158.604505,147.383997 157.548499,148.044 C157.944501,149.628008 158.0435,152.003984 157.845499,155.172 C157.647498,158.340016 157.4495,161.672983 157.251499,165.171 C157.053498,168.669017 157.053498,172.034984 157.251499,175.269 C157.4495,178.503016 158.142493,180.977991 159.330499,182.694 C159.594501,183.090002 160.980487,183.386999 163.488499,183.585 C165.996512,183.783001 168.735485,183.816001 171.705499,183.684 C174.675514,183.551999 177.447487,183.321002 180.021499,182.991 C182.595512,182.660998 184.014498,182.166003 184.278499,181.506 L185.565499,178.932 C186.159502,177.743994 186.720497,176.358008 187.248499,174.774 C187.776502,173.189992 188.106499,171.37501 188.238499,169.329 C188.3705,167.28299 188.172502,165.072012 187.644499,162.696 C187.248497,161.111992 187.908491,160.188001 189.624499,159.924 C191.340508,159.659999 193.287488,159.824997 195.465499,160.419 C197.64351,161.013003 199.68949,161.903994 201.603499,163.092 C203.517509,164.280006 204.474499,165.533993 204.474499,166.854 Z M299.266999,185.664 C298.210993,187.64401 297.155004,189.062996 296.098999,189.921 C295.042993,190.779004 293.855005,191.306999 292.534999,191.505 C291.214992,191.703001 289.763007,191.736001 288.178999,191.604 C286.594991,191.471999 284.813009,191.406 282.832999,191.406 C275.308961,191.670001 268.016034,191.900999 260.953999,192.099 C253.891963,192.297001 247.853024,191.934005 242.836999,191.01 C240.328986,190.613998 238.580004,190.020004 237.589999,189.228 C236.599994,188.435996 236.071999,187.611004 236.005999,186.753 C235.939998,185.894996 236.071997,184.971005 236.401999,183.981 C236.732,182.990995 236.962998,181.968005 237.094999,180.912 C237.359,178.93199 237.523998,175.269027 237.589999,169.923 C237.655999,164.576973 237.688999,158.538034 237.688999,151.806 C237.688999,145.073966 237.655999,138.243035 237.589999,131.313 C237.523998,124.382965 237.424999,118.344026 237.292999,113.196 C237.160998,110.819988 236.864001,108.840008 236.401999,107.256 C235.939996,105.671992 235.840997,104.550003 236.104999,103.89 C235.972998,102.701994 236.73199,101.943002 238.381999,101.613 C240.032007,101.282998 242.044987,101.183999 244.420999,101.316 C246.797011,101.448001 249.172987,101.612999 251.548999,101.811 C253.925011,102.009001 255.772992,102.108 257.092999,102.108 C260.393015,101.975999 263.626983,101.745002 266.794999,101.415 C269.963015,101.084998 273.031984,100.887 276.001999,100.821 C278.972014,100.755 281.875985,100.952998 284.713999,101.415 C287.552013,101.877002 290.422984,102.701994 293.326999,103.89 C294.383004,104.286002 295.207996,104.978995 295.801999,105.969 C296.396002,106.959005 296.758998,108.014994 296.890999,109.137 C297.022999,110.259006 297.022999,111.413994 296.890999,112.602 C296.758998,113.790006 296.495001,114.845995 296.098999,115.77 C295.702997,116.694005 293.987014,118.343988 290.950999,120.72 C287.914984,123.096012 284.516018,125.570987 280.753999,128.145 C276.99198,130.719013 273.362016,133.160988 269.863999,135.471 C266.365981,137.781012 263.957005,139.331996 262.636999,140.124 C263.033001,142.10401 264.12199,143.423997 265.903999,144.084 C267.686008,144.744003 269.764987,145.074 272.140999,145.074 C274.649011,145.074 277.288985,144.942001 280.060999,144.678 C282.833013,144.413999 285.472986,144.347999 287.980999,144.48 C290.489011,144.612001 292.66699,145.106996 294.514999,145.965 C296.363008,146.823004 297.550996,148.373989 298.078999,150.618 C298.739002,153.390014 299.431995,156.293985 300.157999,159.33 C300.884002,162.366015 301.378997,165.368985 301.642999,168.339 C301.907,171.309015 301.907,174.278985 301.642999,177.249 C301.378997,180.219015 300.587005,183.023987 299.266999,185.664 Z M275.902999,115.176 C275.506997,113.987994 274.715005,112.965004 273.526999,112.107 C272.338993,111.248996 271.085005,110.523003 269.764999,109.929 C268.444992,109.334997 267.224004,108.906001 266.101999,108.642 C264.979993,108.377999 264.352999,108.377999 264.220999,108.642 C263.428995,109.566005 262.868,111.05099 262.537999,113.097 C262.207997,115.14301 262.009999,117.320988 261.943999,119.631 C261.877998,121.941012 261.910998,124.184989 262.042999,126.363 C262.174999,128.541011 262.306998,130.091995 262.438999,131.016 C263.231003,131.016 264.45199,130.422006 266.101999,129.234 C267.752007,128.045994 269.368991,126.594009 270.952999,124.878 C272.537007,123.161991 273.856993,121.413009 274.912999,119.631 C275.969004,117.848991 276.299001,116.364006 275.902999,115.176 Z M277.090999,182.298 C277.619001,181.637997 277.981998,180.252011 278.179999,178.14 C278.378,176.027989 278.443999,173.685013 278.377999,171.111 C278.311998,168.536987 278.048001,166.029012 277.585999,163.587 C277.123996,161.144988 276.563002,159.264007 275.902999,157.944 C275.374996,157.019995 275.012,156.393002 274.813999,156.063 C274.615998,155.732998 274.352,155.502001 274.021999,155.37 C273.691997,155.237999 273.329001,155.139 272.932999,155.073 C272.536997,155.007 271.877003,154.842001 270.952999,154.578 C269.10499,153.917997 267.356007,153.225004 265.705999,152.499 C264.05599,151.772996 262.835003,151.146003 262.042999,150.618 C261.910998,152.862011 261.778999,155.501985 261.646999,158.538 C261.514998,161.574015 261.448999,164.741983 261.448999,168.042 C261.448999,171.342016 261.646997,174.476985 262.042999,177.447 C262.439001,180.417015 263.032995,182.89199 263.824999,184.872 C264.881004,185.136001 266.068992,185.268 267.388999,185.268 C268.709005,185.268 269.995992,185.169001 271.249999,184.971 C272.504005,184.772999 273.658993,184.443002 274.714999,183.981 C275.771004,183.518998 276.562996,182.958003 277.090999,182.298 Z M392.673498,188.238 C392.805499,189.690007 392.178505,190.646998 390.792498,191.109 C389.406491,191.571002 387.690508,191.835 385.644498,191.901 C383.598488,191.967 381.38751,191.901001 379.011498,191.703 C376.635486,191.504999 374.589507,191.471999 372.873498,191.604 C371.15749,191.736001 369.870502,191.769 369.012498,191.703 C368.154494,191.637 367.5275,191.439002 367.131498,191.109 C366.735496,190.778998 366.504498,190.317003 366.438498,189.723 C366.372498,189.128997 366.207499,188.370005 365.943498,187.446 C365.283495,184.805987 364.953498,181.968015 364.953498,178.932 C364.953498,175.763984 365.052497,172.563016 365.250498,169.329 C365.448499,166.094984 365.646497,162.927016 365.844498,159.825 C366.042499,156.722984 365.9435,153.918013 365.547498,151.41 C364.887495,152.730007 363.171512,155.43598 360.399498,159.528 C357.627484,163.62002 354.393517,168.338973 350.697498,173.685 C347.00148,179.031027 343.074519,184.67397 338.916498,190.614 C334.758477,196.55403 330.897516,201.998975 327.333498,206.949 L314.859498,224.274 C313.27549,226.650012 311.29551,228.86099 308.919498,230.907 C306.543486,232.95301 304.16751,234.668993 301.791498,236.055 C299.415486,237.441007 297.270508,238.364998 295.356498,238.827 C293.442489,239.289002 292.155501,239.124004 291.495498,238.332 C290.175492,236.747992 289.515498,235.164008 289.515498,233.58 C289.515498,232.127993 289.845495,230.808006 290.505498,229.62 C291.165501,228.431994 291.990493,227.409004 292.980498,226.551 C293.970503,225.692996 294.795495,225.132001 295.455498,224.868 C297.435508,224.075996 299.052492,223.581001 300.306498,223.383 C301.560504,223.184999 302.715493,222.987001 303.771498,222.789 C304.827503,222.590999 305.850493,222.195003 306.840498,221.601 C307.830503,221.006997 309.051491,219.984007 310.503498,218.532 C311.955505,217.079993 314.298482,214.209021 317.532498,209.919 C320.766514,205.628979 324.363478,200.679028 328.323498,195.069 C332.283518,189.458972 336.375477,183.486032 340.599498,177.15 C344.823519,170.813968 348.71748,164.841028 352.281498,159.231 C355.845516,153.620972 358.848486,148.671021 361.290498,144.381 C363.73251,140.090979 365.085497,137.220007 365.349498,135.768 L357.231498,136.164 C355.251488,136.296001 353.04051,136.559998 350.598498,136.956 C348.156486,137.352002 345.78051,137.517 343.470498,137.451 C341.160487,137.385 339.147507,136.890005 337.431498,135.966 C335.71549,135.041995 334.6595,133.326013 334.263498,130.818 C333.999497,128.969991 333.7025,126.825012 333.372498,124.383 C333.042496,121.940988 332.910498,119.466013 332.976498,116.958 C333.042498,114.449987 333.372495,112.107011 333.966498,109.929 C334.560501,107.750989 335.583491,105.936007 337.035498,104.484 C338.091503,103.427995 339.213492,102.603003 340.401498,102.009 C341.589504,101.414997 343.107489,101.118 344.955498,101.118 C352.083534,100.853999 359.640458,100.886998 367.626498,101.217 C375.612538,101.547002 383.037464,101.777999 389.901498,101.91 C390.693502,102.306002 391.188497,102.701998 391.386498,103.098 C391.584499,103.494002 391.749497,104.087996 391.881498,104.88 C391.353495,110.95203 391.023499,117.617964 390.891498,124.878 C390.759497,132.138036 390.759497,139.496963 390.891498,146.955 C391.023499,154.413037 391.254496,161.738964 391.584498,168.933 C391.9145,176.127036 392.277496,182.561972 392.673498,188.238 Z M367.923498,111.414 C367.263495,109.961993 365.844509,109.137001 363.666498,108.939 C361.488487,108.740999 359.673505,108.773999 358.221498,109.038 C357.429494,109.698003 356.8355,110.918991 356.439498,112.701 C356.043496,114.483009 355.812498,116.36399 355.746498,118.344 C355.680498,120.32401 355.746497,122.27099 355.944498,124.185 C356.142499,126.09901 356.439496,127.583995 356.835498,128.64 L365.151498,128.64 C365.811501,128.243998 366.339496,127.287008 366.735498,125.769 C367.1315,124.250992 367.428497,122.568009 367.626498,120.72 C367.824499,118.871991 367.923498,117.090009 367.923498,115.374 L367.923498,111.414 Z M509.047997,115.374 C509.047997,116.034003 508.322005,116.792996 506.869997,117.651 C505.41799,118.509004 503.768007,119.300996 501.919997,120.027 C500.071988,120.753004 498.290006,121.346998 496.573997,121.809 C494.857989,122.271002 493.736,122.436001 493.207997,122.304 C492.415994,122.039999 491.624001,121.248007 490.831997,119.928 C490.039994,118.607993 489.347,117.222007 488.752997,115.77 C488.158995,114.317993 487.631,112.965006 487.168997,111.711 C486.706995,110.456994 486.277999,109.764001 485.881997,109.632 C485.485996,109.499999 484.859002,109.401 484.000997,109.335 C483.142993,109.269 482.186003,109.236 481.129997,109.236 L477.961997,109.236 C476.905992,109.236 476.114,109.301999 475.585997,109.434 C474.925994,109.566001 474.595997,110.093995 474.595997,111.018 L474.595997,112.602 C474.595997,115.374014 474.628997,119.069977 474.694997,123.69 C474.760998,128.310023 474.826997,133.259974 474.892997,138.54 C474.958998,143.820026 475.090996,149.198973 475.288997,154.677 C475.486998,160.155027 475.651997,165.137978 475.783997,169.626 C475.915998,174.114022 476.047997,177.941984 476.179997,181.11 C476.311998,184.278016 476.443997,186.191997 476.575997,186.852 C476.839999,188.304007 476.708,189.326997 476.179997,189.921 C475.651995,190.515003 474.926002,190.943999 474.001997,191.208 C473.077993,191.472001 472.022003,191.604 470.833997,191.604 C469.645992,191.604 468.524003,191.669999 467.467997,191.802 C467.203996,191.802 466.280005,191.835 464.695997,191.901 C463.11199,191.967 461.396007,192.033 459.547997,192.099 C457.699988,192.165 456.050005,192.198 454.597997,192.198 L452.221997,192.198 C451.429994,192.330001 450.539002,191.802006 449.548997,190.614 C448.558993,189.425994 448.195996,188.502003 448.459997,187.842 C448.855999,186.521993 449.152996,183.750021 449.350997,179.526 C449.548998,175.301979 449.680997,170.319029 449.746997,164.577 C449.812998,158.834971 449.812998,152.796032 449.746997,146.46 C449.680997,140.123968 449.581998,134.250027 449.449997,128.838 C449.317997,123.425973 449.152998,118.806019 448.954997,114.978 C448.756996,111.149981 448.591998,108.972003 448.459997,108.444 C444.235976,108.444 440.738011,108.477 437.965997,108.543 C435.193984,108.609 433.807997,108.839998 433.807997,109.236 C433.807997,110.160005 433.873997,111.61199 434.005997,113.592 C434.137998,115.57201 434.269997,117.848987 434.401997,120.423 C434.533998,122.997013 434.698996,125.669986 434.896997,128.442 C435.094998,131.214014 435.259997,133.754988 435.391997,136.065 C435.523998,138.375012 435.622997,140.288992 435.688997,141.807 C435.754998,143.325008 435.787997,144.149999 435.787997,144.282 C435.391996,145.074004 434.534004,145.898996 433.213997,146.757 C431.893991,147.615004 430.442005,148.406996 428.857997,149.133 C427.27399,149.859004 425.723005,150.452998 424.204997,150.915 C422.68699,151.377002 421.532001,151.608 420.739997,151.608 C419.947994,151.475999 419.255,150.321011 418.660997,148.143 C418.066995,145.964989 417.571999,143.226016 417.175997,139.926 C416.779996,136.625983 416.482998,132.99602 416.284997,129.036 C416.086996,125.07598 415.921998,121.314018 415.789997,117.75 C415.657997,114.185982 415.591997,111.018014 415.591997,108.246 L415.591997,102.702 C416.12,101.381993 416.680995,100.656001 417.274997,100.524 C417.869,100.391999 418.693992,100.326 419.749997,100.326 C422.522011,100.326 426.085976,100.424999 430.441997,100.623 C434.798019,100.821001 439.285974,101.018999 443.905997,101.217 C448.526021,101.415001 453.013976,101.612999 457.369997,101.811 C461.726019,102.009001 465.355983,102.108 468.259997,102.108 C470.372008,102.108 472.813984,102.042001 475.585997,101.91 C478.358011,101.777999 481.162983,101.679 484.000997,101.613 C486.839012,101.547 489.643984,101.448001 492.415997,101.316 C495.188011,101.183999 497.629987,101.118 499.741997,101.118 C500.534001,101.118 501.457992,101.678994 502.513997,102.801 C503.570003,103.923006 504.592993,105.275992 505.582997,106.86 C506.573002,108.444008 507.397994,110.027992 508.057997,111.612 C508.718001,113.196008 509.047997,114.449995 509.047997,115.374 Z M555.330497,155.964 C555.594498,156.888005 555.3965,158.471989 554.736497,160.716 C554.076494,162.960011 553.152503,165.500986 551.964497,168.339 C550.776491,171.177014 549.423504,174.080985 547.905497,177.051 C546.387489,180.021015 544.935504,182.759987 543.549497,185.268 C542.16349,187.776013 540.876503,189.821992 539.688497,191.406 C538.500491,192.990008 537.708499,193.782 537.312497,193.782 C532.560473,193.782 528.83151,193.089007 526.125497,191.703 C523.419483,190.316993 521.340504,188.370013 519.888497,185.862 C518.43649,183.353987 517.3475,180.450016 516.621497,177.15 C515.895493,173.849983 515.070501,170.286019 514.146497,166.458 C513.618494,164.081988 512.958501,161.706012 512.166497,159.33 C511.374493,156.953988 510.978497,154.578012 510.978497,152.202 C510.978497,147.977979 511.341493,143.82002 512.067497,139.728 C512.7935,135.63598 513.486494,131.54402 514.146497,127.452 C514.674499,124.151983 515.202494,120.918016 515.730497,117.75 C516.258499,114.581984 517.18249,111.744013 518.502497,109.236 C519.822503,106.727987 521.670485,104.715008 524.046497,103.197 C526.422509,101.678992 529.722476,100.92 533.946497,100.92 C535.398504,100.92 536.553493,101.513994 537.411497,102.702 C538.269501,103.890006 538.962494,105.077994 539.490497,106.266 C541.206505,110.22602 542.658491,114.317979 543.846497,118.542 C545.034503,122.766021 546.156492,126.989979 547.212497,131.214 C548.268502,135.438021 549.423491,139.628979 550.677497,143.787 C551.931503,147.945021 553.482488,152.00398 555.330497,155.964 Z M539.490497,169.626 C539.622498,169.229998 539.754496,168.570005 539.886497,167.646 C540.018498,166.721995 540.084497,165.732005 540.084497,164.676 C540.084497,163.619995 540.018498,162.564005 539.886497,161.508 C539.754496,160.451995 539.622498,159.594003 539.490497,158.934 C539.358496,158.273997 538.9295,157.086009 538.203497,155.37 C537.477493,153.653991 536.586502,151.641012 535.530497,149.331 C534.474492,147.020988 533.352503,144.612013 532.164497,142.104 C530.976491,139.595987 529.821502,137.31901 528.699497,135.273 C527.577491,133.22699 526.521502,131.544007 525.531497,130.224 C524.541492,128.903993 523.782499,128.309999 523.254497,128.442 C522.198492,128.706001 521.571498,129.266996 521.373497,130.125 C521.175496,130.983004 521.076497,132.533989 521.076497,134.778 C521.076497,137.022011 521.571492,139.859983 522.561497,143.292 C523.551502,146.724017 524.77249,150.221982 526.224497,153.786 C527.676504,157.350018 529.194489,160.781983 530.778497,164.082 C532.362505,167.382016 533.81449,169.889991 535.134497,171.606 C535.662499,172.266003 536.454492,172.266003 537.510497,171.606 C538.566502,170.945997 539.226496,170.286003 539.490497,169.626 Z M655.072996,166.854 C655.072996,168.438008 654.940998,169.790994 654.676996,170.913 C654.412995,172.035006 654.115998,173.189994 653.785996,174.378 C653.455995,175.566006 653.191997,176.885993 652.993996,178.338 C652.795995,179.790007 652.762996,181.50599 652.894996,183.486 C653.026997,185.202009 652.73,186.719993 652.003996,188.04 C651.277993,189.360007 650.354002,190.415996 649.231996,191.208 C648.109991,192.000004 646.790004,192.461999 645.271996,192.594 C643.753989,192.726001 642.269003,192.396004 640.816996,191.604 C639.364989,190.811996 637.451008,190.613998 635.074996,191.01 C632.698984,191.406002 630.587005,191.538001 628.738996,191.406 C624.910977,191.273999 620.984016,191.438998 616.957996,191.901 C612.931976,192.363002 609.203013,192.396002 605.770996,192 C603.922987,191.867999 601.910007,191.867999 599.731996,192 C597.553985,192.132001 595.376007,192.263999 593.197996,192.396 C591.019985,192.528001 588.908006,192.528001 586.861996,192.396 C584.815986,192.263999 583.001004,191.802004 581.416996,191.01 C580.888994,190.481997 580.657996,189.987002 580.723996,189.525 C580.789997,189.062998 580.954995,188.601002 581.218996,188.139 C581.482998,187.676998 581.779995,187.215002 582.109996,186.753 C582.439998,186.290998 582.670996,185.796003 582.802996,185.268 C583.463,173.25594 584.056994,161.376059 584.584996,149.628 C585.112999,137.879941 584.981,126.198058 584.188996,114.582 C584.452998,113.393994 584.287999,112.305005 583.693996,111.315 C583.099993,110.324995 582.505999,109.335005 581.911996,108.345 C581.317993,107.354995 580.855998,106.332005 580.525996,105.276 C580.195995,104.219995 580.492992,103.032007 581.416996,101.712 C585.905019,100.787995 591.085967,100.391999 596.959996,100.524 C602.834026,100.656001 608.872965,100.820999 615.076996,101.019 C621.281027,101.217001 627.385966,101.250001 633.391996,101.118 C639.398026,100.985999 644.776972,100.128008 649.528996,98.544 L652.300996,100.722 C652.300996,102.834011 652.003999,105.011989 651.409996,107.256 C650.815993,109.500011 650.156,111.809988 649.429996,114.186 C648.703993,116.562012 647.978,118.970988 647.251996,121.413 C646.525993,123.855012 645.964998,126.263988 645.568996,128.64 C643.060984,129.036002 640.45401,128.871004 637.747996,128.145 C635.041983,127.418996 632.765005,126.06601 630.916996,124.086 C630.256993,122.765993 630.091995,121.578005 630.421996,120.522 C630.751998,119.465995 631.213993,118.443005 631.807996,117.453 C632.401999,116.462995 632.929994,115.440005 633.391996,114.384 C633.853999,113.327995 633.952998,112.008008 633.688996,110.424 C632.764992,109.367995 631.148008,108.642002 628.837996,108.246 C626.527985,107.849998 623.98701,107.652 621.214996,107.652 C618.574983,107.652 616.034008,107.783999 613.591996,108.048 C611.149984,108.312001 609.335002,108.444 608.146996,108.444 C607.618994,109.632006 607.288997,111.842984 607.156996,115.077 C607.024996,118.311016 606.991996,121.643983 607.057996,125.076 C607.123997,128.508017 607.255995,131.576986 607.453996,134.283 C607.651997,136.989014 607.882995,138.407999 608.146996,138.54 C610.787009,138.407999 613.030987,138.210001 614.878996,137.946 C616.727005,137.681999 618.508988,137.517 620.224996,137.451 C621.941005,137.385 623.689987,137.483999 625.471996,137.748 C627.254005,138.012001 629.464983,138.605995 632.104996,139.53 C632.104996,139.53 632.335994,140.387991 632.797996,142.104 C633.259999,143.820009 633.556996,145.63499 633.688996,147.549 C633.820997,149.46301 633.491,151.046994 632.698996,152.301 C631.906992,153.555006 630.323008,153.720005 627.946996,152.796 C621.610965,150.551989 616.991011,149.034004 614.086996,148.242 C611.182982,147.449996 609.203002,147.383997 608.146996,148.044 C608.542998,149.628008 608.641997,152.003984 608.443996,155.172 C608.245995,158.340016 608.047997,161.672983 607.849996,165.171 C607.651995,168.669017 607.651995,172.034984 607.849996,175.269 C608.047997,178.503016 608.74099,180.977991 609.928996,182.694 C610.192998,183.090002 611.578984,183.386999 614.086996,183.585 C616.595009,183.783001 619.333981,183.816001 622.303996,183.684 C625.274011,183.551999 628.045983,183.321002 630.619996,182.991 C633.194009,182.660998 634.612995,182.166003 634.876996,181.506 C635.140998,180.977997 635.569993,180.120006 636.163996,178.932 C636.757999,177.743994 637.318994,176.358008 637.846996,174.774 C638.374999,173.189992 638.704996,171.37501 638.836996,169.329 C638.968997,167.28299 638.770999,165.072012 638.242996,162.696 C637.846994,161.111992 638.506988,160.188001 640.222996,159.924 C641.939005,159.659999 643.885985,159.824997 646.063996,160.419 C648.242007,161.013003 650.287987,161.903994 652.201996,163.092 C654.116006,164.280006 655.072996,165.533993 655.072996,166.854 Z" id="ДЕВЯТОЕ" fill-rule="nonzero"></path>
        </g>
        <path d="M800.416,73.374 C800.416,74.0340033 799.690007,74.7929957 798.238,75.651 C796.785993,76.5090043 795.136009,77.3009964 793.288,78.027 C791.439991,78.7530036 789.658009,79.3469977 787.942,79.809 C786.225991,80.2710023 785.104003,80.4360007 784.576,80.304 C783.783996,80.0399987 782.992004,79.2480066 782.2,77.928 C781.407996,76.6079934 780.715003,75.2220073 780.121,73.77 C779.526997,72.3179927 778.999002,70.9650063 778.537,69.711 C778.074998,68.4569937 777.646002,67.7640007 777.25,67.632 C776.853998,67.4999993 776.227004,67.4010003 775.369,67.335 C774.510996,67.2689997 773.554005,67.236 772.498,67.236 L769.33,67.236 C768.273995,67.236 767.482003,67.3019993 766.954,67.434 C766.293997,67.5660007 765.964,68.0939954 765.964,69.018 L765.964,70.602 C765.964,73.3740139 765.997,77.0699769 766.063,81.69 C766.129,86.3100231 766.195,91.2599736 766.261,96.54 C766.327,101.820026 766.458999,107.198973 766.657,112.677 C766.855001,118.155027 767.019999,123.137978 767.152,127.626 C767.284001,132.114022 767.415999,135.941984 767.548,139.11 C767.680001,142.278016 767.811999,144.191997 767.944,144.852 C768.208001,146.304007 768.076003,147.326997 767.548,147.921 C767.019997,148.515003 766.294005,148.943999 765.37,149.208 C764.445995,149.472001 763.390006,149.604 762.202,149.604 C761.013994,149.604 759.892005,149.669999 758.836,149.802 C758.571999,149.802 757.648008,149.835 756.064,149.901 C754.479992,149.967 752.764009,150.033 750.916,150.099 C749.067991,150.165 747.418007,150.198 745.966,150.198 L743.59,150.198 C742.797996,150.330001 741.907005,149.802006 740.917,148.614 C739.926995,147.425994 739.563999,146.502003 739.828,145.842 C740.224002,144.521993 740.520999,141.750021 740.719,137.526 C740.917001,133.301979 741.049,128.319029 741.115,122.577 C741.181,116.834971 741.181,110.796032 741.115,104.46 C741.049,98.1239683 740.950001,92.2500271 740.818,86.838 C740.685999,81.4259729 740.521001,76.8060191 740.323,72.978 C740.124999,69.1499809 739.960001,66.9720026 739.828,66.444 C735.603979,66.444 732.106014,66.4769997 729.334,66.543 C726.561986,66.6090003 725.176,66.839998 725.176,67.236 C725.176,68.1600046 725.241999,69.6119901 725.374,71.592 C725.506001,73.5720099 725.637999,75.8489871 725.77,78.423 C725.902001,80.9970129 726.066999,83.6699861 726.265,86.442 C726.463001,89.2140139 726.627999,91.7549884 726.76,94.065 C726.892001,96.3750116 726.991,98.2889924 727.057,99.807 C727.123,101.325008 727.156,102.149999 727.156,102.282 C726.759998,103.074004 725.902007,103.898996 724.582,104.757 C723.261993,105.615004 721.810008,106.406996 720.226,107.133 C718.641992,107.859004 717.091008,108.452998 715.573,108.915 C714.054992,109.377002 712.900004,109.608 712.108,109.608 C711.315996,109.475999 710.623003,108.321011 710.029,106.143 C709.434997,103.964989 708.940002,101.226017 708.544,97.926 C708.147998,94.6259835 707.851001,90.9960198 707.653,87.036 C707.454999,83.0759802 707.290001,79.3140178 707.158,75.75 C707.025999,72.1859822 706.96,69.0180139 706.96,66.246 L706.96,60.702 C707.488003,59.3819934 708.048997,58.6560007 708.643,58.524 C709.237003,58.3919993 710.061995,58.326 711.118,58.326 C713.890014,58.326 717.453978,58.424999 721.81,58.623 C726.166022,58.821001 730.653977,59.018999 735.274,59.217 C739.894023,59.415001 744.381978,59.612999 748.738,59.811 C753.094022,60.009001 756.723985,60.108 759.628,60.108 C761.740011,60.108 764.181986,60.0420007 766.954,59.91 C769.726014,59.7779993 772.530986,59.6790003 775.369,59.613 C778.207014,59.5469997 781.011986,59.4480007 783.784,59.316 C786.556014,59.1839993 788.997989,59.118 791.11,59.118 C791.902004,59.118 792.825995,59.6789944 793.882,60.801 C794.938005,61.9230056 795.960995,63.2759921 796.951,64.86 C797.941005,66.4440079 798.765997,68.0279921 799.426,69.612 C800.086003,71.1960079 800.416,72.4499954 800.416,73.374 Z M872.636501,75.552 C871.844497,78.7200158 870.920506,81.3929891 869.864501,83.571 C868.808496,85.7490109 867.488509,87.5639927 865.904501,89.016 C864.320493,90.4680073 862.439512,91.6229957 860.261501,92.481 C858.08349,93.3390043 855.410517,94.0979967 852.242501,94.758 C848.01848,95.550004 844.256517,95.946 840.956501,95.946 L836.006501,95.946 C836.006501,97.2660066 835.940501,100.136978 835.808501,104.559 C835.6765,108.981022 835.6435,113.765974 835.709501,118.914 C835.775501,124.062026 836.006499,129.044976 836.402501,133.863 C836.798503,138.681024 837.524496,142.145989 838.580501,144.258 C839.108503,145.314005 838.976505,146.369995 838.184501,147.426 C837.392497,148.482005 836.468506,149.141999 835.412501,149.406 C832.376486,150.066003 829.406515,150.264001 826.502501,150 C823.598486,149.735999 820.23252,149.735999 816.404501,150 C815.348496,150.264001 814.457504,150.165002 813.731501,149.703 C813.005497,149.240998 812.411503,148.515005 811.949501,147.525 C811.487498,146.534995 811.157502,145.446006 810.959501,144.258 C810.7615,143.069994 810.662501,141.948005 810.662501,140.892 C810.5305,134.291967 810.332502,128.253027 810.068501,122.775 C809.804499,117.296973 809.606501,111.984026 809.474501,106.836 C809.3425,101.687974 809.3425,96.4080271 809.474501,90.996 C809.606501,85.5839729 810.002498,79.7100317 810.662501,73.374 C810.794501,71.9219927 810.662503,70.5690063 810.266501,69.315 C809.870499,68.0609937 809.441503,66.8730056 808.979501,65.751 C808.517498,64.6289944 808.187502,63.6060046 807.989501,62.682 C807.7915,61.7579954 808.022498,60.900004 808.682501,60.108 C809.210503,59.5799974 810.761488,59.2500007 813.335501,59.118 C815.909514,58.9859993 818.648486,58.9859993 821.552501,59.118 C824.456515,59.2500007 827.063489,59.414999 829.373501,59.613 L832.838501,59.91 C834.422509,59.91 836.27049,59.811001 838.382501,59.613 C840.494511,59.414999 842.738489,59.2500007 845.114501,59.118 C847.490513,58.9859993 849.932488,58.92 852.440501,58.92 C854.948513,58.92 857.32449,59.0519987 859.568501,59.316 C861.812512,59.5800013 863.891491,60.0749964 865.805501,60.801 C867.71951,61.5270036 869.303495,62.5169937 870.557501,63.771 C871.811507,65.0250063 872.636499,66.6089904 873.032501,68.523 C873.428503,70.4370096 873.296504,72.7799861 872.636501,75.552 Z M847.490501,71.79 C847.226499,69.9419908 846.038511,68.7870023 843.926501,68.325 C841.81449,67.8629977 839.83451,67.6979993 837.986501,67.83 C837.194497,68.3580026 836.666502,69.3809924 836.402501,70.899 C836.138499,72.4170076 836.006501,74.0999908 836.006501,75.948 C836.006501,77.7960092 836.0395,79.6109911 836.105501,81.393 C836.171501,83.1750089 836.138501,84.461996 836.006501,85.254 C836.138501,86.046004 836.534498,86.5739987 837.194501,86.838 C837.854504,87.1020013 838.580497,87.234 839.372501,87.234 C840.296505,87.234 841.187497,87.2010003 842.045501,87.135 C842.903505,87.0689997 843.596498,87.1019993 844.124501,87.234 C844.652503,86.7059974 845.147498,85.7820066 845.609501,84.462 C846.071503,83.1419934 846.467499,81.6900079 846.797501,80.106 C847.127502,78.5219921 847.3585,76.9380079 847.490501,75.354 C847.622501,73.7699921 847.622501,72.582004 847.490501,71.79 Z M981.289002,144.258 C981.817004,145.314005 981.685006,146.402994 980.893002,147.525 C980.100998,148.647006 979.177007,149.273999 978.121002,149.406 C976.800995,149.670001 975.217011,149.835 973.369002,149.901 C971.520992,149.967 969.673011,150 967.825002,150 C965.976992,150 964.26101,150 962.677002,150 C961.092994,150 959.905006,150 959.113002,150 C957.924996,150 957.034005,149.769002 956.440002,149.307 C955.845999,148.844998 955.384003,148.251004 955.054002,147.525 C954.724,146.798996 954.493002,146.040004 954.361002,145.248 C954.229001,144.455996 954.097002,143.862002 953.965002,143.466 C953.833001,142.805997 953.767002,141.354011 953.767002,139.11 C953.767002,136.865989 953.800001,134.292015 953.866002,131.388 C953.932002,128.483985 953.965002,125.382017 953.965002,122.082 C953.965002,118.781983 953.965002,115.746014 953.965002,112.974 C953.965002,110.201986 953.866003,107.892009 953.668002,106.044 C953.470001,104.195991 953.239003,103.140001 952.975002,102.876 C952.446999,103.272002 951.556008,103.865996 950.302002,104.658 C949.047995,105.450004 947.695009,106.241996 946.243002,107.034 C944.790994,107.826004 943.438008,108.551997 942.184002,109.212 C940.929995,109.872003 940.039004,110.399998 939.511002,110.796 C938.850998,111.324003 937.828009,111.818998 936.442002,112.281 C935.055995,112.743002 933.703008,113.237997 932.383002,113.766 C931.062995,114.294003 929.908007,114.920996 928.918002,115.647 C927.927997,116.373004 927.433002,117.263995 927.433002,118.32 C927.301001,120.30001 927.268001,122.543987 927.334002,125.052 C927.400002,127.560013 927.532001,130.034988 927.730002,132.477 C927.928003,134.919012 928.192,137.228989 928.522002,139.407 C928.852003,141.585011 929.149,143.333993 929.413002,144.654 C929.941004,145.710005 930.040003,146.699995 929.710002,147.624 C929.38,148.548005 928.687007,149.141999 927.631002,149.406 C924.594986,150.066003 921.625016,150.264001 918.721002,150 C915.816987,149.735999 912.451021,149.735999 908.623002,150 C907.566996,150.264001 906.676005,150.165002 905.950002,149.703 C905.223998,149.240998 904.630004,148.515005 904.168002,147.525 C903.705999,146.534995 903.376003,145.446006 903.178002,144.258 C902.980001,143.069994 902.881002,141.948005 902.881002,140.892 C902.749001,134.291967 902.551003,128.253027 902.287002,122.775 C902.023,117.296973 901.825002,111.984026 901.693002,106.836 C901.561001,101.687974 901.561001,96.4080271 901.693002,90.996 C901.825002,85.5839729 902.220998,79.7100317 902.881002,73.374 C903.013002,71.9219927 902.881004,70.5690063 902.485002,69.315 C902.089,68.0609937 901.660004,66.8730056 901.198002,65.751 C900.735999,64.6289944 900.406003,63.6060046 900.208002,62.682 C900.010001,61.7579954 900.240998,60.900004 900.901002,60.108 C901.429004,59.5799974 902.979989,59.2500007 905.554002,59.118 C908.128014,58.9859993 910.866987,58.9859993 913.771002,59.118 C916.675016,59.2500007 919.28199,59.414999 921.592002,59.613 C923.902013,59.811001 925.057002,59.91 925.057002,59.91 C926.509009,59.91 927.498999,60.3389957 928.027002,61.197 C928.555004,62.0550043 928.819002,63.0779941 928.819002,64.266 C928.819002,65.4540059 928.654003,66.7739927 928.324002,68.226 C927.994,69.6780073 927.697003,70.9979941 927.433002,72.186 C927.169,73.5060066 926.971002,75.4199875 926.839002,77.928 C926.707001,80.4360125 926.641002,83.0759861 926.641002,85.848 C926.641002,88.6200139 926.707001,91.2269878 926.839002,93.669 C926.971002,96.1110122 927.169,97.9259941 927.433002,99.114 C927.697003,100.566007 928.884991,101.292 930.997002,101.292 C934.165017,101.292 936.93699,100.698006 939.313002,99.51 C941.689013,98.3219941 943.767993,96.8040092 945.550002,94.956 C947.332011,93.1079908 948.882995,91.1610102 950.203002,89.115 C951.523008,87.0689898 952.644997,85.1220092 953.569002,83.274 C953.569002,79.4459809 953.503002,76.8390069 953.371002,75.453 C953.239001,74.0669931 953.107002,72.7140066 952.975002,71.394 C952.843001,70.0739934 952.579004,68.8860053 952.183002,67.83 C951.787,66.7739947 951.424003,65.7840046 951.094002,64.86 C950.764,63.9359954 950.566002,63.1110036 950.500002,62.385 C950.434001,61.6589964 950.730998,60.900004 951.391002,60.108 C951.919004,59.5799974 953.469989,59.2500007 956.044002,59.118 C958.618014,58.9859993 961.356987,58.9859993 964.261002,59.118 C967.165016,59.2500007 969.77199,59.414999 972.082002,59.613 C974.392013,59.811001 975.547002,59.91 975.547002,59.91 C976.999009,59.91 977.955999,60.3389957 978.418002,61.197 C978.880004,62.0550043 979.111002,63.0779941 979.111002,64.266 C979.111002,65.4540059 978.946003,66.7739927 978.616002,68.226 C978.286,69.6780073 978.055002,70.9979941 977.923002,72.186 C977.527,74.4300112 977.230003,77.5649799 977.032002,81.591 C976.834001,85.6170201 976.735002,90.0719756 976.735002,94.956 C976.735002,99.8400244 976.834001,104.888974 977.032002,110.103 C977.230003,115.317026 977.527,120.200977 977.923002,124.755 C978.319004,129.309023 978.813999,133.334983 979.408002,136.833 C980.002005,140.331017 980.628998,142.805993 981.289002,144.258 Z" id="ТРИ" fill="#FFFFFF" fill-rule="nonzero"></path>
    </g>
</svg>