<svg width="865" height="288" viewBox="0 0 865 288" fill="none" xmlns="http://www.w3.org/2000/svg">
<path fill-rule="evenodd" clip-rule="evenodd" d="M433.49 213.092L433.768 236.367L411.127 197.029L417.746 185.541L433.49 213.092Z" fill="white"/>
<path fill-rule="evenodd" clip-rule="evenodd" d="M417.31 184.671L410.663 196.232L388.563 157.89H401.879L417.31 184.671Z" fill="white"/>
<path fill-rule="evenodd" clip-rule="evenodd" d="M385.628 129.829L365.644 118.243L388.035 156.961L401.288 156.961L385.628 129.829Z" fill="white"/>
<path fill-rule="evenodd" clip-rule="evenodd" d="M366.589 117.997L386.494 129.244H417.32L410.847 117.992L366.589 117.997Z" fill="white"/>
<path fill-rule="evenodd" clip-rule="evenodd" d="M411.895 117.992L418.445 129.244H449.484L455.938 117.992H411.895Z" fill="white"/>
<path fill-rule="evenodd" clip-rule="evenodd" d="M481.786 129.217L501.261 118.07L457.189 118.07L450.553 129.217L481.786 129.217Z" fill="white"/>
<path fill-rule="evenodd" clip-rule="evenodd" d="M482.231 130.084L502.498 118.216L479.462 156.872L466.706 156.872L482.231 130.084Z" fill="white"/>
<path fill-rule="evenodd" clip-rule="evenodd" d="M450.685 184.727L466.161 157.824H479.129L457.312 196.319L450.685 184.727Z" fill="white"/>
<path fill-rule="evenodd" clip-rule="evenodd" d="M434.441 213.215L434.244 236.367L456.822 196.845L450.231 185.508L434.441 213.215Z" fill="white"/>
<path fill-rule="evenodd" clip-rule="evenodd" d="M433.248 191.7V211.106L418.007 184.849L423.716 174.848L433.248 191.7Z" fill="white"/>
<path fill-rule="evenodd" clip-rule="evenodd" d="M423.172 173.939L417.426 184.085L402.643 157.908H413.903L423.172 173.939Z" fill="white"/>
<path fill-rule="evenodd" clip-rule="evenodd" d="M413.446 156.979L402.022 156.974L386.586 130.422L403.836 140.56L413.446 156.979Z" fill="white"/>
<path fill-rule="evenodd" clip-rule="evenodd" d="M387.331 130.024L404.866 140.102H423.36L417.467 130.104L387.331 130.024Z" fill="white"/>
<path fill-rule="evenodd" clip-rule="evenodd" d="M424.464 140.102L418.681 130.104H448.598L442.912 140.102H424.464Z" fill="white"/>
<path fill-rule="evenodd" clip-rule="evenodd" d="M444.03 140.102L449.92 130.104H480.054L462.471 140.102H444.03Z" fill="white"/>
<path fill-rule="evenodd" clip-rule="evenodd" d="M462.595 141.476L480.605 130.92L465.473 156.89H453.747L462.595 141.476Z" fill="white"/>
<path fill-rule="evenodd" clip-rule="evenodd" d="M444.283 173.924L453.482 157.842H465.008L449.865 183.814L444.283 173.924Z" fill="white"/>
<path fill-rule="evenodd" clip-rule="evenodd" d="M434.261 191.73L434.202 211.106L449.404 184.544L443.893 174.876L434.261 191.73Z" fill="white"/>
<path fill-rule="evenodd" clip-rule="evenodd" d="M433.14 170.471V189.443L424.15 173.726L429.731 164.302L433.14 170.471Z" fill="white"/>
<path fill-rule="evenodd" clip-rule="evenodd" d="M423.658 172.861L429.234 163.245L426.024 157.619H414.909L423.658 172.861Z" fill="white"/>
<path fill-rule="evenodd" clip-rule="evenodd" d="M422.013 151.029L405.993 141.797L414.621 156.754L425.3 156.749L422.013 151.029Z" fill="white"/>
<path fill-rule="evenodd" clip-rule="evenodd" d="M422.88 150.3L406.943 140.849L423.856 140.842L429.234 150.27L422.88 150.3Z" fill="white"/>
<path fill-rule="evenodd" clip-rule="evenodd" d="M424.911 140.752L430.265 150.3H436.625L442.247 140.752H424.911Z" fill="white"/>
<path fill-rule="evenodd" clip-rule="evenodd" d="M444.337 150.27L460.675 140.76L443.52 140.752L437.897 150.27H444.337Z" fill="white"/>
<path fill-rule="evenodd" clip-rule="evenodd" d="M445.095 150.978L461.625 141.47L452.897 156.664L441.686 156.66L445.095 150.978Z" fill="white"/>
<path fill-rule="evenodd" clip-rule="evenodd" d="M443.587 172.984L438.204 163.209L441.305 157.624L452.447 157.619L443.587 172.984Z" fill="white"/>
<path fill-rule="evenodd" clip-rule="evenodd" d="M434.09 170.535V189.443L442.984 173.72L437.501 164.302L434.09 170.535Z" fill="white"/>
<path d="M557.348 197.645C557.348 199.008 557.195 200.081 556.889 200.864C556.584 201.648 556.329 202.721 556.125 204.084C555.785 206.06 555.428 208.206 555.054 210.523C554.68 212.839 554.238 214.985 553.728 216.961C553.218 218.937 552.657 220.607 552.045 221.969C551.433 223.332 550.787 224.013 550.107 224.013H548.577C547.897 224.013 547.149 223.979 546.333 223.911C545.517 223.843 544.752 223.724 544.039 223.553C543.325 223.383 542.866 223.094 542.662 222.685C542.866 222.071 543.121 220.947 543.427 219.312C543.733 217.677 543.988 215.786 544.192 213.64C544.396 211.493 544.514 209.245 544.548 206.894C544.582 204.544 544.463 202.346 544.192 200.302C543.172 199.076 541.506 198.241 539.194 197.798C536.882 197.355 534.383 197.1 531.698 197.032C529.012 196.964 526.411 197.032 523.895 197.236C521.379 197.441 519.408 197.543 517.98 197.543C516.824 197.543 515.736 197.577 514.716 197.645C513.696 197.713 512.574 197.747 511.35 197.747C509.242 197.747 508.188 196.827 508.188 194.988C508.188 194.17 508.239 193.557 508.341 193.148C508.443 192.739 508.562 192.416 508.698 192.177C508.834 191.939 508.987 191.734 509.157 191.564C509.327 191.394 509.48 191.138 509.616 190.797C509.752 190.525 509.871 189.605 509.973 188.038C510.075 186.471 510.126 184.563 510.126 182.315V174.956C510.126 172.231 510.092 169.59 510.024 167.035C509.956 164.48 509.888 162.147 509.82 160.034C509.752 157.922 509.684 156.287 509.616 155.129C509.344 154.788 509.208 154.243 509.208 153.493C509.208 152.744 509.378 152.199 509.718 151.858C510.33 151.449 511.214 151.143 512.37 150.938C513.526 150.734 514.716 150.632 515.94 150.632C517.232 150.632 518.49 150.683 519.714 150.785C520.937 150.887 521.923 151.006 522.671 151.143C522.943 151.211 523.13 151.926 523.232 153.289C523.334 154.652 523.385 156.423 523.385 158.604C523.385 160.716 523.351 163.066 523.283 165.656C523.215 168.245 523.13 170.8 523.028 173.321C522.926 175.842 522.841 178.158 522.773 180.271C522.705 182.383 522.671 184.018 522.671 185.176C522.671 185.653 522.688 186.266 522.722 187.016C522.756 187.765 522.858 188.498 523.028 189.213C523.198 189.929 523.47 190.559 523.844 191.104C524.218 191.649 524.745 191.922 525.425 191.922H532.462C533.006 191.922 533.397 191.462 533.635 190.542C533.873 189.622 533.992 188.958 533.992 188.549C534.264 186.164 534.485 183.422 534.655 180.322C534.825 177.221 534.944 174.07 535.012 170.868C535.08 167.665 535.046 164.531 534.91 161.465C534.774 158.399 534.502 155.674 534.094 153.289C533.958 152.676 534.247 152.199 534.961 151.858C535.675 151.517 536.559 151.245 537.613 151.041C538.667 150.836 539.738 150.717 540.826 150.683C541.914 150.649 542.832 150.632 543.58 150.632H545.517C546.197 150.632 546.775 150.7 547.251 150.836C547.727 150.972 548.101 151.245 548.373 151.654C548.645 152.063 548.781 152.71 548.781 153.596C548.781 156.525 548.73 159.608 548.628 162.845C548.526 166.081 548.424 169.352 548.322 172.656C548.22 175.961 548.135 179.248 548.067 182.519C547.999 185.789 547.965 188.924 547.965 191.922C548.577 192.058 549.41 192.279 550.464 192.586C551.518 192.893 552.555 193.301 553.575 193.812C554.595 194.323 555.479 194.903 556.227 195.55C556.974 196.197 557.348 196.896 557.348 197.645ZM609.135 196.316C609.339 196.725 609.152 196.998 608.574 197.134C607.996 197.27 607.231 197.355 606.279 197.389C605.327 197.424 604.273 197.441 603.117 197.441C602.029 197.441 601.043 197.475 600.159 197.543C598.8 197.679 597.763 197.679 597.049 197.543C596.335 197.407 595.808 196.998 595.468 196.316C594.856 195.158 594.414 193.898 594.142 192.535C593.87 191.172 593.564 190.116 593.224 189.367H579.455L553.651 225.649C552.767 226.602 551.781 227.199 550.694 227.437C549.606 227.676 548.688 227.318 547.94 226.364C547.192 225.274 546.954 223.979 547.226 222.48C549.198 221.731 551.458 220.113 554.008 217.626C556.558 215.139 559.193 212.175 561.913 208.734C564.632 205.293 567.335 201.546 570.021 197.492C572.707 193.438 575.171 189.469 577.415 185.585C579.659 181.701 581.58 178.056 583.178 174.649C584.776 171.243 585.847 168.483 586.391 166.371C586.255 165.553 586.17 164.514 586.136 163.254C586.102 161.993 586.068 160.75 586.034 159.523C586 158.297 585.898 157.207 585.728 156.253C585.558 155.299 585.337 154.72 585.065 154.515C583.841 154.175 582.464 154.09 580.934 154.26C579.404 154.43 578.163 154.822 577.211 155.435C576.939 156.117 576.718 156.679 576.548 157.122C576.378 157.564 576.242 157.99 576.14 158.399C576.038 158.808 575.97 159.217 575.936 159.626C575.902 160.034 575.885 160.545 575.885 161.159C575.885 161.499 575.681 161.721 575.273 161.823C574.865 161.925 574.407 161.925 573.897 161.823C573.387 161.721 572.894 161.567 572.418 161.363C571.942 161.159 571.568 160.886 571.296 160.545C570.752 159.932 570.412 159.183 570.276 158.297C570.14 157.411 569.987 156.559 569.817 155.742C569.647 154.924 569.375 154.175 569.001 153.493C568.627 152.812 567.93 152.369 566.91 152.165C566.502 152.097 566.315 151.858 566.349 151.449C566.383 151.041 566.553 150.649 566.859 150.274C567.165 149.899 567.522 149.576 567.93 149.303C568.338 149.031 568.644 148.928 568.848 148.996C570.48 149.746 572.333 150.274 574.407 150.581C576.48 150.887 578.639 151.075 580.883 151.143C583.127 151.211 585.337 151.194 587.512 151.092C589.688 150.989 591.66 150.904 593.428 150.836C595.196 150.768 596.658 150.717 597.814 150.683C598.97 150.649 599.649 150.734 599.853 150.938C600.193 151.347 600.295 152.046 600.159 153.033C600.023 154.021 599.819 155.112 599.547 156.304C599.275 157.496 599.038 158.672 598.834 159.83C598.63 160.988 598.63 161.942 598.834 162.692C599.445 165.281 600.091 167.989 600.771 170.817C601.451 173.644 602.199 176.523 603.015 179.453C603.831 182.383 604.749 185.278 605.769 188.14C606.789 191.002 607.911 193.727 609.135 196.316ZM592.51 186.3C592.51 186.028 592.34 185.278 592 184.052C591.66 182.826 591.252 181.48 590.776 180.015C590.3 178.55 589.841 177.153 589.399 175.825C588.957 174.496 588.634 173.627 588.43 173.219C588.09 173.627 587.665 174.445 587.155 175.671C586.646 176.898 586.153 177.92 585.677 178.737C584.929 179.896 584.13 181.19 583.28 182.621C582.43 184.052 581.801 185.278 581.393 186.3H592.51ZM657.249 159.115C656.841 160.75 656.365 162.13 655.821 163.254C655.277 164.378 654.597 165.315 653.782 166.064C652.966 166.814 651.997 167.41 650.875 167.853C649.753 168.296 648.376 168.688 646.744 169.028C644.568 169.437 642.63 169.641 640.931 169.641H638.381C638.381 170.323 638.347 171.805 638.279 174.087C638.211 176.37 638.194 178.84 638.228 181.497C638.262 184.154 638.381 186.726 638.585 189.213C638.789 191.7 639.163 193.489 639.707 194.579C639.979 195.124 639.911 195.669 639.503 196.214C639.095 196.759 638.619 197.1 638.075 197.236C636.511 197.577 634.981 197.679 633.485 197.543C631.989 197.407 630.255 197.407 628.284 197.543C627.74 197.679 627.281 197.628 626.907 197.389C626.533 197.151 626.227 196.776 625.989 196.265C625.751 195.754 625.581 195.192 625.479 194.579C625.377 193.966 625.326 193.387 625.326 192.841C625.258 189.435 625.156 186.318 625.02 183.49C624.884 180.662 624.782 177.92 624.714 175.263C624.646 172.605 624.646 169.88 624.714 167.086C624.782 164.293 624.986 161.261 625.326 157.99C625.394 157.241 625.326 156.542 625.122 155.895C624.918 155.248 624.697 154.635 624.459 154.055C624.221 153.476 624.051 152.948 623.949 152.471C623.847 151.994 623.966 151.552 624.306 151.143C624.578 150.87 625.377 150.7 626.703 150.632C628.029 150.564 629.44 150.564 630.935 150.632C632.431 150.7 633.774 150.785 634.964 150.887L636.749 151.041C637.565 151.041 638.517 150.989 639.605 150.887C640.693 150.785 641.848 150.7 643.072 150.632C644.296 150.564 645.554 150.529 646.846 150.529C648.138 150.529 649.362 150.598 650.518 150.734C651.674 150.87 652.745 151.126 653.731 151.5C654.716 151.875 655.532 152.386 656.178 153.033C656.824 153.681 657.249 154.498 657.453 155.486C657.657 156.474 657.589 157.684 657.249 159.115ZM644.296 157.173C644.16 156.219 643.548 155.623 642.46 155.384C641.373 155.146 640.353 155.06 639.401 155.129C638.993 155.401 638.721 155.929 638.585 156.713C638.449 157.496 638.381 158.365 638.381 159.319C638.381 160.273 638.398 161.21 638.432 162.13C638.466 163.049 638.449 163.714 638.381 164.122C638.449 164.531 638.653 164.804 638.993 164.94C639.333 165.076 639.707 165.144 640.115 165.144C640.591 165.144 641.05 165.127 641.492 165.093C641.934 165.059 642.29 165.076 642.562 165.144C642.834 164.872 643.089 164.395 643.327 163.714C643.565 163.032 643.769 162.283 643.939 161.465C644.109 160.648 644.228 159.83 644.296 159.012C644.364 158.195 644.364 157.581 644.296 157.173ZM687.005 148.996C687.005 149.814 686.597 150.529 685.781 151.143C684.966 151.756 684.031 152.25 682.977 152.625C681.923 152.999 680.92 153.272 679.968 153.442C679.016 153.613 678.404 153.732 678.132 153.8C676.84 154.073 675.803 154.43 675.021 154.873C674.239 155.316 673.627 155.861 673.185 156.508C672.744 157.156 672.438 157.973 672.268 158.961C672.098 159.949 672.013 161.159 672.013 162.589C672.013 164.702 672.183 167.103 672.523 169.795C672.863 172.486 673.321 175.263 673.899 178.124C674.477 180.986 675.14 183.814 675.888 186.607C676.636 189.401 677.401 191.973 678.183 194.323C678.965 196.674 679.73 198.701 680.478 200.404C681.226 202.108 681.872 203.232 682.416 203.777C683.164 204.527 684.031 205.566 685.017 206.894C686.002 208.223 686.495 209.466 686.495 210.625C686.495 211.102 686.206 211.511 685.628 211.851C685.051 212.192 684.371 212.481 683.589 212.72C682.807 212.958 682.025 213.146 681.243 213.282C680.461 213.418 679.866 213.486 679.458 213.486C678.302 213.486 677.265 213.231 676.347 212.72C675.429 212.209 674.613 211.562 673.899 210.778C673.185 209.995 672.574 209.126 672.064 208.172C671.554 207.218 671.129 206.298 670.789 205.412C669.837 202.755 668.987 199.621 668.239 196.01C667.491 192.399 666.879 188.668 666.403 184.819C665.927 180.969 665.604 177.17 665.434 173.423C665.264 169.675 665.281 166.269 665.485 163.203C665.621 161.09 666.063 158.876 666.811 156.559C667.559 154.243 668.545 152.097 669.769 150.121C670.993 148.145 672.421 146.475 674.052 145.113C675.684 143.75 677.418 142.932 679.254 142.66C679.73 142.592 680.41 142.762 681.294 143.171C682.178 143.58 683.045 144.091 683.895 144.704C684.744 145.317 685.475 146.016 686.087 146.799C686.699 147.583 687.005 148.315 687.005 148.996ZM735.834 157.99C735.834 158.331 735.46 158.723 734.712 159.166C733.964 159.609 733.114 160.017 732.162 160.392C731.21 160.767 730.292 161.073 729.408 161.312C728.524 161.55 727.946 161.636 727.675 161.567C727.267 161.431 726.859 161.022 726.451 160.341C726.043 159.66 725.686 158.944 725.38 158.195C725.074 157.445 724.802 156.747 724.564 156.1C724.326 155.452 724.105 155.095 723.901 155.026C723.697 154.958 723.374 154.907 722.932 154.873C722.49 154.839 721.997 154.822 721.453 154.822H719.821C719.277 154.822 718.869 154.856 718.597 154.924C718.257 154.992 718.087 155.265 718.087 155.742V156.559C718.087 157.99 718.104 159.898 718.138 162.283C718.172 164.668 718.206 167.223 718.24 169.948C718.274 172.673 718.342 175.45 718.444 178.278C718.546 181.105 718.631 183.677 718.699 185.994C718.767 188.31 718.835 190.286 718.903 191.922C718.971 193.557 719.039 194.545 719.107 194.886C719.243 195.635 719.175 196.163 718.903 196.47C718.631 196.776 718.257 196.998 717.781 197.134C717.305 197.27 716.761 197.338 716.149 197.338C715.537 197.338 714.96 197.372 714.416 197.441C714.28 197.441 713.804 197.458 712.988 197.492C712.172 197.526 711.288 197.56 710.336 197.594C709.384 197.628 708.534 197.645 707.786 197.645H706.562C706.154 197.713 705.695 197.441 705.185 196.827C704.675 196.214 704.488 195.737 704.624 195.397C704.828 194.715 704.981 193.284 705.083 191.104C705.185 188.924 705.253 186.352 705.287 183.388C705.321 180.424 705.321 177.307 705.287 174.036C705.253 170.766 705.202 167.734 705.134 164.94C705.066 162.147 704.981 159.762 704.879 157.786C704.777 155.81 704.692 154.686 704.624 154.413C702.449 154.413 700.647 154.43 699.219 154.464C697.791 154.498 697.077 154.618 697.077 154.822C697.077 155.299 697.111 156.048 697.179 157.07C697.247 158.093 697.315 159.268 697.383 160.596C697.451 161.925 697.536 163.305 697.638 164.736C697.74 166.167 697.825 167.478 697.893 168.67C697.961 169.863 698.012 170.851 698.046 171.634C698.08 172.418 698.097 172.844 698.097 172.912C697.893 173.321 697.451 173.747 696.771 174.189C696.091 174.632 695.343 175.041 694.527 175.416C693.711 175.791 692.912 176.097 692.13 176.336C691.348 176.574 690.754 176.693 690.346 176.693C689.938 176.625 689.581 176.029 689.275 174.905C688.969 173.781 688.714 172.367 688.51 170.663C688.306 168.96 688.153 167.086 688.051 165.042C687.949 162.998 687.864 161.056 687.796 159.217C687.728 157.377 687.694 155.742 687.694 154.311V151.449C687.966 150.768 688.255 150.393 688.561 150.325C688.867 150.257 689.292 150.223 689.836 150.223C691.263 150.223 693.099 150.274 695.343 150.376C697.587 150.478 699.899 150.581 702.279 150.683C704.658 150.785 706.97 150.887 709.214 150.989C711.458 151.092 713.328 151.143 714.824 151.143C715.911 151.143 717.169 151.109 718.597 151.041C720.025 150.972 721.47 150.921 722.932 150.887C724.394 150.853 725.839 150.802 727.267 150.734C728.694 150.666 729.952 150.632 731.04 150.632C731.448 150.632 731.924 150.921 732.468 151.5C733.012 152.08 733.539 152.778 734.049 153.596C734.559 154.413 734.984 155.231 735.324 156.048C735.664 156.866 735.834 157.513 735.834 157.99ZM774.055 194.272C773.511 195.294 772.967 196.027 772.423 196.47C771.879 196.913 771.267 197.185 770.587 197.287C769.908 197.389 769.16 197.407 768.344 197.338C767.528 197.27 766.61 197.236 765.59 197.236C761.714 197.372 757.958 197.492 754.32 197.594C750.682 197.696 747.571 197.509 744.988 197.032C743.696 196.827 742.795 196.521 742.285 196.112C741.775 195.703 741.503 195.277 741.469 194.834C741.435 194.392 741.503 193.915 741.673 193.404C741.843 192.893 741.962 192.365 742.03 191.819C742.166 190.797 742.251 188.907 742.285 186.147C742.319 183.388 742.336 180.271 742.336 176.796C742.336 173.321 742.319 169.795 742.285 166.218C742.251 162.641 742.2 159.523 742.132 156.866C742.064 155.64 741.911 154.618 741.673 153.8C741.435 152.982 741.384 152.403 741.52 152.063C741.452 151.449 741.843 151.058 742.693 150.887C743.543 150.717 744.58 150.666 745.804 150.734C747.027 150.802 748.251 150.887 749.475 150.989C750.699 151.092 751.651 151.143 752.331 151.143C754.031 151.075 755.697 150.955 757.329 150.785C758.96 150.615 760.541 150.512 762.071 150.478C763.601 150.444 765.097 150.547 766.559 150.785C768.021 151.023 769.5 151.449 770.995 152.063C771.539 152.267 771.964 152.625 772.27 153.136C772.576 153.647 772.763 154.192 772.831 154.771C772.899 155.35 772.899 155.946 772.831 156.559C772.763 157.173 772.627 157.718 772.423 158.195C772.219 158.672 771.335 159.523 769.772 160.75C768.208 161.976 766.457 163.254 764.519 164.582C762.581 165.911 760.711 167.172 758.909 168.364C757.108 169.556 755.867 170.357 755.187 170.766C755.391 171.788 755.952 172.469 756.87 172.81C757.788 173.15 758.858 173.321 760.082 173.321C761.374 173.321 762.734 173.253 764.162 173.116C765.59 172.98 766.95 172.946 768.242 173.014C769.534 173.082 770.655 173.338 771.607 173.781C772.559 174.224 773.171 175.024 773.443 176.182C773.783 177.613 774.14 179.112 774.514 180.679C774.888 182.246 775.143 183.797 775.279 185.33C775.415 186.863 775.415 188.396 775.279 189.929C775.143 191.462 774.735 192.91 774.055 194.272ZM762.02 157.888C761.816 157.275 761.408 156.747 760.796 156.304C760.184 155.861 759.538 155.486 758.858 155.18C758.178 154.873 757.55 154.652 756.972 154.515C756.394 154.379 756.071 154.379 756.003 154.515C755.595 154.992 755.306 155.759 755.136 156.815C754.966 157.871 754.864 158.995 754.83 160.188C754.796 161.38 754.813 162.538 754.881 163.663C754.949 164.787 755.017 165.587 755.085 166.064C755.493 166.064 756.122 165.758 756.972 165.144C757.822 164.531 758.654 163.782 759.47 162.896C760.286 162.01 760.966 161.107 761.51 160.188C762.054 159.268 762.224 158.501 762.02 157.888ZM762.632 192.535C762.904 192.194 763.091 191.479 763.193 190.389C763.295 189.298 763.329 188.089 763.295 186.76C763.261 185.432 763.125 184.137 762.887 182.877C762.649 181.616 762.36 180.645 762.02 179.964C761.748 179.487 761.561 179.163 761.459 178.993C761.357 178.823 761.221 178.703 761.051 178.635C760.881 178.567 760.694 178.516 760.49 178.482C760.286 178.448 759.946 178.363 759.47 178.226C758.518 177.886 757.618 177.528 756.768 177.153C755.918 176.779 755.289 176.455 754.881 176.182C754.813 177.341 754.745 178.703 754.677 180.271C754.609 181.838 754.575 183.473 754.575 185.176C754.575 186.88 754.677 188.498 754.881 190.031C755.085 191.564 755.391 192.841 755.799 193.863C756.343 194 756.955 194.068 757.635 194.068C758.315 194.068 758.977 194.017 759.623 193.915C760.269 193.812 760.864 193.642 761.408 193.404C761.952 193.165 762.36 192.876 762.632 192.535ZM812.787 178.942C812.923 179.419 812.821 180.236 812.481 181.395C812.141 182.553 811.665 183.865 811.053 185.33C810.441 186.794 809.744 188.293 808.962 189.826C808.18 191.36 807.432 192.773 806.718 194.068C806.004 195.362 805.341 196.419 804.729 197.236C804.117 198.054 803.709 198.463 803.505 198.463C801.058 198.463 799.137 198.105 797.743 197.389C796.349 196.674 795.278 195.669 794.53 194.375C793.782 193.08 793.221 191.581 792.847 189.878C792.473 188.174 792.048 186.335 791.572 184.359C791.3 183.132 790.96 181.906 790.552 180.679C790.144 179.453 789.94 178.226 789.94 177C789.94 174.82 790.127 172.673 790.501 170.561C790.875 168.449 791.232 166.337 791.572 164.225C791.844 162.521 792.116 160.852 792.388 159.217C792.66 157.581 793.136 156.117 793.816 154.822C794.496 153.527 795.448 152.488 796.672 151.705C797.896 150.921 799.596 150.529 801.771 150.529C802.519 150.529 803.114 150.836 803.556 151.449C803.998 152.063 804.355 152.676 804.627 153.289C805.511 155.333 806.259 157.445 806.871 159.626C807.483 161.806 808.061 163.986 808.605 166.167C809.149 168.347 809.744 170.51 810.39 172.656C811.036 174.803 811.835 176.898 812.787 178.942ZM804.627 185.994C804.695 185.789 804.763 185.449 804.831 184.972C804.899 184.495 804.933 183.984 804.933 183.439C804.933 182.894 804.899 182.349 804.831 181.804C804.763 181.258 804.695 180.816 804.627 180.475C804.559 180.134 804.338 179.521 803.964 178.635C803.59 177.75 803.131 176.71 802.587 175.518C802.043 174.326 801.465 173.082 800.853 171.788C800.242 170.493 799.647 169.318 799.069 168.262C798.491 167.206 797.947 166.337 797.437 165.656C796.927 164.974 796.536 164.668 796.264 164.736C795.72 164.872 795.397 165.162 795.295 165.604C795.193 166.047 795.142 166.848 795.142 168.006C795.142 169.164 795.397 170.629 795.907 172.401C796.417 174.172 797.046 175.978 797.794 177.818C798.542 179.657 799.324 181.429 800.14 183.132C800.956 184.836 801.703 186.13 802.383 187.016C802.655 187.357 803.063 187.357 803.607 187.016C804.151 186.675 804.491 186.335 804.627 185.994Z" fill="white"/>
<path d="M77.9958 192.739C77.9958 193.693 77.8769 194.732 77.6389 195.856C77.4009 196.981 77.2479 198.054 77.1799 199.076C76.9759 201.461 76.7209 203.488 76.415 205.157C76.109 206.826 75.786 208.717 75.4461 210.829C75.4461 210.965 75.2251 211.068 74.7831 211.136C74.3411 211.204 73.8652 211.255 73.3552 211.289C72.8453 211.323 72.3523 211.34 71.8763 211.34H69.7345C69.2586 211.34 68.7656 211.289 68.2556 211.187C67.7457 211.085 67.3037 210.897 66.9298 210.625C66.5558 210.352 66.3688 209.977 66.3688 209.501C66.3688 208.478 66.6238 207.371 67.1337 206.179C67.6437 204.987 67.8987 203.811 67.8987 202.653C67.8987 201.903 67.7797 201.035 67.5417 200.047C67.3037 199.059 66.7428 198.429 65.8588 198.156C64.363 197.747 62.7651 197.458 61.0652 197.287C59.3654 197.117 57.6485 196.998 55.9147 196.93C54.1808 196.861 52.4299 196.827 50.6621 196.827H45.8685C45.4605 196.827 44.6956 196.844 43.5737 196.878C42.4517 196.913 41.2789 196.947 40.0549 196.981C38.831 197.015 37.6921 197.083 36.6382 197.185C35.5843 197.287 34.9214 197.441 34.6494 197.645C34.1054 197.986 33.7995 198.684 33.7315 199.74C33.6635 200.796 33.6295 201.597 33.6295 202.142C33.6295 205.004 33.7995 207.814 34.1394 210.574C34.4794 213.333 34.6494 215.803 34.6494 217.983C34.6494 218.528 34.5134 218.92 34.2414 219.159C33.9694 219.397 33.6295 219.568 33.2215 219.67C32.8135 219.772 32.3716 219.823 31.8956 219.823H29.5498C28.9379 219.823 28.2749 219.806 27.561 219.772C26.847 219.738 26.2181 219.687 25.6741 219.619C25.1302 219.55 24.8582 219.448 24.8582 219.312C24.8582 218.631 24.8412 217.677 24.8072 216.45C24.7732 215.224 24.7052 213.895 24.6032 212.464C24.5012 211.034 24.3822 209.569 24.2462 208.07C24.1103 206.571 23.9403 205.174 23.7363 203.879C23.5323 202.176 23.2433 200.541 22.8694 198.974C22.4954 197.407 22.1044 195.805 21.6964 194.17C21.4925 193.421 21.7984 192.995 22.6144 192.893C23.4303 192.79 24.0763 192.739 24.5522 192.739C25.5041 192.739 26.4731 192.773 27.459 192.841C28.4449 192.91 29.4138 192.944 30.3657 192.944C30.9777 192.944 31.7256 192.893 32.6096 192.79C33.4935 192.688 33.9694 192.228 34.0374 191.411C34.1054 190.729 34.2584 189.656 34.4964 188.191C34.7344 186.726 35.0574 185.244 35.4653 183.745C35.8733 182.246 36.3492 180.884 36.8932 179.657C37.4372 178.431 38.0151 177.647 38.6271 177.307C39.647 176.83 40.5819 176.489 41.4318 176.285C42.2818 176.08 43.0807 175.859 43.8286 175.62C44.5766 175.382 45.3075 175.024 46.0215 174.547C46.7354 174.07 47.4663 173.287 48.2143 172.196C47.6023 170.289 47.0924 168.279 46.6844 166.167C46.6164 165.758 46.5144 164.923 46.3784 163.663C46.2424 162.402 46.0725 161.107 45.8685 159.779C45.6645 158.45 45.4265 157.241 45.1545 156.151C44.8826 155.06 44.5426 154.447 44.1346 154.311C43.1147 153.902 42.0948 153.817 41.0749 154.055C40.0549 154.294 39.103 154.686 38.2191 155.231C38.0151 155.708 37.8791 156.321 37.8111 157.07C37.7431 157.82 37.6411 158.552 37.5052 159.268C37.3692 159.983 37.1652 160.596 36.8932 161.107C36.6212 161.619 36.2473 161.874 35.7713 161.874C34.0034 161.874 32.8645 161.448 32.3546 160.596C31.8446 159.745 31.4876 158.774 31.2837 157.684C31.0797 156.594 30.8077 155.52 30.4677 154.464C30.1278 153.408 29.3118 152.642 28.0199 152.165C27.612 152.028 27.408 151.79 27.408 151.449C27.408 151.041 27.697 150.495 28.2749 149.814C28.8529 149.133 29.4138 148.86 29.9578 148.996C31.4537 149.405 32.7285 149.746 33.7825 150.018C34.8364 150.291 35.8563 150.529 36.8422 150.734C37.8281 150.938 38.882 151.075 40.004 151.143C41.1259 151.211 42.5027 151.245 44.1346 151.245C46.2425 151.245 48.3163 151.16 50.3561 150.989C52.3959 150.819 54.4698 150.734 56.5776 150.734C57.1216 150.734 57.6145 150.768 58.0565 150.836C58.4984 150.904 58.7194 151.279 58.7194 151.96C58.7194 152.642 58.4814 153.391 58.0055 154.209C57.5295 155.026 57.2915 155.912 57.2915 156.866C57.2915 159.796 57.7675 162.623 58.7194 165.349C59.6713 168.074 60.7083 170.783 61.8302 173.474C62.9521 176.165 63.989 178.908 64.9409 181.701C65.8928 184.495 66.3688 187.425 66.3688 190.491C66.3688 191.445 66.5558 192.007 66.9298 192.177C67.3037 192.347 67.9327 192.433 68.8166 192.433C70.0405 192.433 71.2474 192.33 72.4373 192.126C73.6272 191.922 74.8001 191.819 75.956 191.819C76.228 191.819 76.636 191.871 77.1799 191.973C77.7239 192.075 77.9958 192.33 77.9958 192.739ZM53.3139 189.878C53.3139 189.401 53.2119 188.549 53.0079 187.323C52.8039 186.096 52.5319 184.819 52.192 183.49C51.852 182.161 51.495 180.935 51.121 179.811C50.7471 178.686 50.3561 177.988 49.9481 177.715C49.7442 177.715 49.4892 177.903 49.1832 178.278C48.8772 178.652 48.6562 178.908 48.5203 179.044C47.6363 180.202 47.0244 181.48 46.6844 182.877C46.3444 184.273 46.1744 185.653 46.1744 187.016C46.1744 188.174 46.2084 189.111 46.2764 189.826C46.3444 190.542 46.5144 191.104 46.7864 191.513C47.0584 191.922 47.5003 192.194 48.1123 192.33C48.7242 192.467 49.6082 192.535 50.7641 192.535C51.92 192.535 52.6339 192.382 52.9059 192.075C53.1779 191.768 53.3139 191.036 53.3139 189.878ZM126.722 184.563C126.722 185.381 126.654 186.079 126.518 186.658C126.382 187.237 126.229 187.834 126.059 188.447C125.889 189.06 125.753 189.741 125.651 190.491C125.549 191.24 125.532 192.126 125.6 193.148C125.668 194.034 125.515 194.817 125.141 195.499C124.768 196.18 124.292 196.725 123.714 197.134C123.136 197.543 122.456 197.781 121.674 197.849C120.892 197.918 120.127 197.747 119.379 197.338C118.631 196.93 117.645 196.827 116.421 197.032C115.197 197.236 114.109 197.304 113.157 197.236C111.186 197.168 109.163 197.253 107.089 197.492C105.015 197.73 103.094 197.747 101.326 197.543C100.375 197.475 99.3376 197.475 98.2157 197.543L94.85 197.747C93.7281 197.815 92.6402 197.815 91.5862 197.747C90.5323 197.679 89.5974 197.441 88.7815 197.032C88.5095 196.759 88.3905 196.504 88.4245 196.265C88.4585 196.027 88.5435 195.788 88.6795 195.55C88.8155 195.311 88.9684 195.073 89.1384 194.834C89.3084 194.596 89.4274 194.34 89.4954 194.068C89.8354 187.868 90.1413 181.735 90.4133 175.671C90.6853 169.607 90.6173 163.577 90.2093 157.581C90.3453 156.968 90.2603 156.406 89.9544 155.895L89.0364 154.362C88.7305 153.851 88.4925 153.323 88.3225 152.778C88.1525 152.233 88.3055 151.62 88.7815 150.938C91.0933 150.461 93.762 150.257 96.7878 150.325C99.8136 150.393 102.924 150.478 106.12 150.581C109.316 150.683 112.461 150.7 115.554 150.632C118.648 150.564 121.419 150.121 123.867 149.303L125.294 150.427C125.294 151.517 125.141 152.642 124.836 153.8C124.53 154.958 124.19 156.151 123.816 157.377C123.442 158.604 123.068 159.847 122.694 161.107C122.32 162.368 122.031 163.611 121.827 164.838C120.535 165.042 119.192 164.957 117.798 164.582C116.404 164.208 115.231 163.509 114.279 162.487C113.939 161.806 113.854 161.193 114.024 160.648C114.194 160.102 114.432 159.574 114.738 159.063C115.044 158.552 115.316 158.024 115.554 157.479C115.792 156.934 115.843 156.253 115.707 155.435C115.231 154.89 114.398 154.515 113.208 154.311C112.019 154.107 110.71 154.004 109.282 154.004C107.922 154.004 106.613 154.073 105.355 154.209C104.097 154.345 103.162 154.413 102.55 154.413C102.278 155.026 102.108 156.168 102.04 157.837C101.972 159.506 101.955 161.227 101.989 162.998C102.023 164.77 102.091 166.354 102.193 167.751C102.295 169.147 102.414 169.88 102.55 169.948C103.91 169.88 105.066 169.778 106.018 169.641C106.97 169.505 107.888 169.42 108.772 169.386C109.656 169.352 110.557 169.403 111.475 169.539C112.393 169.675 113.531 169.982 114.891 170.459L115.248 171.788C115.486 172.673 115.639 173.61 115.707 174.598C115.775 175.586 115.605 176.404 115.197 177.051C114.789 177.698 113.973 177.784 112.749 177.307C109.486 176.148 107.106 175.365 105.61 174.956C104.114 174.547 103.094 174.513 102.55 174.854C102.754 175.671 102.805 176.898 102.703 178.533C102.601 180.168 102.499 181.889 102.397 183.694C102.295 185.5 102.295 187.237 102.397 188.907C102.499 190.576 102.856 191.854 103.468 192.739C103.604 192.944 104.318 193.097 105.61 193.199C106.902 193.301 108.313 193.318 109.843 193.25C111.373 193.182 112.8 193.063 114.126 192.893C115.452 192.722 116.183 192.467 116.319 192.126L116.982 190.797C117.288 190.184 117.577 189.469 117.849 188.651C118.121 187.834 118.291 186.897 118.359 185.841C118.427 184.784 118.325 183.643 118.053 182.417C117.849 181.599 118.189 181.122 119.073 180.986C119.957 180.85 120.96 180.935 122.082 181.241C123.204 181.548 124.258 182.008 125.243 182.621C126.229 183.234 126.722 183.882 126.722 184.563ZM175.551 194.272C175.007 195.294 174.463 196.027 173.919 196.47C173.375 196.913 172.763 197.185 172.083 197.287C171.403 197.389 170.655 197.407 169.839 197.338C169.023 197.27 168.105 197.236 167.086 197.236C163.21 197.372 159.453 197.492 155.815 197.594C152.178 197.696 149.067 197.509 146.483 197.032C145.191 196.827 144.29 196.521 143.78 196.112C143.27 195.703 142.999 195.277 142.965 194.834C142.931 194.392 142.999 193.915 143.169 193.404C143.338 192.893 143.457 192.365 143.525 191.819C143.661 190.797 143.746 188.907 143.78 186.147C143.814 183.388 143.831 180.271 143.831 176.796C143.831 173.321 143.814 169.795 143.78 166.218C143.746 162.641 143.695 159.523 143.627 156.866C143.559 155.64 143.406 154.618 143.169 153.8C142.931 152.982 142.88 152.403 143.016 152.063C142.948 151.449 143.338 151.058 144.188 150.887C145.038 150.717 146.075 150.666 147.299 150.734C148.523 150.802 149.747 150.887 150.971 150.989C152.195 151.092 153.147 151.143 153.827 151.143C155.526 151.075 157.192 150.955 158.824 150.785C160.456 150.615 162.037 150.512 163.567 150.478C165.097 150.444 166.593 150.547 168.054 150.785C169.516 151.023 170.995 151.449 172.491 152.063C173.035 152.267 173.46 152.625 173.766 153.136C174.072 153.647 174.259 154.192 174.327 154.771C174.395 155.35 174.395 155.946 174.327 156.559C174.259 157.173 174.123 157.718 173.919 158.195C173.715 158.672 172.831 159.523 171.267 160.75C169.703 161.976 167.952 163.254 166.015 164.582C164.077 165.911 162.207 167.172 160.405 168.364C158.603 169.556 157.362 170.357 156.682 170.766C156.886 171.788 157.447 172.469 158.365 172.81C159.283 173.15 160.354 173.321 161.578 173.321C162.87 173.321 164.23 173.253 165.658 173.116C167.086 172.98 168.445 172.946 169.737 173.014C171.029 173.082 172.151 173.338 173.103 173.781C174.055 174.224 174.667 175.024 174.939 176.182C175.279 177.613 175.636 179.112 176.01 180.679C176.384 182.246 176.639 183.797 176.775 185.33C176.911 186.863 176.911 188.396 176.775 189.929C176.639 191.462 176.231 192.91 175.551 194.272ZM163.516 157.888C163.312 157.275 162.904 156.747 162.292 156.304C161.68 155.861 161.034 155.486 160.354 155.18C159.674 154.873 159.045 154.652 158.467 154.515C157.889 154.379 157.566 154.379 157.498 154.515C157.09 154.992 156.801 155.759 156.631 156.815C156.461 157.871 156.359 158.995 156.325 160.188C156.291 161.38 156.308 162.538 156.376 163.663C156.444 164.787 156.512 165.587 156.58 166.064C156.988 166.064 157.617 165.758 158.467 165.144C159.317 164.531 160.15 163.782 160.966 162.896C161.782 162.01 162.462 161.107 163.006 160.188C163.55 159.268 163.72 158.501 163.516 157.888ZM164.128 192.535C164.4 192.194 164.587 191.479 164.689 190.389C164.791 189.298 164.825 188.089 164.791 186.76C164.757 185.432 164.621 184.137 164.383 182.877C164.145 181.616 163.856 180.645 163.516 179.964C163.244 179.487 163.057 179.163 162.955 178.993C162.853 178.823 162.717 178.703 162.547 178.635C162.377 178.567 162.19 178.516 161.986 178.482C161.782 178.448 161.442 178.363 160.966 178.226C160.014 177.886 159.113 177.528 158.263 177.153C157.413 176.779 156.784 176.455 156.376 176.182C156.308 177.341 156.24 178.703 156.172 180.271C156.104 181.838 156.07 183.473 156.07 185.176C156.07 186.88 156.172 188.498 156.376 190.031C156.58 191.564 156.886 192.841 157.294 193.863C157.838 194 158.45 194.068 159.13 194.068C159.81 194.068 160.473 194.017 161.119 193.915C161.765 193.812 162.36 193.642 162.904 193.404C163.448 193.165 163.856 192.876 164.128 192.535ZM223.665 195.601C223.733 196.35 223.41 196.844 222.697 197.083C221.983 197.321 221.099 197.458 220.045 197.492C218.991 197.526 217.852 197.492 216.628 197.389C215.404 197.287 214.35 197.27 213.466 197.338C212.582 197.407 211.919 197.424 211.477 197.389C211.035 197.355 210.712 197.253 210.508 197.083C210.305 196.913 210.186 196.674 210.152 196.367C210.118 196.061 210.033 195.669 209.897 195.192C209.557 193.829 209.387 192.365 209.387 190.797C209.387 189.162 209.438 187.51 209.54 185.841C209.642 184.171 209.744 182.536 209.846 180.935C209.948 179.334 209.897 177.886 209.693 176.591C209.353 177.273 208.469 178.669 207.041 180.782C205.613 182.894 203.947 185.33 202.043 188.089C200.139 190.849 198.117 193.761 195.975 196.827C193.833 199.893 191.844 202.704 190.008 205.259L183.583 214.202C182.767 215.428 181.747 216.57 180.523 217.626C179.299 218.682 178.075 219.567 176.851 220.283C175.627 220.998 174.522 221.475 173.537 221.714C172.551 221.952 171.888 221.867 171.548 221.458C170.868 220.641 170.528 219.823 170.528 219.005C170.528 218.256 170.698 217.575 171.038 216.961C171.378 216.348 171.803 215.82 172.313 215.377C172.823 214.934 173.248 214.645 173.588 214.508C174.607 214.1 175.44 213.844 176.086 213.742C176.732 213.64 177.327 213.538 177.871 213.435C178.415 213.333 178.942 213.129 179.452 212.822C179.962 212.516 180.591 211.987 181.339 211.238C182.087 210.488 183.294 209.007 184.96 206.792C186.625 204.578 188.478 202.023 190.518 199.127C192.558 196.231 194.666 193.148 196.842 189.878C199.017 186.607 201.023 183.524 202.859 180.628C204.695 177.732 206.242 175.177 207.5 172.963C208.758 170.749 209.455 169.267 209.591 168.517L205.409 168.722C204.389 168.79 203.25 168.926 201.992 169.13C200.734 169.335 199.51 169.42 198.32 169.386C197.131 169.352 196.094 169.096 195.21 168.619C194.326 168.142 193.782 167.257 193.578 165.962C193.442 165.008 193.289 163.901 193.119 162.641C192.949 161.38 192.881 160.103 192.915 158.808C192.949 157.513 193.119 156.304 193.425 155.18C193.731 154.055 194.258 153.119 195.006 152.369C195.55 151.824 196.128 151.398 196.74 151.092C197.352 150.785 198.134 150.632 199.085 150.632C202.757 150.495 206.65 150.512 210.763 150.683C214.877 150.853 218.702 150.972 222.238 151.041C222.645 151.245 222.9 151.449 223.002 151.654C223.104 151.858 223.189 152.165 223.257 152.574C222.985 155.708 222.815 159.149 222.747 162.896C222.68 166.643 222.68 170.442 222.747 174.292C222.815 178.141 222.934 181.923 223.104 185.636C223.274 189.35 223.461 192.671 223.665 195.601ZM210.916 155.946C210.576 155.197 209.846 154.771 208.724 154.669C207.602 154.567 206.667 154.584 205.919 154.72C205.511 155.06 205.205 155.691 205.001 156.611C204.797 157.53 204.678 158.501 204.644 159.523C204.61 160.545 204.644 161.55 204.746 162.538C204.848 163.526 205.001 164.293 205.205 164.838H209.489C209.829 164.633 210.101 164.14 210.305 163.356C210.508 162.572 210.661 161.704 210.763 160.75C210.865 159.796 210.916 158.876 210.916 157.99V155.946ZM283.611 157.99C283.611 158.331 283.237 158.723 282.489 159.166C281.741 159.609 280.891 160.017 279.939 160.392C278.987 160.767 278.069 161.073 277.186 161.312C276.302 161.55 275.724 161.636 275.452 161.567C275.044 161.431 274.636 161.022 274.228 160.341C273.82 159.66 273.463 158.944 273.157 158.195C272.851 157.445 272.579 156.747 272.341 156.1C272.103 155.452 271.882 155.095 271.678 155.026C271.474 154.958 271.151 154.907 270.709 154.873C270.267 154.839 269.774 154.822 269.23 154.822H267.598C267.054 154.822 266.646 154.856 266.374 154.924C266.034 154.992 265.864 155.265 265.864 155.742V156.559C265.864 157.99 265.881 159.898 265.915 162.283C265.949 164.668 265.983 167.223 266.017 169.948C266.051 172.673 266.119 175.45 266.221 178.278C266.323 181.105 266.408 183.677 266.476 185.994C266.544 188.31 266.612 190.286 266.68 191.922C266.748 193.557 266.816 194.545 266.884 194.886C267.02 195.635 266.952 196.163 266.68 196.47C266.408 196.776 266.034 196.998 265.558 197.134C265.083 197.27 264.539 197.338 263.927 197.338C263.315 197.338 262.737 197.372 262.193 197.441C262.057 197.441 261.581 197.458 260.765 197.492C259.949 197.526 259.065 197.56 258.113 197.594C257.161 197.628 256.311 197.645 255.563 197.645H254.339C253.931 197.713 253.472 197.441 252.963 196.827C252.453 196.214 252.266 195.737 252.402 195.397C252.606 194.715 252.759 193.284 252.861 191.104C252.963 188.924 253.031 186.352 253.065 183.388C253.099 180.424 253.099 177.307 253.065 174.036C253.031 170.766 252.98 167.734 252.912 164.94C252.844 162.147 252.759 159.762 252.657 157.786C252.555 155.81 252.47 154.686 252.402 154.413C250.226 154.413 248.424 154.43 246.996 154.464C245.568 154.498 244.854 154.618 244.854 154.822C244.854 155.299 244.888 156.048 244.956 157.07C245.024 158.093 245.092 159.268 245.16 160.596C245.228 161.925 245.313 163.305 245.415 164.736C245.517 166.167 245.602 167.478 245.67 168.671C245.738 169.863 245.789 170.851 245.823 171.634C245.857 172.418 245.874 172.844 245.874 172.912C245.67 173.321 245.228 173.747 244.548 174.189C243.868 174.632 243.12 175.041 242.304 175.416C241.488 175.791 240.69 176.097 239.908 176.336C239.126 176.574 238.531 176.693 238.123 176.693C237.715 176.625 237.358 176.029 237.052 174.905C236.746 173.781 236.491 172.367 236.287 170.663C236.083 168.96 235.93 167.086 235.828 165.042C235.726 162.998 235.641 161.056 235.573 159.217C235.505 157.377 235.471 155.742 235.471 154.311V151.449C235.743 150.768 236.032 150.393 236.338 150.325C236.644 150.257 237.069 150.223 237.613 150.223C239.041 150.223 240.876 150.274 243.12 150.376C245.364 150.478 247.676 150.581 250.056 150.683C252.436 150.785 254.747 150.887 256.991 150.989C259.235 151.092 261.105 151.143 262.601 151.143C263.689 151.143 264.947 151.109 266.374 151.041C267.802 150.972 269.247 150.921 270.709 150.887C272.171 150.853 273.616 150.802 275.044 150.734C276.472 150.666 277.729 150.632 278.817 150.632C279.225 150.632 279.701 150.921 280.245 151.5C280.789 152.08 281.316 152.778 281.826 153.596C282.336 154.413 282.761 155.231 283.101 156.048C283.441 156.866 283.611 157.513 283.611 157.99ZM307.452 178.942C307.588 179.419 307.486 180.236 307.146 181.395C306.806 182.553 306.33 183.865 305.718 185.33C305.106 186.794 304.409 188.293 303.627 189.826C302.845 191.36 302.097 192.773 301.383 194.068C300.669 195.362 300.006 196.419 299.394 197.236C298.782 198.054 298.374 198.463 298.17 198.463C295.723 198.463 293.802 198.105 292.408 197.389C291.014 196.674 289.943 195.669 289.195 194.375C288.447 193.08 287.886 191.581 287.512 189.878C287.138 188.174 286.713 186.335 286.237 184.359C285.965 183.132 285.625 181.906 285.217 180.679C284.809 179.453 284.605 178.226 284.605 177C284.605 174.82 284.792 172.673 285.166 170.561C285.54 168.449 285.897 166.337 286.237 164.225C286.509 162.521 286.781 160.852 287.053 159.217C287.325 157.581 287.801 156.117 288.481 154.822C289.161 153.527 290.113 152.488 291.337 151.705C292.561 150.921 294.261 150.529 296.436 150.529C297.184 150.529 297.779 150.836 298.221 151.449C298.663 152.063 299.02 152.676 299.292 153.289C300.176 155.333 300.924 157.445 301.536 159.626C302.148 161.806 302.726 163.986 303.27 166.167C303.814 168.347 304.409 170.51 305.055 172.656C305.701 174.803 306.5 176.898 307.452 178.942ZM299.292 185.994C299.36 185.789 299.428 185.449 299.496 184.972C299.564 184.495 299.598 183.984 299.598 183.439C299.598 182.894 299.564 182.349 299.496 181.804C299.428 181.258 299.36 180.816 299.292 180.475C299.224 180.134 299.003 179.521 298.629 178.635C298.255 177.75 297.796 176.71 297.252 175.518C296.708 174.326 296.13 173.082 295.519 171.788C294.907 170.493 294.312 169.318 293.734 168.262C293.156 167.206 292.612 166.337 292.102 165.656C291.592 164.974 291.201 164.668 290.929 164.736C290.385 164.872 290.062 165.162 289.96 165.604C289.858 166.047 289.807 166.848 289.807 168.006C289.807 169.164 290.062 170.629 290.572 172.401C291.082 174.172 291.711 175.978 292.459 177.818C293.207 179.657 293.989 181.429 294.805 183.132C295.621 184.836 296.368 186.13 297.048 187.016C297.32 187.357 297.728 187.357 298.272 187.016C298.816 186.675 299.156 186.335 299.292 185.994ZM358.83 184.563C358.83 185.381 358.762 186.079 358.626 186.658C358.49 187.237 358.337 187.834 358.167 188.447C357.997 189.06 357.861 189.741 357.759 190.491C357.657 191.24 357.64 192.126 357.708 193.148C357.776 194.034 357.623 194.817 357.249 195.499C356.875 196.18 356.399 196.725 355.821 197.134C355.243 197.543 354.563 197.781 353.781 197.849C352.999 197.918 352.234 197.747 351.486 197.338C350.739 196.93 349.753 196.827 348.529 197.032C347.305 197.236 346.217 197.304 345.265 197.236C343.293 197.168 341.27 197.253 339.196 197.492C337.123 197.73 335.202 197.747 333.434 197.543C332.482 197.475 331.445 197.475 330.323 197.543C329.201 197.611 328.079 197.679 326.957 197.747C325.836 197.815 324.748 197.815 323.694 197.747C322.64 197.679 321.705 197.441 320.889 197.032C320.617 196.759 320.498 196.504 320.532 196.265C320.566 196.027 320.651 195.788 320.787 195.55C320.923 195.311 321.076 195.073 321.246 194.834C321.416 194.596 321.535 194.34 321.603 194.068C321.943 187.868 322.249 181.735 322.521 175.671C322.793 169.607 322.725 163.577 322.317 157.581C322.453 156.968 322.368 156.406 322.062 155.895C321.756 155.384 321.45 154.873 321.144 154.362C320.838 153.851 320.6 153.323 320.43 152.778C320.26 152.233 320.413 151.62 320.889 150.938C323.201 150.461 325.87 150.257 328.895 150.325C331.921 150.393 335.032 150.478 338.228 150.581C341.423 150.683 344.568 150.7 347.662 150.632C350.756 150.564 353.526 150.121 355.974 149.303L357.402 150.427C357.402 151.517 357.249 152.642 356.943 153.8C356.637 154.958 356.297 156.151 355.923 157.377C355.549 158.604 355.175 159.847 354.801 161.107C354.427 162.368 354.138 163.611 353.934 164.838C352.642 165.042 351.299 164.957 349.906 164.582C348.512 164.208 347.339 163.509 346.387 162.487C346.047 161.806 345.962 161.193 346.132 160.648C346.302 160.102 346.54 159.574 346.846 159.063C347.152 158.552 347.424 158.024 347.662 157.479C347.9 156.934 347.951 156.253 347.815 155.435C347.339 154.89 346.506 154.515 345.316 154.311C344.126 154.107 342.817 154.004 341.389 154.004C340.029 154.004 338.72 154.073 337.463 154.209C336.205 154.345 335.27 154.413 334.658 154.413C334.386 155.026 334.216 156.168 334.148 157.837C334.08 159.506 334.063 161.227 334.097 162.998C334.131 164.77 334.199 166.354 334.301 167.751C334.403 169.147 334.522 169.88 334.658 169.948C336.018 169.88 337.174 169.778 338.126 169.641C339.077 169.505 339.995 169.42 340.879 169.386C341.763 169.352 342.664 169.403 343.582 169.539C344.5 169.675 345.639 169.982 346.999 170.459C346.999 170.459 347.118 170.902 347.356 171.788C347.594 172.673 347.747 173.61 347.815 174.598C347.883 175.586 347.713 176.404 347.305 177.051C346.897 177.698 346.081 177.784 344.857 177.307C341.593 176.148 339.213 175.365 337.718 174.956C336.222 174.547 335.202 174.513 334.658 174.854C334.862 175.671 334.913 176.898 334.811 178.533C334.709 180.168 334.607 181.889 334.505 183.694C334.403 185.5 334.403 187.237 334.505 188.907C334.607 190.576 334.964 191.854 335.576 192.739C335.712 192.944 336.426 193.097 337.718 193.199C339.009 193.301 340.42 193.318 341.95 193.25C343.48 193.182 344.908 193.063 346.234 192.893C347.56 192.722 348.291 192.467 348.427 192.126C348.563 191.854 348.784 191.411 349.09 190.797C349.396 190.184 349.685 189.469 349.957 188.651C350.229 187.834 350.399 186.897 350.467 185.841C350.535 184.784 350.433 183.643 350.161 182.417C349.957 181.599 350.297 181.122 351.18 180.986C352.064 180.85 353.067 180.935 354.189 181.241C355.311 181.548 356.365 182.008 357.351 182.621C358.337 183.234 358.83 183.882 358.83 184.563Z" fill="white"/>
<path d="M407.427 59.4007C407.427 59.7414 407.053 60.1332 406.305 60.576C405.557 61.0189 404.707 61.4277 403.755 61.8025C402.803 62.1772 401.885 62.4838 401.001 62.7223C400.117 62.9608 399.539 63.0459 399.267 62.9778C398.859 62.8415 398.451 62.4327 398.043 61.7514C397.635 61.07 397.278 60.3546 396.973 59.6051C396.667 58.8556 396.395 58.1572 396.157 57.5099C395.919 56.8627 395.698 56.505 395.494 56.4368C395.29 56.3687 394.967 56.3176 394.525 56.2835C394.083 56.2494 393.59 56.2324 393.046 56.2324H391.414C390.87 56.2324 390.462 56.2665 390.19 56.3346C389.85 56.4027 389.68 56.6753 389.68 57.1522V57.9699C389.68 59.4007 389.697 61.3085 389.731 63.6932C389.765 66.078 389.799 68.633 389.833 71.3584C389.867 74.0839 389.935 76.8603 390.037 79.688C390.139 82.5156 390.224 85.0877 390.292 87.4043C390.36 89.7209 390.428 91.6968 390.496 93.332C390.564 94.9673 390.632 95.9552 390.7 96.2959C390.836 97.0454 390.768 97.5735 390.496 97.8801C390.224 98.1867 389.85 98.4081 389.374 98.5444C388.898 98.6806 388.354 98.7488 387.742 98.7488C387.13 98.7488 386.552 98.7829 386.008 98.851C385.872 98.851 385.396 98.868 384.581 98.9021C383.765 98.9362 382.881 98.9702 381.929 99.0043C380.977 99.0384 380.127 99.0554 379.379 99.0554H378.155C377.747 99.1235 377.288 98.851 376.778 98.2378C376.268 97.6245 376.081 97.1476 376.217 96.8069C376.421 96.1256 376.574 94.6948 376.676 92.5144C376.778 90.3341 376.846 87.762 376.88 84.7981C376.914 81.8342 376.914 78.717 376.88 75.4465C376.846 72.176 376.795 69.144 376.727 66.3505C376.659 63.5569 376.574 61.1722 376.472 59.1963C376.37 57.2204 376.285 56.0961 376.217 55.8236C374.041 55.8236 372.24 55.8406 370.812 55.8747C369.384 55.9088 368.67 56.028 368.67 56.2324C368.67 56.7094 368.704 57.4588 368.772 58.4809C368.84 59.5029 368.908 60.6782 368.976 62.0069C369.044 63.3355 369.129 64.7152 369.231 66.1461C369.333 67.5769 369.418 68.8885 369.486 70.0809C369.554 71.2733 369.605 72.2612 369.639 73.0448C369.673 73.8283 369.69 74.2542 369.69 74.3223C369.486 74.7311 369.044 75.157 368.364 75.5998C367.684 76.0427 366.936 76.4515 366.12 76.8263C365.304 77.201 364.505 77.5076 363.723 77.7461C362.941 77.9846 362.346 78.1038 361.938 78.1038C361.53 78.0357 361.173 77.4395 360.867 76.3153C360.561 75.191 360.307 73.7772 360.103 72.0739C359.899 70.3705 359.746 68.4968 359.644 66.4527C359.542 64.4086 359.457 62.4668 359.389 60.6271C359.321 58.7875 359.287 57.1522 359.287 55.7214V52.8597C359.559 52.1784 359.848 51.8036 360.154 51.7355C360.46 51.6674 360.884 51.6333 361.428 51.6333C362.856 51.6333 364.692 51.6844 366.936 51.7866C369.18 51.8888 371.492 51.991 373.871 52.0932C376.251 52.1954 378.563 52.2976 380.807 52.3998C383.051 52.502 384.921 52.5531 386.416 52.5531C387.504 52.5531 388.762 52.519 390.19 52.4509C391.618 52.3828 393.063 52.3317 394.525 52.2976C395.987 52.2635 397.431 52.2124 398.859 52.1443C400.287 52.0762 401.545 52.0421 402.633 52.0421C403.041 52.0421 403.517 52.3317 404.061 52.9108C404.605 53.49 405.132 54.1884 405.642 55.006C406.152 55.8236 406.577 56.6412 406.917 57.4588C407.257 58.2765 407.427 58.9238 407.427 59.4007ZM444.628 60.5249C444.22 62.1602 443.744 63.5399 443.2 64.6641C442.656 65.7884 441.976 66.7252 441.16 67.4747C440.344 68.2242 439.376 68.8204 438.254 69.2633C437.132 69.7062 435.755 70.0979 434.123 70.4386C431.947 70.8474 430.009 71.0518 428.309 71.0518H425.76C425.76 71.7332 425.726 73.2151 425.658 75.4976C425.59 77.7802 425.573 80.2501 425.607 82.9073C425.641 85.5646 425.76 88.1367 425.964 90.6237C426.168 93.1106 426.542 94.8991 427.086 95.9893C427.358 96.5344 427.29 97.0795 426.882 97.6246C426.474 98.1696 425.998 98.5103 425.454 98.6466C423.89 98.9873 422.36 99.0895 420.864 98.9532C419.368 98.8169 417.634 98.8169 415.662 98.9532C415.119 99.0895 414.66 99.0384 414.286 98.7999C413.912 98.5614 413.606 98.1867 413.368 97.6757C413.13 97.1646 412.96 96.6025 412.858 95.9893C412.756 95.3761 412.705 94.7969 412.705 94.2519C412.637 90.8451 412.535 87.7279 412.399 84.9003C412.263 82.0727 412.161 79.3303 412.093 76.673C412.025 74.0157 412.025 71.2903 412.093 68.4968C412.161 65.7032 412.365 62.6712 412.705 59.4007C412.773 58.6512 412.705 57.9528 412.501 57.3055C412.297 56.6583 412.076 56.045 411.838 55.4659C411.6 54.8867 411.43 54.3587 411.328 53.8817C411.226 53.4048 411.345 52.9619 411.685 52.5531C411.957 52.2806 412.756 52.1102 414.082 52.0421C415.408 51.974 416.818 51.974 418.314 52.0421C419.81 52.1102 421.153 52.1954 422.343 52.2976L424.128 52.4509C424.944 52.4509 425.896 52.3998 426.984 52.2976C428.071 52.1954 429.227 52.1102 430.451 52.0421C431.675 51.974 432.933 51.9399 434.225 51.9399C435.517 51.9399 436.741 52.008 437.897 52.1443C439.053 52.2806 440.123 52.5361 441.109 52.9108C442.095 53.2856 442.911 53.7966 443.557 54.4439C444.203 55.0912 444.628 55.9088 444.832 56.8967C445.036 57.8847 444.968 59.0941 444.628 60.5249ZM431.675 58.5831C431.539 57.6292 430.927 57.033 429.839 56.7945C428.751 56.5561 427.732 56.4709 426.78 56.539C426.372 56.8116 426.1 57.3396 425.964 58.1232C425.828 58.9067 425.76 59.7754 425.76 60.7293C425.76 61.6832 425.777 62.6201 425.811 63.5399C425.845 64.4597 425.828 65.1241 425.76 65.5329C425.828 65.9417 426.032 66.2142 426.372 66.3505C426.712 66.4868 427.086 66.5549 427.494 66.5549C427.969 66.5549 428.428 66.5379 428.87 66.5038C429.312 66.4697 429.669 66.4868 429.941 66.5549C430.213 66.2824 430.468 65.8054 430.706 65.1241C430.944 64.4427 431.148 63.6932 431.318 62.8756C431.488 62.058 431.607 61.2404 431.675 60.4227C431.743 59.6051 431.743 58.9919 431.675 58.5831ZM500.596 95.9893C500.868 96.5344 500.8 97.0965 500.392 97.6757C499.984 98.2548 499.508 98.5784 498.964 98.6466C498.284 98.7829 497.468 98.868 496.516 98.9021C495.564 98.9362 494.613 98.9532 493.661 98.9532C492.709 98.9532 491.825 98.9532 491.009 98.9532C490.193 98.9532 489.581 98.9532 489.173 98.9532C488.561 98.9532 488.102 98.834 487.796 98.5955C487.49 98.357 487.252 98.0504 487.082 97.6757C486.912 97.3009 486.793 96.9091 486.725 96.5003C486.657 96.0915 486.589 95.7849 486.521 95.5805C486.453 95.2398 486.419 94.4903 486.419 93.332C486.419 92.1737 486.436 90.8451 486.47 89.3461C486.504 87.8471 486.521 86.246 486.521 84.5426C486.521 82.8392 486.521 81.2721 486.521 79.8413C486.521 78.4104 486.47 77.2181 486.368 76.2642C486.266 75.3103 486.147 74.7652 486.011 74.6289C485.739 74.8333 485.28 75.1399 484.634 75.5487C483.988 75.9576 483.291 76.3664 482.544 76.7752C481.796 77.184 481.099 77.5587 480.453 77.8994C479.807 78.2401 479.348 78.5126 479.076 78.717C478.736 78.9896 478.209 79.2451 477.495 79.4836C476.781 79.722 476.084 79.9775 475.404 80.2501C474.724 80.5226 474.129 80.8463 473.619 81.221C473.109 81.5957 472.854 82.0557 472.854 82.6007C472.786 83.6228 472.769 84.7811 472.803 86.0756C472.837 87.3702 472.905 88.6477 473.007 89.9082C473.109 91.1688 473.245 92.3611 473.415 93.4853C473.585 94.6096 473.738 95.5124 473.874 96.1937C474.146 96.7388 474.197 97.2498 474.027 97.7268C473.857 98.2037 473.5 98.5103 472.956 98.6466C471.392 98.9873 469.863 99.0895 468.367 98.9532C466.871 98.8169 465.137 98.8169 463.165 98.9532C462.621 99.0895 462.162 99.0384 461.788 98.7999C461.414 98.5614 461.108 98.1867 460.87 97.6757C460.632 97.1646 460.462 96.6025 460.36 95.9893C460.258 95.3761 460.207 94.7969 460.207 94.2519C460.139 90.8451 460.037 87.7279 459.901 84.9003C459.765 82.0727 459.663 79.3303 459.595 76.673C459.527 74.0157 459.527 71.2903 459.595 68.4968C459.663 65.7032 459.867 62.6712 460.207 59.4007C460.275 58.6512 460.207 57.9528 460.003 57.3055C459.799 56.6583 459.578 56.045 459.34 55.4659C459.102 54.8867 458.932 54.3587 458.83 53.8817C458.728 53.4048 458.847 52.9619 459.187 52.5531C459.459 52.2806 460.258 52.1102 461.584 52.0421C462.91 51.974 464.321 51.974 465.817 52.0421C467.313 52.1102 468.656 52.1954 469.846 52.2976C471.035 52.3998 471.63 52.4509 471.63 52.4509C472.378 52.4509 472.888 52.6723 473.16 53.1152C473.432 53.5581 473.568 54.0861 473.568 54.6994C473.568 55.3126 473.483 55.9939 473.313 56.7434C473.143 57.4929 472.99 58.1743 472.854 58.7875C472.718 59.4688 472.616 60.4568 472.548 61.7514C472.48 63.0459 472.446 64.4086 472.446 65.8395C472.446 67.2703 472.48 68.616 472.548 69.8765C472.616 71.137 472.718 72.0738 472.854 72.6871C472.99 73.4366 473.602 73.8113 474.69 73.8113C476.322 73.8113 477.75 73.5047 478.974 72.8915C480.198 72.2783 481.269 71.4947 482.187 70.5408C483.104 69.5869 483.903 68.5819 484.583 67.5258C485.263 66.4697 485.841 65.4647 486.317 64.5108C486.317 62.5349 486.283 61.1893 486.215 60.4738C486.147 59.7584 486.079 59.06 486.011 58.3787C485.943 57.6973 485.807 57.0841 485.603 56.539C485.399 55.9939 485.212 55.4829 485.042 55.006C484.872 54.529 484.77 54.1032 484.736 53.7284C484.702 53.3537 484.855 52.9619 485.195 52.5531C485.467 52.2806 486.266 52.1102 487.592 52.0421C488.918 51.974 490.329 51.974 491.825 52.0421C493.321 52.1102 494.664 52.1954 495.853 52.2976C497.043 52.3998 497.638 52.4509 497.638 52.4509C498.386 52.4509 498.879 52.6723 499.117 53.1152C499.355 53.5581 499.474 54.0861 499.474 54.6994C499.474 55.3126 499.389 55.9939 499.219 56.7434C499.049 57.4929 498.93 58.1743 498.862 58.7875C498.658 59.9458 498.505 61.564 498.403 63.6421C498.301 65.7203 498.25 68.0198 498.25 70.5408C498.25 73.0618 498.301 75.668 498.403 78.3593C498.505 81.0507 498.658 83.5717 498.862 85.9223C499.066 88.273 499.321 90.3511 499.627 92.1567C499.933 93.9623 500.256 95.2398 500.596 95.9893Z" fill="white"/>
</svg>
