<svg width="774" height="774" viewBox="0 0 774 774" fill="none" xmlns="http://www.w3.org/2000/svg">
<g clip-path="url(#clip0_520_3265)">
<path fill-rule="evenodd" clip-rule="evenodd" d="M384.904 592.185L386.335 711.773L269.903 509.653L303.938 450.628L384.904 592.185Z" fill="#FFA1CD" fill-opacity="0.3"/>
<path fill-rule="evenodd" clip-rule="evenodd" d="M301.702 446.155L267.515 505.558L153.865 308.555H222.342L301.702 446.155Z" fill="#FFA1CD" fill-opacity="0.3"/>
<path fill-rule="evenodd" clip-rule="evenodd" d="M138.771 164.374L35.9988 104.845L151.149 303.78L219.304 303.78L138.771 164.374Z" fill="#FFA1CD" fill-opacity="0.3"/>
<path fill-rule="evenodd" clip-rule="evenodd" d="M40.8599 103.581L143.225 161.371H301.75L268.463 103.557L40.8599 103.581Z" fill="#FFA1CD" fill-opacity="0.3"/>
<path fill-rule="evenodd" clip-rule="evenodd" d="M273.849 103.557L307.535 161.371H467.155L500.346 103.557H273.849Z" fill="#FFA1CD" fill-opacity="0.3"/>
<path fill-rule="evenodd" clip-rule="evenodd" d="M633.276 161.23L733.431 103.954L506.782 103.954L472.657 161.23L633.276 161.23Z" fill="#FFA1CD" fill-opacity="0.3"/>
<path fill-rule="evenodd" clip-rule="evenodd" d="M635.564 165.686L739.788 104.704L621.323 303.322L555.723 303.322L635.564 165.686Z" fill="#FFA1CD" fill-opacity="0.3"/>
<path fill-rule="evenodd" clip-rule="evenodd" d="M473.336 446.446L552.923 308.217H619.615L507.415 506.004L473.336 446.446Z" fill="#FFA1CD" fill-opacity="0.3"/>
<path fill-rule="evenodd" clip-rule="evenodd" d="M389.798 592.816L388.786 711.773L504.895 508.709L470.999 450.458L389.798 592.816Z" fill="#FFA1CD" fill-opacity="0.3"/>
<path fill-rule="evenodd" clip-rule="evenodd" d="M384.904 482.194V581.91L306.662 446.986L335.966 395.601L384.904 482.194Z" fill="#FFA1CD" fill-opacity="0.6"/>
<path fill-rule="evenodd" clip-rule="evenodd" d="M333.174 390.926L303.676 443.061L227.783 308.555H285.593L333.174 390.926Z" fill="#FFA1CD" fill-opacity="0.6"/>
<path fill-rule="evenodd" clip-rule="evenodd" d="M283.245 303.78L224.597 303.755L145.356 167.317L233.912 219.413L283.245 303.78Z" fill="#FFA1CD" fill-opacity="0.6"/>
<path fill-rule="evenodd" clip-rule="evenodd" d="M149.18 165.274L239.197 217.06H334.142L303.888 165.686L149.18 165.274Z" fill="#FFA1CD" fill-opacity="0.6"/>
<path fill-rule="evenodd" clip-rule="evenodd" d="M339.808 217.059L310.118 165.686H463.702L434.513 217.059H339.808Z" fill="#FFA1CD" fill-opacity="0.6"/>
<path fill-rule="evenodd" clip-rule="evenodd" d="M440.253 217.059L470.491 165.686H625.19L534.924 217.059H440.253Z" fill="#FFA1CD" fill-opacity="0.6"/>
<path fill-rule="evenodd" clip-rule="evenodd" d="M535.557 224.118L628.019 169.877L550.335 303.322H490.137L535.557 224.118Z" fill="#FFA1CD" fill-opacity="0.6"/>
<path fill-rule="evenodd" clip-rule="evenodd" d="M441.551 390.85L488.775 308.217H547.947L470.209 441.669L441.551 390.85Z" fill="#FFA1CD" fill-opacity="0.6"/>
<path fill-rule="evenodd" clip-rule="evenodd" d="M390.099 482.349L389.798 581.91L467.839 445.42L439.551 395.744L390.099 482.349Z" fill="#FFA1CD" fill-opacity="0.6"/>
<path fill-rule="evenodd" clip-rule="evenodd" d="M384.904 374.111V471.38L338.559 390.8L367.327 342.481L384.904 374.111Z" fill="#FFA1CD"/>
<path fill-rule="evenodd" clip-rule="evenodd" d="M336.018 386.36L364.765 337.059L348.215 308.217H290.918L336.018 386.36Z" fill="#FFA1CD"/>
<path fill-rule="evenodd" clip-rule="evenodd" d="M327.542 274.43L244.955 227.094L289.433 303.78L344.484 303.756L327.542 274.43Z" fill="#FFA1CD"/>
<path fill-rule="evenodd" clip-rule="evenodd" d="M332.009 270.69L249.85 222.237L337.042 222.199L364.765 270.536L332.009 270.69Z" fill="#FFA1CD"/>
<path fill-rule="evenodd" clip-rule="evenodd" d="M342.481 221.741L370.08 270.69H402.87L431.851 221.741H342.481Z" fill="#FFA1CD"/>
<path fill-rule="evenodd" clip-rule="evenodd" d="M442.624 270.536L526.855 221.78L438.413 221.741L409.426 270.536H442.624Z" fill="#FFA1CD"/>
<path fill-rule="evenodd" clip-rule="evenodd" d="M446.531 274.166L531.749 225.423L486.756 303.323L428.957 303.299L446.531 274.166Z" fill="#FFA1CD"/>
<path fill-rule="evenodd" clip-rule="evenodd" d="M438.759 386.993L411.01 336.878L426.994 308.242L484.433 308.217L438.759 386.993Z" fill="#FFA1CD"/>
<path fill-rule="evenodd" clip-rule="evenodd" d="M389.798 374.438V471.38L435.65 390.766L407.385 342.481L389.798 374.438Z" fill="#FFA1CD"/>
</g>
<defs>
<clipPath id="clip0_520_3265">
<rect width="732.598" height="732.598" fill="white" transform="translate(21.0518 21.0518)"/>
</clipPath>
</defs>
</svg>
