<svg width="211" height="212" viewBox="0 0 211 212" fill="none" xmlns="http://www.w3.org/2000/svg">
<path d="M120.034 86.9882H127.971L144.158 77.6313H125.998L120.034 86.9882Z" fill="white"/>
<path d="M92.8156 86.9882H116.686L122.635 77.6313H86.8518L92.8156 86.9882Z" fill="white"/>
<path d="M129.391 89.4395L122.426 101.487L131.304 104.805L145.578 80.0977L129.391 89.4395Z" fill="white"/>
<path d="M120.991 103.968L112.74 118.257L118.405 127.151L129.869 107.301L120.991 103.968Z" fill="white"/>
<path d="M96.7616 118.257L89.0938 104.984L80.4993 108.811L91.0817 127.151L96.7616 118.257Z" fill="white"/>
<path d="M111.141 121.022L106.163 129.662V148.36L116.821 129.916L111.141 121.022Z" fill="white"/>
<path d="M65.3281 77.6313L81.5306 86.9882H89.4525L83.5037 77.6313H65.3281Z" fill="white"/>
<path d="M87.6589 102.518L80.1107 89.4395L63.9231 80.0977L79.0793 106.345L87.6589 102.518Z" fill="white"/>
<path d="M103.338 129.662L98.3461 121.022L92.6812 129.916L103.338 148.36V129.662Z" fill="white"/>
<g opacity="0.3">
<path d="M170.66 62.3404L185.696 53.6562H141.274L135.743 62.3404H170.66Z" fill="white"/>
<path d="M106.163 178.957V196.31L131.334 152.71L126.088 144.459L106.163 178.957Z" fill="white"/>
<path d="M66.4492 115.073L58.4824 118.616L76.5683 149.945L81.8147 141.694L66.4492 115.073Z" fill="white"/>
<path d="M127.672 141.694L132.933 149.945L152.634 115.821L144.398 112.742L127.672 141.694Z" fill="white"/>
<path d="M172.079 64.7916L145.833 110.245L154.068 113.339L187.116 56.1074L172.079 64.7916Z" fill="white"/>
<path d="M37.4222 64.7916L22.3855 56.1074L57.0475 116.149L65.0292 112.607L37.4222 64.7916Z" fill="white"/>
<path d="M78.1526 152.71L103.338 196.31V178.957L83.4139 144.459L78.1526 152.71Z" fill="white"/>
<path d="M73.7433 62.3404L68.2129 53.6562H23.8054L38.8421 62.3404H73.7433Z" fill="white"/>
<path d="M132.395 62.3404L137.926 53.6562H71.5759L77.1063 62.3404H132.395Z" fill="white"/>
</g>
<g opacity="0.7">
<path d="M81.695 74.8063L75.5518 65.1655H43.7446L60.4255 74.8063H81.695Z" fill="white"/>
<path d="M124.443 74.8063L130.587 65.1655H78.9148L85.058 74.8063H124.443Z" fill="white"/>
<path d="M59.0055 77.2575L42.3247 67.6167L67.6299 111.441L76.4785 107.495L59.0055 77.2575Z" fill="white"/>
<path d="M106.163 154.025V173.292L124.369 141.769L118.524 132.606L106.163 154.025Z" fill="white"/>
<path d="M77.8984 109.961L69.0498 113.907L83.5334 139.003L89.3777 129.841L77.8984 109.961Z" fill="white"/>
<path d="M120.124 129.841L125.968 139.004L141.707 111.726L132.56 108.303L120.124 129.841Z" fill="white"/>
<path d="M150.481 77.2575L133.995 105.821L143.142 109.244L167.177 67.6167L150.481 77.2575Z" fill="white"/>
<path d="M85.1328 141.769L103.338 173.292V154.025L90.9771 132.606L85.1328 141.769Z" fill="white"/>
<path d="M149.076 74.8063L165.757 65.1655H133.95L127.806 74.8063H149.076Z" fill="white"/>
</g>
<path opacity="0.2" d="M104.489 211.078C107.048 211.078 109.123 209.003 109.123 206.444C109.123 203.885 107.048 201.811 104.489 201.811C101.93 201.811 99.8557 203.885 99.8557 206.444C99.8557 209.003 101.93 211.078 104.489 211.078Z" fill="white"/>
<path opacity="0.2" d="M14.6729 54.8672C17.2319 54.8672 19.3064 52.7927 19.3064 50.2337C19.3064 47.6746 17.2319 45.6001 14.6729 45.6001C12.1138 45.6001 10.0393 47.6746 10.0393 50.2337C10.0393 52.7927 12.1138 54.8672 14.6729 54.8672Z" fill="white"/>
<path opacity="0.2" d="M195.113 54.8672C197.672 54.8672 199.746 52.7927 199.746 50.2337C199.746 47.6746 197.672 45.6001 195.113 45.6001C192.554 45.6001 190.479 47.6746 190.479 50.2337C190.479 52.7927 192.554 54.8672 195.113 54.8672Z" fill="white"/>
<path d="M121.11 14.9288C117.792 13.0604 114.399 11.775 110.677 11.1323V42.9096H99.1384V11.1323C95.4016 11.775 91.9638 13.0604 88.7054 14.9288L84.864 6.52862C90.6335 3.03102 97.6885 1.28223 104.923 1.28223C112.157 1.28223 119.257 3.03102 124.982 6.52862L121.14 14.9288H121.11Z" stroke="white" stroke-miterlimit="10"/>
<path d="M19.8595 112.473L34.6271 103.325L40.1874 112.293L33.2071 116.628L47.616 139.871L54.5963 135.536L60.1864 144.549L45.4188 153.697L42.833 149.541L31.2939 156.701C20.9955 163.083 11.1006 159.959 5.04704 150.199C-1.03638 140.394 0.562946 130.14 10.8764 123.743L22.4154 116.583L19.8595 112.473ZM28.4988 126.388L16.1078 134.071C11.2949 137.046 10.6821 141.141 13.1632 145.147C15.6146 149.108 19.5606 150.378 24.3585 147.389L36.7496 139.706L28.4839 126.373L28.4988 126.388Z" stroke="white" stroke-miterlimit="10"/>
<path d="M183.095 118.317L210 134.998L204.006 144.654L177.102 127.973L168.836 141.305L195.741 157.986L189.747 167.642L155.07 146.133L172.707 117.689L165.622 113.295L171.183 104.327L186.04 113.549L183.095 118.302V118.317Z" stroke="white" stroke-miterlimit="10"/>
</svg>
