<svg width="895" height="447" viewBox="0 0 895 447" fill="none" xmlns="http://www.w3.org/2000/svg">
<mask id="mask0_762_3557" style="mask-type:alpha" maskUnits="userSpaceOnUse" x="0" y="0" width="895" height="447">
<rect width="894.817" height="447" fill="#D9D9D9"/>
</mask>
<g mask="url(#mask0_762_3557)">
<g style="mix-blend-mode:overlay" opacity="0.5">
<path d="M-862.972 1684.07L-55.4779 1239.97M-862.972 1684.07L-862.882 1684.15M-862.972 1684.07L-695.143 1504.17M-55.4779 1239.97L-55.3929 1240.07M-55.4779 1239.97L-52.0596 1150.61M-55.3929 1240.07L-862.882 1684.15M-55.3929 1240.07L-51.9872 1150.68M-55.3929 1240.07C-54.2549 1210.29 -53.1122 1180.49 -51.9743 1150.7L-51.9872 1150.68M-862.882 1684.15L-695.054 1504.25M-695.143 1504.17L-695.054 1504.25M-695.143 1504.17L-52.0596 1150.61M-695.054 1504.25L-51.9872 1150.68M-52.0596 1150.61L-51.9872 1150.68M-21.8093 -224.959L-7.38652 -55.9411M-21.8093 -224.959L-21.8266 -224.964L-21.7369 -224.884L-7.31405 -55.8665L336.365 217.759M-21.8093 -224.959L410.882 120.06M-7.38652 -55.9411C107.193 35.2851 222.011 126.242 336.365 217.759M-7.38652 -55.9411L336.276 217.68M336.365 217.759L410.972 120.14M336.365 217.759L336.276 217.68M336.365 217.759L-7.31843 -55.8491L-21.7413 -224.867L410.972 120.14M336.276 217.68L410.882 120.06M410.882 120.06L410.972 120.14M410.882 120.06L-21.814 -224.941C122.142 -109.534 266.705 5.13029 410.967 120.158L410.877 120.078L410.882 120.06ZM-638.432 1117.57L-518.809 1047.33M-638.432 1117.57L-638.347 1117.67M-638.432 1117.57L-299.658 348.629M-518.809 1047.33L-518.719 1047.41M-518.809 1047.33L-236.463 406.781M-518.719 1047.41L-638.347 1117.67M-518.719 1047.41L-236.373 406.86M-518.719 1047.41C-436.364 860.549 -354.013 673.709 -271.64 486.857C-259.892 460.196 -248.139 433.517 -236.373 406.86M-638.347 1117.67L-299.568 348.709M-299.658 348.629L-299.568 348.709M-299.658 348.629L-236.463 406.781M-299.658 348.629C-278.589 368.069 -257.468 387.45 -236.373 406.86M-299.658 348.629C-313.735 380.602 -327.826 412.553 -341.904 444.526C-440.744 668.888 -539.579 893.232 -638.419 1117.59L-518.791 1047.33L-236.463 406.781M-299.568 348.709L-236.373 406.86M-236.463 406.781L-236.373 406.86M375.591 915.474C395.439 933.736 415.288 952 435.128 970.297C415.279 952.034 395.43 933.771 375.591 915.474ZM375.591 915.474L837.916 661.282L1018.93 649.076M375.591 915.474L375.68 915.553M375.591 915.474L435.043 970.2M435.043 970.2L1018.93 649.076M435.043 970.2L435.133 970.28M1018.93 649.076L1019.02 649.155M1019.02 649.155L435.133 970.28M1019.02 649.155L838.005 661.362L375.68 915.553M435.133 970.28L375.68 915.553M593.769 422.684C680.019 491.341 766.411 559.814 852.493 628.684M593.769 422.684C679.851 491.555 766.243 560.028 852.493 628.684M593.769 422.684L707.029 356.171M593.769 422.684L593.854 422.781M593.769 422.684L852.404 628.605M852.493 628.684L1033.52 616.517M852.493 628.684L852.404 628.605M852.493 628.684L593.854 422.781M707.029 356.171L707.114 356.267M707.029 356.171L1033.43 616.438M593.854 422.781L707.114 356.267M707.114 356.267L1033.52 616.517M852.404 628.605L1033.43 616.438M1033.43 616.438L1033.52 616.517M1033.43 616.438L707.024 356.188C815.617 443.258 924.678 529.75 1033.51 616.534L1033.42 616.455L1033.43 616.438ZM-640.356 1445.46L-50.9534 1121.43M-640.356 1445.46L-640.266 1445.54M-640.356 1445.46L-453.978 1245.68L-47.1551 1022.09M-50.9534 1121.43L-50.8638 1121.51M-50.9534 1121.43L-47.1551 1022.09M-50.8638 1121.51L-640.266 1445.54M-50.8638 1121.51L-47.0701 1022.19M-50.8638 1121.51C-49.5918 1088.4 -48.3374 1055.28 -47.0701 1022.19M-640.266 1445.54L-453.888 1245.76L-47.0701 1022.19M-640.266 1445.54L-453.893 1245.78L-47.0701 1022.19M-47.1551 1022.09L-47.0701 1022.19M-479.77 1024.41L-347.019 946.437M-479.77 1024.41L-479.681 1024.49M-479.77 1024.41L-215.859 425.746M-347.019 946.437L-346.934 946.534M-347.019 946.437L-145.795 490.214M-347.019 946.437L-479.766 1024.39C-391.79 824.838 -303.831 625.281 -215.854 425.728L-215.859 425.746M-346.934 946.534L-479.681 1024.49M-346.934 946.534L-145.71 490.31M-479.681 1024.49L-215.769 425.825L-215.859 425.746M-215.859 425.746L-145.795 490.214M-215.859 425.746C-192.508 447.296 -169.087 468.79 -145.71 490.31M-145.795 490.214L-145.71 490.31M-145.795 490.214L-145.8 490.231L-145.71 490.31M-145.71 490.31L-215.774 425.842L-479.685 1024.51L-346.939 946.551C-279.857 794.472 -212.797 642.406 -145.714 490.327L-145.71 490.31ZM-2.69799 -0.836211L13.2725 186.422C85.2531 243.6 157.366 300.628 229.188 357.985L13.3575 186.519M-2.69799 -0.836211L-2.70263 -0.818878L-2.61294 -0.739493L13.3575 186.519M-2.69799 -0.836211L311.927 249.545M-2.69799 -0.836211C101.968 82.9442 207.103 166.147 312.017 249.624M-2.69799 -0.836211L13.2898 186.427L229.116 357.91M13.3575 186.519L-2.60797 -0.756739L312.017 249.624M13.3575 186.519L229.205 357.989M229.116 357.91L311.927 249.545M229.116 357.91L229.205 357.989M311.927 249.545L312.017 249.624M312.017 249.624L229.205 357.989M-655.537 1156.43L-881.61 1669.57M-655.537 1156.43L-655.469 1156.52M-655.537 1156.43L-535.931 1086.18M-655.537 1156.43L-535.91 1086.16L-713.751 1489.63L-881.61 1669.57M-655.537 1156.43L-655.542 1156.44C-730.902 1327.48 -806.25 1498.53 -881.61 1669.57M-881.61 1669.57L-881.52 1669.65M-881.61 1669.57L-713.755 1489.64L-535.931 1086.18M-881.52 1669.65L-655.469 1156.52M-881.52 1669.65L-713.666 1489.72M-655.469 1156.52L-535.842 1086.26M-535.931 1086.18L-535.842 1086.26M-535.842 1086.26L-713.666 1489.72M-535.842 1086.26L-535.824 1086.26C-595.106 1220.75 -654.384 1355.23 -713.666 1489.72M-282.476 309.628C-261.382 329.039 -240.27 348.454 -219.201 367.894M-282.476 309.628C-261.408 329.069 -240.296 348.484 -219.201 367.894M-282.476 309.628L-54.9613 -206.825M-282.476 309.628L-282.392 309.725M-282.476 309.628L-219.286 367.798L-40.5038 -37.7981M-219.201 367.894L-40.4141 -37.7186L-54.8588 -206.724L-54.9485 -206.803L-40.5038 -37.7981M-219.201 367.894L-219.291 367.815C-159.69 232.612 -100.105 97.4047 -40.5038 -37.7981M-219.201 367.894L-282.392 309.725M-219.201 367.894L-40.4314 -37.7232L-54.8762 -206.728M-40.5038 -37.7981L-54.9613 -206.825M-54.9613 -206.825L-54.8762 -206.728M-282.392 309.725L-54.8762 -206.728M355.02 232.614C427.703 290.479 500.537 348.199 573.079 406.249C500.395 348.383 427.562 290.663 355.02 232.614ZM355.02 232.614L429.626 134.995M355.02 232.614L355.109 232.693M355.02 232.614L572.994 406.152M429.626 134.995L429.716 135.074M429.626 134.995L686.276 339.626M429.626 134.995C515.048 203.43 600.776 271.484 686.361 339.722M355.109 232.693L429.716 135.074M355.109 232.693L573.084 406.231M429.716 135.074L686.361 339.722M572.994 406.152L686.276 339.626M572.994 406.152L573.084 406.231M686.276 339.626L686.361 339.722M686.276 339.626L686.272 339.643L686.361 339.722M686.361 339.722L573.084 406.231M290.094 836.756C312.149 857.071 334.229 877.355 356.279 897.687C334.225 877.373 312.144 857.088 290.094 836.756ZM290.094 836.756L577.41 678.837L778.784 665.261M290.094 836.756L290.166 836.831M290.094 836.756L356.177 897.586M356.177 897.586L778.784 665.261M356.177 897.586L356.262 897.683M778.784 665.261L778.874 665.341M778.874 665.341L356.262 897.683M778.874 665.341L577.5 678.916L290.166 836.831M356.262 897.683L290.166 836.831M556.809 444.403L430.994 518.296M556.809 444.403L556.894 444.499M556.809 444.403L793.272 632.585M430.994 518.296L431.084 518.376M430.994 518.296L591.903 646.143M431.084 518.376L556.894 444.499M431.084 518.376L591.993 646.222L793.362 632.664L556.894 444.499M591.903 646.143L793.29 632.589L793.379 632.669L592.01 646.227C538.342 603.591 484.59 561.061 431.011 518.301L591.921 646.147L591.903 646.143ZM591.903 646.143L793.272 632.585M793.272 632.585L556.792 444.398C635.469 507.364 714.5 569.907 793.345 632.66L793.255 632.58L793.272 632.585ZM-18.941 1132.39L-22.3594 1221.75M-18.941 1132.39L-18.8514 1132.47M-18.941 1132.39L338.505 935.863M-22.3594 1221.75L-22.2744 1221.85M-22.3594 1221.75L397.98 990.578M-22.2744 1221.85L-18.8514 1132.47M-22.2744 1221.85L398.065 990.674M-18.8514 1132.47L338.595 935.943M338.505 935.863L338.595 935.943M338.505 935.863L397.98 990.578M338.595 935.943L398.065 990.674M397.98 990.578L398.065 990.674M397.98 990.578L338.51 935.846C358.332 954.139 378.203 972.39 398.069 990.657L397.98 990.578ZM-496.893 1063.26L-658.963 1430.91M-496.893 1063.26L-496.803 1063.34M-496.893 1063.26L-364.142 985.287M-496.893 1063.26L-364.147 985.305L-472.563 1231.12L-658.963 1430.91M-496.893 1063.26C-550.905 1185.81 -604.934 1308.36 -658.963 1430.91M-658.963 1430.91L-658.89 1430.99M-658.963 1430.91L-472.576 1231.1L-364.142 985.287M-658.89 1430.99L-496.803 1063.34M-658.89 1430.99L-472.491 1231.2L-364.074 985.38M-658.89 1430.99L-496.82 1063.33L-364.074 985.38M-658.89 1430.99L-472.486 1231.18C-436.346 1149.23 -400.21 1067.31 -364.069 985.362L-364.074 985.38M-496.803 1063.34L-364.074 985.38M-364.142 985.287L-364.074 985.38M-198.687 386.779C-175.31 408.299 -151.898 429.828 -128.543 451.361C-151.92 429.841 -175.332 408.312 -198.687 386.779ZM-198.687 386.779L-35.7937 17.2944M-198.687 386.779L-198.597 386.859M-198.687 386.779L-128.615 451.286L-19.7886 204.562M-19.7886 204.562L-35.7982 17.3118L-35.7085 17.3913M-19.7886 204.562L-19.7932 204.58C-56.0686 286.821 -92.3441 369.062 -128.619 451.304L-128.53 451.383L-19.7036 204.659L-35.7085 17.3913M-19.7886 204.562L-35.7937 17.2944M-35.7085 17.3913L-198.597 386.859M-35.7085 17.3913L-35.7937 17.2944M-35.7085 17.3913L-19.6988 204.642L-128.525 451.366L-198.597 386.859M-308.003 923.532L-179.23 847.916M-308.003 923.532L-307.918 923.629M-308.003 923.532L-125.203 509.156M-308.003 923.532C-247.066 785.414 -186.141 647.274 -125.203 509.156M-179.23 847.916L-179.158 847.991M-179.23 847.916L-57.307 571.638M-179.23 847.916L-57.2895 571.642L-125.203 509.156M-179.158 847.991L-307.918 923.629M-179.158 847.991L-57.222 571.734M-307.918 923.629L-125.118 509.253L-125.203 509.156M-57.307 571.638L-57.222 571.734M-57.307 571.638L-125.221 509.152C-102.578 530.031 -79.8865 550.868 -57.2343 571.712L-57.3241 571.633L-57.307 571.638ZM-57.222 571.734L-125.136 509.248L-307.935 923.624L-179.162 848.008C-138.51 755.919 -97.8745 663.824 -57.222 571.734ZM247.885 372.814C302.028 415.818 356.255 458.715 410.287 501.856C356.144 458.852 301.917 415.955 247.885 372.814ZM247.885 372.814L330.675 264.462M247.885 372.814L247.958 372.889M247.885 372.814L410.18 501.771M330.675 264.462L330.765 264.541M330.675 264.462L536.017 427.865M330.675 264.462C399.024 319.113 467.62 373.461 536.102 427.962L536.012 427.883L536.017 427.865M247.958 372.889L330.765 264.541M247.958 372.889L410.269 501.851M330.765 264.541L536.106 427.945M410.18 501.771L536.017 427.865M410.18 501.771L410.269 501.851M536.017 427.865L536.106 427.945M536.106 427.945L410.269 501.851M-399.186 1186.95L-46.0396 992.874M-399.186 1186.95L-399.113 1187.02M-399.186 1186.95L-218.279 993.027L-42.3536 896.371M-46.0396 992.874L-45.9546 992.971M-46.0396 992.874L-42.3536 896.371M-45.9546 992.971L-399.113 1187.02M-45.9546 992.971L-42.2686 896.468M-399.113 1187.02L-218.189 993.107M-42.3536 896.371L-42.2686 896.468M-42.2686 896.468L-218.189 993.107M-42.2686 896.468L-42.2641 896.451C-43.4854 928.614 -44.7286 960.79 -45.9499 992.954L-399.096 1187.03L-218.189 993.107M-14.0191 1003.88L-17.813 1103.2M-14.0191 1003.88L-13.9294 1003.96M-14.0191 1003.88L252.97 857.154M-17.813 1103.2L-17.728 1103.29M-17.813 1103.2L319.088 917.993M-17.728 1103.29L-13.9294 1003.96M-17.728 1103.29L319.177 918.073M-13.9294 1003.96L253.06 857.233M252.97 857.154L253.06 857.233M252.97 857.154L319.088 917.993M252.97 857.154C275.02 877.486 297.101 897.771 319.177 918.073M253.06 857.233L319.177 918.073M319.088 917.993L319.177 918.073M17.9712 241.42L33.4516 422.778C63.8008 446.85 94.2248 470.85 124.516 494.999L33.5367 422.875L18.0562 241.517L17.9666 241.437L17.9712 241.42ZM17.9712 241.42L204.771 389.759M17.9712 241.42C80.1347 291.067 142.555 340.375 204.861 389.838M17.9712 241.42L33.4563 422.761L124.431 494.903M124.431 494.903L204.771 389.759M124.431 494.903L124.504 494.977M204.771 389.759L204.861 389.838M204.861 389.838L124.504 494.977M204.861 389.838L18.0611 241.5L33.5243 422.853L124.504 494.977M206.425 759.71C227.856 779.451 249.331 799.167 270.741 818.921C249.309 799.18 227.834 779.464 206.425 759.71ZM206.425 759.71L322.35 696.019L518.167 682.822M206.425 759.71L206.492 759.803M206.425 759.71L270.651 818.842M270.651 818.842L518.167 682.822M270.651 818.842L270.737 818.938M518.167 682.822L518.252 682.919M518.252 682.919L270.737 818.938M518.252 682.919L322.435 696.116L206.492 759.803M270.737 818.938L206.492 759.803M393.995 540.022L271.842 611.772M393.995 540.022L394.084 540.102M393.995 540.022L532.642 650.124M393.995 540.022C440.13 576.886 486.486 613.476 532.732 650.203M271.842 611.772L271.915 611.847M271.842 611.772L336.812 663.298M271.915 611.847L394.084 540.102M271.915 611.847L336.902 663.378M394.084 540.102L532.732 650.203M336.812 663.298L532.642 650.124M336.812 663.298L271.825 611.767C293.481 629.016 315.215 646.176 336.902 663.378M532.642 650.124L532.732 650.203M532.732 650.203L336.902 663.378M143.189 509.785C179.152 538.302 215.173 566.741 251.079 595.335M143.189 509.785C179.094 538.379 215.115 566.818 251.079 595.335M143.189 509.785L223.541 404.662M143.189 509.785L143.278 509.864M143.189 509.785L250.989 595.256M251.079 595.335L373.27 523.577M251.079 595.335L250.989 595.256M251.079 595.335L143.278 509.864M223.541 404.662L223.631 404.742M223.541 404.662L373.18 523.498M143.278 509.864L223.631 404.742M223.631 404.742L373.27 523.577M250.989 595.256L373.18 523.498M373.18 523.498L373.27 523.577M373.18 523.498L223.524 404.658C273.314 444.443 323.347 483.942 373.253 523.573L373.163 523.493L373.18 523.498ZM-9.18353 878.168L-12.8866 974.667M-9.18353 878.168L-9.11113 878.243M-9.18353 878.168L169.261 780.117M-12.8866 974.667L-12.7969 974.746M-12.8866 974.667L233.522 839.257M-12.7969 974.746L-9.11113 878.243M-12.7969 974.746L233.612 839.336M-9.11113 878.243L169.346 780.213M169.261 780.117L169.346 780.213M169.261 780.117L233.522 839.257M169.346 780.213L233.612 839.336M233.522 839.257L233.612 839.336M233.522 839.257L169.256 780.134C190.683 799.892 212.158 819.608 233.59 839.349L233.5 839.27L233.522 839.257ZM-108.041 470.224C-85.3759 491.091 -62.7065 511.94 -40.0464 532.824M-108.041 470.224C-85.3805 491.108 -62.7112 511.958 -40.0464 532.824M-108.041 470.224L-15.0852 259.542M-108.041 470.224L-107.951 470.304M-108.041 470.224L-40.136 532.745L0.417119 440.887M-40.0464 532.824L-107.951 470.304M-40.0464 532.824L0.485033 440.98L-15.0128 259.617M0.417119 440.887L-15.0852 259.542M0.417119 440.887C-13.0918 471.497 -26.6054 502.123 -40.1143 532.732L-40.0247 532.812L0.506833 440.967L-14.9955 259.622L-15.0852 259.542M-15.0852 259.542L-15.0128 259.617M-107.951 470.304L-15.0128 259.617M-417.783 1172.37L-236.833 978.421M-417.783 1172.37L-417.694 1172.45M-417.783 1172.37L-325.143 962.377M-417.783 1172.37L-236.85 978.416L-196.387 886.757M-417.783 1172.37C-386.896 1102.37 -356.03 1032.38 -325.143 962.377M-236.833 978.421L-236.744 978.501M-236.833 978.421L-196.387 886.757M-236.744 978.501L-417.694 1172.45M-236.744 978.501L-196.297 886.836M-417.694 1172.45L-325.058 962.474M-417.694 1172.45L-325.053 962.457L-196.297 886.836M-417.694 1172.45L-236.761 978.496L-196.297 886.836M-325.143 962.377L-325.058 962.474M-325.143 962.377L-196.387 886.757M-325.058 962.474L-196.297 886.836M-196.387 886.757L-196.297 886.836" stroke="white" stroke-width="1.24" stroke-miterlimit="10"/>
</g>
</g>
</svg>
