<svg viewBox="0 0 1537 762" fill="none" xmlns="http://www.w3.org/2000/svg">
<g clip-path="url(#clip0_962_3264)">
<path opacity="0.5" d="M1536.68 812.891L678.203 288.09M1536.68 812.891L1536.72 812.768M1536.68 812.891L1268.91 747.391M678.203 288.09L678.259 287.963M678.203 288.09L585.332 329.387M678.259 287.963L1536.72 812.768M678.259 287.963L585.372 329.283M678.259 287.963C647.308 301.728 616.338 315.496 585.388 329.26L585.372 329.283M1536.72 812.768L1268.94 747.269M1268.91 747.391L1268.94 747.269M1268.91 747.391L585.332 329.387M1268.94 747.269L585.372 329.283M585.332 329.387L585.372 329.283M-832.998 985.735L-667.834 888.337M-832.998 985.735L-832.994 985.754L-832.958 985.631L-667.795 888.233L-561.262 434.729M-832.998 985.735L-698.338 414.513M-667.834 888.337C-632.316 737.142 -597.191 585.86 -561.262 434.729M-667.834 888.337L-561.298 434.851M-561.262 434.729L-698.302 414.391M-561.262 434.729L-561.298 434.851M-561.262 434.729L-667.775 888.228L-832.938 985.627L-698.302 414.391M-561.298 434.851L-698.338 414.513M-698.338 414.513L-698.302 414.391M-698.338 414.513L-832.978 985.731C-787.544 795.377 -743.173 604.833 -698.281 414.387L-698.318 414.509L-698.338 414.513ZM846.08 887.335L714.358 811.808M846.08 887.335L846.136 887.208M846.08 887.335L-108.391 956.993M714.358 811.808L714.394 811.685M714.358 811.808L-80.8066 869.705M714.394 811.685L846.136 887.208M714.394 811.685L-80.7706 869.582M714.394 811.685C482.437 828.583 250.5 845.477 18.5389 862.357C-14.5563 864.77 -47.6714 867.187 -80.7706 869.582M846.136 887.208L-108.355 956.871M-108.391 956.993L-108.355 956.871M-108.391 956.993L-80.8066 869.705M-108.391 956.993C-99.1403 927.866 -89.9774 898.719 -80.7706 869.582M-108.391 956.993C-68.7078 954.089 -29.0408 951.207 10.6424 948.302C289.133 927.971 567.605 907.644 846.096 887.312L714.354 811.789L-80.8066 869.705M-108.355 956.871L-80.7706 869.582M-80.8066 869.705L-80.7706 869.582M130.741 51.4214C139.403 24.006 148.065 -3.40955 156.767 -30.8336C148.105 -3.41817 139.443 23.9973 130.741 51.4214ZM130.741 51.4214L-360.702 -249.086L-464.05 -410.183M130.741 51.4214L130.777 51.299M130.741 51.4214L156.711 -30.7072M156.711 -30.7072L-464.05 -410.183M156.711 -30.7072L156.747 -30.8296M-464.05 -410.183L-464.014 -410.306M-464.014 -410.306L156.747 -30.8296M-464.014 -410.306L-360.666 -249.209L130.777 51.299M156.747 -30.8296L130.777 51.299M-481.484 95.075C-454.762 -18.7309 -428.298 -132.576 -401.273 -246.333M-481.484 95.075C-454.459 -18.6819 -427.995 -132.527 -401.273 -246.333M-481.484 95.075L-606.204 23.5672M-481.484 95.075L-481.428 94.9484M-481.484 95.075L-401.309 -246.21M-401.273 -246.333L-504.585 -407.456M-401.273 -246.333L-401.309 -246.21M-401.273 -246.333L-481.428 94.9484M-606.204 23.5672L-606.149 23.4405M-606.204 23.5672L-504.621 -407.334M-481.428 94.9484L-606.149 23.4405M-606.149 23.4405L-504.585 -407.456M-401.309 -246.21L-504.621 -407.334M-504.621 -407.334L-504.585 -407.456M-504.621 -407.334L-606.185 23.5632C-571.899 -120.035 -538.437 -263.78 -504.565 -407.461L-504.602 -407.338L-504.621 -407.334ZM1181.5 726.003L555.012 342.881M1181.5 726.003L1181.54 725.88M1181.5 726.003L884.133 653.264L451.775 388.79M555.012 342.881L555.048 342.759M555.012 342.881L451.775 388.79M555.048 342.759L1181.54 725.88M555.048 342.759L451.831 388.664M555.048 342.759C520.634 358.056 486.225 373.371 451.831 388.664M1181.54 725.88L884.169 653.142L451.831 388.664M1181.54 725.88L884.189 653.137L451.831 388.664M451.775 388.79L451.831 388.664M671.378 787.156L525.183 703.348M671.378 787.156L671.414 787.034M671.378 787.156L-71.8079 841.243M525.183 703.348L525.239 703.221M525.183 703.348L-41.2303 744.469M525.183 703.348L671.358 787.161C423.628 805.184 175.902 823.224 -71.828 841.247L-71.8079 841.243M525.239 703.221L671.414 787.034M525.239 703.221L-41.1744 744.342M671.414 787.034L-71.7716 841.12L-71.8079 841.243M-71.8079 841.243L-41.2303 744.469M-71.8079 841.243C-61.5517 808.958 -51.3868 776.636 -41.1744 744.342M-41.2303 744.469L-41.1744 744.342M-41.2303 744.469L-41.2106 744.465L-41.1744 744.342M-41.1744 744.342L-71.7519 841.116L671.434 787.03L525.259 703.217C336.446 716.919 147.658 730.636 -41.1547 744.338L-41.1744 744.342ZM-613.979 856.595L-430.986 748.693C-408.808 653.776 -386.848 558.81 -364.407 463.951L-430.93 748.566M-613.979 856.595L-613.959 856.591L-613.923 856.468L-430.93 748.566M-613.979 856.595L-516.568 441.485M-613.979 856.595C-581.077 718.259 -549 579.777 -516.532 441.363M-613.979 856.595L-430.991 748.675L-364.447 464.055M-430.93 748.566L-613.943 856.472L-516.532 441.363M-430.93 748.566L-364.411 463.932M-364.447 464.055L-516.568 441.485M-364.447 464.055L-364.411 463.932M-516.568 441.485L-516.532 441.363M-516.532 441.363L-364.411 463.932M894.303 883.803L1531.25 837.316M894.303 883.803L894.363 883.695M894.303 883.803L762.585 808.294M894.303 883.803L762.561 808.28L1263.41 771.811L1531.25 837.316M894.303 883.803L894.323 883.799C1106.63 868.312 1318.95 852.803 1531.25 837.316M1531.25 837.316L1531.29 837.194M1531.25 837.316L1263.43 771.807L762.585 808.294M1531.29 837.194L894.363 883.695M1531.29 837.194L1263.47 771.685M894.363 883.695L762.621 808.172M762.585 808.294L762.621 808.172M762.621 808.172L1263.47 771.685M762.621 808.172L762.617 808.153C929.575 795.996 1096.51 783.842 1263.47 771.685M-156.801 960.527C-147.594 931.391 -138.391 902.235 -129.14 873.108M-156.801 960.527C-147.55 931.4 -138.347 902.245 -129.14 873.108M-156.801 960.527L-797.853 1007.33M-156.801 960.527L-156.745 960.401M-156.801 960.527L-129.196 873.235L-632.698 909.895M-129.14 873.108L-632.662 909.773L-797.801 1007.19L-797.837 1007.31L-632.698 909.895M-129.14 873.108L-129.177 873.23C-297.018 885.446 -464.856 897.68 -632.698 909.895M-129.14 873.108L-156.745 960.401M-129.14 873.108L-632.658 909.791L-797.797 1007.2M-632.698 909.895L-797.853 1007.33M-797.853 1007.33L-797.797 1007.2M-156.745 960.401L-797.797 1007.2M-555.477 410.112C-532.95 314.203 -510.646 218.228 -487.86 122.358C-510.387 218.267 -532.691 314.242 -555.477 410.112ZM-555.477 410.112L-692.516 389.774M-555.477 410.112L-555.441 409.989M-555.477 410.112L-487.916 122.484M-692.516 389.774L-692.48 389.652M-692.516 389.774L-612.66 50.9627M-692.516 389.774C-665.604 276.843 -639.234 163.82 -612.604 50.8361M-555.441 409.989L-692.48 389.652M-555.441 409.989L-487.88 122.362M-692.48 389.652L-612.604 50.8361M-487.916 122.484L-612.66 50.9627M-487.916 122.484L-487.88 122.362M-612.66 50.9627L-612.604 50.8361M-612.66 50.9627L-612.64 50.9586L-612.604 50.8361M-612.604 50.8361L-487.88 122.362M93.3773 169.536C103.025 139.063 112.628 108.58 122.296 78.1031C112.648 108.576 103.045 139.059 93.3773 169.536ZM93.3773 169.536L-211.983 -17.2426L-326.95 -196.458M93.3773 169.536L93.4176 169.432M93.3773 169.536L122.244 78.2479M122.244 78.2479L-326.95 -196.458M122.244 78.2479L122.3 78.1213M-326.95 -196.458L-326.914 -196.58M-326.914 -196.58L122.3 78.1213M-326.914 -196.58L-211.947 -17.3649L93.4176 169.432M122.3 78.1213L93.4176 169.432M-440.771 118.404L-302.219 197.835M-440.771 118.404L-440.715 118.277M-440.771 118.404L-367.557 -193.583M-302.219 197.835L-302.182 197.713M-302.219 197.835L-252.61 -14.3629M-302.182 197.713L-440.715 118.277M-302.182 197.713L-252.574 -14.4853L-367.521 -193.705L-440.715 118.277M-252.61 -14.3629L-367.561 -193.601L-367.525 -193.723L-252.578 -14.5035C-269.119 56.2684 -285.51 127.065 -302.223 197.817L-252.614 -14.3811L-252.61 -14.3629ZM-252.61 -14.3629L-367.557 -193.583M-367.557 -193.583L-440.767 118.422C-416.046 14.4408 -391.935 -89.6566 -367.517 -193.687L-367.553 -193.564L-367.557 -193.583ZM550.12 307.864L642.99 266.567M550.12 307.864L550.156 307.742M550.12 307.864L170.162 75.5266M642.99 266.567L643.046 266.44M642.99 266.567L196.108 -6.61588M643.046 266.44L550.156 307.742M643.046 266.44L196.164 -6.74255M550.156 307.742L170.198 75.4043M170.162 75.5266L170.198 75.4043M170.162 75.5266L196.108 -6.61588M170.198 75.4043L196.164 -6.74255M196.108 -6.61588L196.164 -6.74255M196.108 -6.61588L170.142 75.5308C178.848 48.1249 187.486 20.6955 196.144 -6.73825L196.108 -6.61588ZM719.605 783.643L1176.01 750.423M719.605 783.643L719.641 783.52M719.605 783.643L573.41 699.834M719.605 783.643L573.43 699.83L878.615 677.67L1176.01 750.423M719.605 783.643C871.737 772.557 1023.87 761.49 1176.01 750.423M1176.01 750.423L1176.05 750.318M1176.01 750.423L878.599 677.692L573.41 699.834M1176.05 750.318L719.641 783.52M1176.05 750.318L878.655 677.566L573.47 699.726M1176.05 750.318L719.645 783.539L573.47 699.726M1176.05 750.318L878.635 677.57C776.9 684.958 675.185 692.342 573.45 699.73L573.47 699.726M719.641 783.52L573.47 699.726M573.41 699.834L573.47 699.726M-120.178 844.769C-109.966 812.475 -99.7612 780.144 -89.5249 747.864C-99.7373 780.158 -109.942 812.489 -120.178 844.769ZM-120.178 844.769L-578.866 878.14M-120.178 844.769L-120.142 844.646M-120.178 844.769L-89.565 747.968L-395.881 770.201M-395.881 770.201L-578.846 878.135L-578.81 878.013M-395.881 770.201L-395.861 770.197C-293.756 762.786 -191.65 755.375 -89.5449 747.963L-89.5089 747.841L-395.825 770.075L-578.81 878.013M-395.881 770.201L-578.866 878.14M-578.81 878.013L-120.142 844.646M-578.81 878.013L-578.866 878.14M-578.81 878.013L-395.845 770.079L-89.5289 747.845L-120.142 844.646M482.227 678.711L340.432 597.405M482.227 678.711L482.283 678.584M482.227 678.711L-32.2479 716.029M482.227 678.711C310.74 691.143 139.238 703.597 -32.2479 716.029M340.432 597.405L340.472 597.301M340.432 597.405L-2.60822 622.245M340.432 597.405L-2.61218 622.227L-32.2479 716.029M340.472 597.301L482.283 678.584M340.472 597.301L-2.55225 622.119M482.283 678.584L-32.192 715.903L-32.2479 716.029M-2.60822 622.245L-2.55225 622.119M-2.60822 622.245L-32.2441 716.048C-22.3163 684.75 -12.4563 653.43 -2.56836 622.141L-2.60443 622.264L-2.60822 622.245ZM-2.55225 622.119L-32.188 715.921L482.287 678.602L340.492 597.296C226.143 605.564 111.797 613.851 -2.55225 622.119ZM-358.669 439.307C-341.991 367.913 -325.464 296.496 -308.591 225.136C-325.269 296.53 -341.796 367.947 -358.669 439.307ZM-358.669 439.307L-510.766 416.751M-358.669 439.307L-358.629 439.202M-358.669 439.307L-308.623 225.277M-510.766 416.751L-510.73 416.629M-510.766 416.751L-447.199 145.832M-510.766 416.751C-489.341 326.444 -468.349 236.06 -447.143 145.705L-447.179 145.827L-447.199 145.832M-358.629 439.202L-510.73 416.629M-358.629 439.202L-308.587 225.155M-510.73 416.629L-447.163 145.71M-308.623 225.277L-447.199 145.832M-308.623 225.277L-308.587 225.155M-447.199 145.832L-447.163 145.71M-447.163 145.71L-308.587 225.155M796.71 631.88L421.414 402.293M796.71 631.88L796.75 631.776M796.71 631.88L508.06 561.28L321.126 446.895M421.414 402.293L421.47 402.166M421.414 402.293L321.126 446.895M421.47 402.166L796.75 631.776M421.47 402.166L321.182 446.768M796.75 631.776L508.096 561.158M321.126 446.895L321.182 446.768M321.182 446.768L508.096 561.158M321.182 446.768L321.162 446.773C354.584 431.901 388.029 417.043 421.45 402.171L796.746 631.758L508.096 561.158M416.558 367.249L519.776 321.344M416.558 367.249L416.594 367.127M416.558 367.249L132.826 193.673M519.776 321.344L519.832 321.218M519.776 321.344L161.684 102.348M519.832 321.218L416.594 367.127M519.832 321.218L161.72 102.226M416.594 367.127L132.862 193.551M132.826 193.673L132.862 193.551M132.826 193.673L161.684 102.348M132.826 193.673C142.493 163.196 152.097 132.713 161.72 102.226M132.862 193.551L161.72 102.226M161.684 102.348L161.72 102.226M-377.246 716.995L-200.026 612.481C-190.711 572.479 -181.508 532.443 -172.085 492.456L-199.97 612.354L-377.19 716.868L-377.226 716.991L-377.246 716.995ZM-377.246 716.995L-319.735 470.694M-377.246 716.995C-357.819 634.89 -338.867 552.716 -319.699 470.571M-377.246 716.995L-200.046 612.485L-172.141 492.582M-172.141 492.582L-319.735 470.694M-172.141 492.582L-172.101 492.478M-319.735 470.694L-319.699 470.571M-319.699 470.571L-172.101 492.478M-319.699 470.571L-377.21 716.872L-199.986 612.377L-172.101 492.478M56.802 285.132C66.177 255.519 75.5041 225.879 84.903 196.281C75.528 225.893 66.2009 255.533 56.802 285.132ZM56.802 285.132L-66.3776 209.759L-178.168 35.4863M56.802 285.132L56.8621 285.023M56.802 285.132L84.8671 196.403M84.8671 196.403L-178.168 35.4863M84.8671 196.403L84.9231 196.276M-178.168 35.4863L-178.112 35.3596M-178.112 35.3596L84.9231 196.276M-178.112 35.3596L-66.3216 209.632L56.8621 285.023M84.9231 196.276L56.8621 285.023M-261.478 221.196L-126.951 298.311M-261.478 221.196L-261.442 221.074M-261.478 221.196L-218.791 38.3847M-261.478 221.196C-247.042 160.252 -232.996 99.2402 -218.755 38.2623M-126.951 298.311L-126.911 298.207M-126.951 298.311L-107.017 212.679M-126.911 298.207L-261.442 221.074M-126.911 298.207L-106.981 212.557M-261.442 221.074L-218.755 38.2623M-107.017 212.679L-218.791 38.3847M-107.017 212.679L-126.948 298.329C-120.227 269.75 -113.638 241.142 -106.981 212.557M-218.791 38.3847L-218.755 38.2623M-218.755 38.2623L-106.981 212.557M-166.38 467.857C-155.35 420.459 -144.428 373.046 -133.291 325.663M-166.38 467.857C-155.243 420.474 -144.321 373.061 -133.291 325.663M-166.38 467.857L-313.958 445.945M-166.38 467.857L-166.344 467.735M-166.38 467.857L-133.327 325.785M-133.291 325.663L-267.845 248.516M-133.291 325.663L-133.327 325.785M-133.291 325.663L-166.344 467.735M-313.958 445.945L-313.922 445.823M-313.958 445.945L-267.882 248.638M-166.344 467.735L-313.922 445.823M-313.922 445.823L-267.845 248.516M-133.327 325.785L-267.882 248.638M-267.882 248.638L-267.845 248.516M-267.882 248.638L-313.954 445.964C-298.373 380.191 -283.207 314.336 -267.842 248.534L-267.878 248.656L-267.882 248.638ZM285.902 425.318L386.194 380.734M285.902 425.318L285.942 425.214M285.902 425.318L96.2791 309.301M386.194 380.734L386.23 380.612M386.194 380.734L124.336 220.536M386.23 380.612L285.942 425.214M386.23 380.612L124.372 220.414M285.942 425.214L96.3351 309.174M96.2791 309.301L96.3351 309.174M96.2791 309.301L124.336 220.536M96.3351 309.174L124.372 220.414M124.336 220.536L124.372 220.414M124.336 220.536L96.2991 309.297C105.694 279.68 115.021 250.04 124.396 220.427L124.36 220.55L124.336 220.536ZM-80.5784 719.547C-70.6745 688.235 -60.7906 656.929 -50.8668 625.613M-80.5784 719.547C-70.6546 688.231 -60.7707 656.924 -50.8668 625.613M-80.5784 719.547L-342.161 738.508M-80.5784 719.547L-80.5424 719.424M-80.5784 719.547L-50.9031 625.736L-164.965 633.98M-50.8668 625.613L-80.5424 719.424M-50.8668 625.613L-164.905 633.871L-342.121 738.403M-164.965 633.98L-342.161 738.508M-164.965 633.98C-126.959 631.229 -88.9331 628.473 -50.9268 625.722L-50.8906 625.599L-164.929 633.857L-342.125 738.385L-342.161 738.508M-342.161 738.508L-342.121 738.403M-80.5424 719.424L-342.121 738.403M791.176 656.308L502.478 585.681M791.176 656.308L791.212 656.186M791.176 656.308L530.457 675.216M791.176 656.308L502.482 585.699L388.666 593.928M791.176 656.308C704.262 662.606 617.372 668.918 530.457 675.216M502.478 585.681L502.514 585.558M502.478 585.681L388.666 593.928M502.514 585.558L791.212 656.186M502.514 585.558L388.702 593.805M791.212 656.186L530.513 675.089M791.212 656.186L530.493 675.093L388.702 593.805M791.212 656.186L502.518 585.576L388.702 593.805M530.457 675.216L530.513 675.089M530.457 675.216L388.666 593.928M530.513 675.089L388.702 593.805M388.666 593.928L388.702 593.805" stroke="#FF6883" stroke-width="1.24" stroke-miterlimit="10"/>
</g>
<defs>
<clipPath id="clip0_962_3264">
<rect width="1545" height="762" fill="white"/>
</clipPath>
</defs>
</svg>
