<svg width="896" height="448" viewBox="0 0 896 448" fill="none" xmlns="http://www.w3.org/2000/svg">
<g mask="url(#mask0_762_3557)">
<g style="mix-blend-mode:overlay" opacity="0.5">
<path d="M-862.694 1684.42L-55.2001 1240.33M-862.694 1684.42L-862.604 1684.5M-862.694 1684.42L-694.866 1504.53M-55.2001 1240.33L-55.115 1240.42M-55.2001 1240.33L-51.7817 1150.96M-55.115 1240.42L-862.604 1684.5M-55.115 1240.42L-51.7094 1151.04M-55.115 1240.42C-53.9771 1210.64 -52.8344 1180.84 -51.6965 1151.06L-51.7094 1151.04M-862.604 1684.5L-694.776 1504.61M-694.866 1504.53L-694.776 1504.61M-694.866 1504.53L-51.7817 1150.96M-694.776 1504.61L-51.7094 1151.04M-51.7817 1150.96L-51.7094 1151.04M-21.5315 -224.603L-7.10869 -55.5852M-21.5315 -224.603L-21.5487 -224.608L-21.4591 -224.528L-7.03621 -55.5105L336.643 218.115M-21.5315 -224.603L411.16 120.416M-7.10869 -55.5852C107.471 35.641 222.289 126.598 336.643 218.115M-7.10869 -55.5852L336.554 218.036M336.643 218.115L411.249 120.496M336.643 218.115L336.554 218.036M336.643 218.115L-7.04059 -55.4931L-21.4635 -224.511L411.249 120.496M336.554 218.036L411.16 120.416M411.16 120.416L411.249 120.496M411.16 120.416L-21.5361 -224.586C122.42 -109.178 266.983 5.48625 411.245 120.514L411.155 120.434L411.16 120.416ZM-638.154 1117.93L-518.531 1047.68M-638.154 1117.93L-638.069 1118.02M-638.154 1117.93L-299.38 348.985M-518.531 1047.68L-518.441 1047.76M-518.531 1047.68L-236.185 407.137M-518.441 1047.76L-638.069 1118.02M-518.441 1047.76L-236.095 407.216M-518.441 1047.76C-436.086 860.905 -353.735 674.065 -271.362 487.213C-259.614 460.552 -247.861 433.873 -236.095 407.216M-638.069 1118.02L-299.29 349.065M-299.38 348.985L-299.29 349.065M-299.38 348.985L-236.185 407.137M-299.38 348.985C-278.312 368.425 -257.19 387.806 -236.095 407.216M-299.38 348.985C-313.458 380.958 -327.548 412.909 -341.626 444.882C-440.466 669.244 -539.301 893.588 -638.141 1117.95L-518.514 1047.69L-236.185 407.137M-299.29 349.065L-236.095 407.216M-236.185 407.137L-236.095 407.216M375.868 915.829C395.717 934.092 415.566 952.356 435.406 970.653C415.557 952.39 395.708 934.127 375.868 915.829ZM375.868 915.829L838.194 661.638L1019.21 649.432M375.868 915.829L375.958 915.909M375.868 915.829L435.321 970.556M435.321 970.556L1019.21 649.432M435.321 970.556L435.411 970.636M1019.21 649.432L1019.3 649.511M1019.3 649.511L435.411 970.636M1019.3 649.511L838.283 661.718L375.958 915.909M435.411 970.636L375.958 915.909M594.047 423.04C680.297 491.697 766.689 560.17 852.771 629.04M594.047 423.04C680.129 491.911 766.521 560.384 852.771 629.04M594.047 423.04L707.307 356.527M594.047 423.04L594.132 423.137M594.047 423.04L852.682 628.961M852.771 629.04L1033.8 616.873M852.771 629.04L852.682 628.961M852.771 629.04L594.132 423.137M707.307 356.527L707.392 356.623M707.307 356.527L1033.71 616.794M594.132 423.137L707.392 356.623M707.392 356.623L1033.8 616.873M852.682 628.961L1033.71 616.794M1033.71 616.794L1033.8 616.873M1033.71 616.794L707.302 356.543C815.894 443.614 924.956 530.106 1033.79 616.89L1033.7 616.811L1033.71 616.794ZM-640.078 1445.81L-50.6756 1121.78M-640.078 1445.81L-639.988 1445.89M-640.078 1445.81L-453.7 1246.04L-46.8773 1022.44M-50.6756 1121.78L-50.5859 1121.86M-50.6756 1121.78L-46.8773 1022.44M-50.5859 1121.86L-639.988 1445.89M-50.5859 1121.86L-46.7923 1022.54M-50.5859 1121.86C-49.314 1088.75 -48.0596 1055.64 -46.7923 1022.54M-639.988 1445.89L-453.61 1246.12L-46.7923 1022.54M-639.988 1445.89L-453.615 1246.13L-46.7923 1022.54M-46.8773 1022.44L-46.7923 1022.54M-479.493 1024.76L-346.742 946.793M-479.493 1024.76L-479.403 1024.84M-479.493 1024.76L-215.581 426.102M-346.742 946.793L-346.657 946.89M-346.742 946.793L-145.517 490.57M-346.742 946.793L-479.488 1024.75C-391.512 825.194 -303.553 625.637 -215.576 426.084L-215.581 426.102M-346.657 946.89L-479.403 1024.84M-346.657 946.89L-145.432 490.666M-479.403 1024.84L-215.491 426.181L-215.581 426.102M-215.581 426.102L-145.517 490.57M-215.581 426.102C-192.23 447.652 -168.809 469.146 -145.432 490.666M-145.517 490.57L-145.432 490.666M-145.517 490.57L-145.522 490.587L-145.432 490.666M-145.432 490.666L-215.496 426.198L-479.408 1024.86L-346.661 946.907C-279.579 794.828 -212.519 642.762 -145.437 490.683L-145.432 490.666ZM-2.42015 -0.480254L13.5503 186.778C85.5309 243.956 157.644 300.984 229.466 358.341L13.6353 186.875M-2.42015 -0.480254L-2.4248 -0.462921L-2.33511 -0.383536L13.6353 186.875M-2.42015 -0.480254L312.205 249.901M-2.42015 -0.480254C102.246 83.3001 207.381 166.503 312.294 249.98M-2.42015 -0.480254L13.5677 186.783L229.393 358.266M13.6353 186.875L-2.33014 -0.400782L312.294 249.98M13.6353 186.875L229.483 358.345M229.393 358.266L312.205 249.901M229.393 358.266L229.483 358.345M312.205 249.901L312.294 249.98M312.294 249.98L229.483 358.345M-655.259 1156.78L-881.332 1669.92M-655.259 1156.78L-655.191 1156.87M-655.259 1156.78L-535.653 1086.53M-655.259 1156.78L-535.632 1086.52L-713.473 1489.98L-881.332 1669.92M-655.259 1156.78L-655.264 1156.8C-730.624 1327.83 -805.972 1498.89 -881.332 1669.92M-881.332 1669.92L-881.242 1670M-881.332 1669.92L-713.477 1490L-535.653 1086.53M-881.242 1670L-655.191 1156.87M-881.242 1670L-713.388 1490.08M-655.191 1156.87L-535.564 1086.61M-535.653 1086.53L-535.564 1086.61M-535.564 1086.61L-713.388 1490.08M-535.564 1086.61L-535.547 1086.62C-594.829 1221.11 -654.106 1355.59 -713.388 1490.08M-282.199 309.984C-261.104 329.395 -239.992 348.81 -218.924 368.25M-282.199 309.984C-261.13 329.425 -240.018 348.84 -218.924 368.25M-282.199 309.984L-54.6834 -206.469M-282.199 309.984L-282.114 310.081M-282.199 309.984L-219.009 368.154L-40.2259 -37.4422M-218.924 368.25L-40.1363 -37.3627L-54.581 -206.368L-54.6706 -206.447L-40.2259 -37.4422M-218.924 368.25L-219.013 368.171C-159.412 232.968 -99.8274 97.7607 -40.2259 -37.4422M-218.924 368.25L-282.114 310.081M-218.924 368.25L-40.1536 -37.3673L-54.5984 -206.372M-40.2259 -37.4422L-54.6834 -206.469M-54.6834 -206.469L-54.5984 -206.372M-282.114 310.081L-54.5984 -206.372M355.297 232.97C427.981 290.835 500.815 348.555 573.357 406.605C500.673 348.739 427.84 291.019 355.297 232.97ZM355.297 232.97L429.904 135.351M355.297 232.97L355.387 233.049M355.297 232.97L573.272 406.508M429.904 135.351L429.993 135.43M429.904 135.351L686.554 339.982M429.904 135.351C515.326 203.786 601.053 271.84 686.639 340.078M355.387 233.049L429.993 135.43M355.387 233.049L573.362 406.587M429.993 135.43L686.639 340.078M573.272 406.508L686.554 339.982M573.272 406.508L573.362 406.587M686.554 339.982L686.639 340.078M686.554 339.982L686.549 339.999L686.639 340.078M686.639 340.078L573.362 406.587M290.372 837.112C312.426 857.426 334.507 877.711 356.557 898.043C334.503 877.729 312.422 857.444 290.372 837.112ZM290.372 837.112L577.688 679.193L779.062 665.617M290.372 837.112L290.444 837.187M290.372 837.112L356.455 897.942M356.455 897.942L779.062 665.617M356.455 897.942L356.54 898.039M779.062 665.617L779.152 665.697M779.152 665.697L356.54 898.039M779.152 665.697L577.778 679.272L290.444 837.187M356.54 898.039L290.444 837.187M557.087 444.759L431.272 518.652M557.087 444.759L557.172 444.855M557.087 444.759L793.55 632.941M431.272 518.652L431.361 518.732M431.272 518.652L592.181 646.499M431.361 518.732L557.172 444.855M431.361 518.732L592.271 646.578L793.64 633.02L557.172 444.855M592.181 646.499L793.568 632.945L793.657 633.025L592.288 646.583C538.62 603.947 484.868 561.417 431.289 518.657L592.198 646.503L592.181 646.499ZM592.181 646.499L793.55 632.941M793.55 632.941L557.07 444.754C635.747 507.72 714.777 570.263 793.623 633.016L793.533 632.936L793.55 632.941ZM-18.6632 1132.75L-22.0816 1222.11M-18.6632 1132.75L-18.5736 1132.83M-18.6632 1132.75L338.783 936.219M-22.0816 1222.11L-21.9966 1222.21M-22.0816 1222.11L398.257 990.934M-21.9966 1222.21L-18.5736 1132.83M-21.9966 1222.21L398.342 991.03M-18.5736 1132.83L338.873 936.299M338.783 936.219L338.873 936.299M338.783 936.219L398.257 990.934M338.873 936.299L398.342 991.03M398.257 990.934L398.342 991.03M398.257 990.934L338.788 936.202C358.61 954.495 378.481 972.746 398.347 991.013L398.257 990.934ZM-496.615 1063.61L-658.685 1431.27M-496.615 1063.61L-496.525 1063.69M-496.615 1063.61L-363.864 985.643M-496.615 1063.61L-363.869 985.661L-472.285 1231.48L-658.685 1431.27M-496.615 1063.61C-550.627 1186.17 -604.656 1308.72 -658.685 1431.27M-658.685 1431.27L-658.612 1431.34M-658.685 1431.27L-472.298 1231.46L-363.864 985.643M-658.612 1431.34L-496.525 1063.69M-658.612 1431.34L-472.213 1231.55L-363.796 985.735M-658.612 1431.34L-496.543 1063.69L-363.796 985.735M-658.612 1431.34L-472.208 1231.53C-436.068 1149.59 -399.932 1067.66 -363.792 985.718L-363.796 985.735M-496.525 1063.69L-363.796 985.735M-363.864 985.643L-363.796 985.735M-198.409 387.135C-175.032 408.655 -151.62 430.184 -128.265 451.717C-151.642 430.197 -175.054 408.668 -198.409 387.135ZM-198.409 387.135L-35.5158 17.6504M-198.409 387.135L-198.32 387.215M-198.409 387.135L-128.337 451.642L-19.5108 204.918M-19.5108 204.918L-35.5204 17.6677L-35.4307 17.7472M-19.5108 204.918L-19.5154 204.936C-55.7908 287.177 -92.0662 369.418 -128.342 451.659L-128.252 451.739L-19.4257 205.015L-35.4307 17.7472M-19.5108 204.918L-35.5158 17.6504M-35.4307 17.7472L-198.32 387.215M-35.4307 17.7472L-35.5158 17.6504M-35.4307 17.7472L-19.421 204.998L-128.247 451.722L-198.32 387.215M-307.725 923.888L-178.952 848.272M-307.725 923.888L-307.64 923.985M-307.725 923.888L-124.926 509.512M-307.725 923.888C-246.788 785.77 -185.863 647.63 -124.926 509.512M-178.952 848.272L-178.88 848.347M-178.952 848.272L-57.0292 571.994M-178.952 848.272L-57.0117 571.998L-124.926 509.512M-178.88 848.347L-307.64 923.985M-178.88 848.347L-56.9441 572.09M-307.64 923.985L-124.841 509.609L-124.926 509.512M-57.0292 571.994L-56.9441 572.09M-57.0292 571.994L-124.943 509.508C-102.3 530.387 -79.6086 551.224 -56.9565 572.068L-57.0462 571.989L-57.0292 571.994ZM-56.9441 572.09L-124.858 509.604L-307.657 923.98L-178.884 848.364C-138.232 756.275 -97.5967 664.18 -56.9441 572.09ZM248.163 373.17C302.306 416.174 356.533 459.071 410.565 502.211C356.422 459.208 302.195 416.311 248.163 373.17ZM248.163 373.17L330.953 264.818M248.163 373.17L248.236 373.245M248.163 373.17L410.458 502.127M330.953 264.818L331.042 264.897M330.953 264.818L536.294 428.221M330.953 264.818C399.302 319.469 467.898 373.816 536.38 428.318L536.29 428.239L536.294 428.221M248.236 373.245L331.042 264.897M248.236 373.245L410.547 502.207M331.042 264.897L536.384 428.301M410.458 502.127L536.294 428.221M410.458 502.127L410.547 502.207M536.294 428.221L536.384 428.301M536.384 428.301L410.547 502.207M-398.908 1187.3L-45.7618 993.23M-398.908 1187.3L-398.835 1187.38M-398.908 1187.3L-218.001 993.383L-42.0758 896.727M-45.7618 993.23L-45.6767 993.327M-45.7618 993.23L-42.0758 896.727M-45.6767 993.327L-398.835 1187.38M-45.6767 993.327L-41.9908 896.824M-398.835 1187.38L-217.912 993.462M-42.0758 896.727L-41.9908 896.824M-41.9908 896.824L-217.912 993.462M-41.9908 896.824L-41.9863 896.807C-43.2076 928.97 -44.4508 961.146 -45.6721 993.31L-398.818 1187.38L-217.912 993.462M-13.7413 1004.23L-17.5352 1103.55M-13.7413 1004.23L-13.6516 1004.31M-13.7413 1004.23L253.248 857.509M-17.5352 1103.55L-17.4501 1103.65M-17.5352 1103.55L319.366 918.349M-17.4501 1103.65L-13.6516 1004.31M-17.4501 1103.65L319.455 918.429M-13.6516 1004.31L253.338 857.589M253.248 857.509L253.338 857.589M253.248 857.509L319.366 918.349M253.248 857.509C275.298 877.842 297.379 898.127 319.455 918.429M253.338 857.589L319.455 918.429M319.366 918.349L319.455 918.429M18.249 241.776L33.7295 423.134C64.0786 447.206 94.5027 471.206 124.794 495.355L33.8145 423.231L18.334 241.873L18.2444 241.793L18.249 241.776ZM18.249 241.776L205.049 390.115M18.249 241.776C80.4126 291.423 142.833 340.731 205.138 390.194M18.249 241.776L33.7341 423.117L124.709 495.259M124.709 495.259L205.049 390.115M124.709 495.259L124.782 495.333M205.049 390.115L205.138 390.194M205.138 390.194L124.782 495.333M205.138 390.194L18.3389 241.856L33.8021 423.209L124.782 495.333M206.702 760.066C228.134 779.807 249.609 799.523 271.019 819.277C249.587 799.536 228.112 779.82 206.702 760.066ZM206.702 760.066L322.627 696.375L518.444 683.178M206.702 760.066L206.77 760.159M206.702 760.066L270.929 819.198M270.929 819.198L518.444 683.178M270.929 819.198L271.014 819.294M518.444 683.178L518.53 683.275M518.53 683.275L271.014 819.294M518.53 683.275L322.712 696.472L206.77 760.159M271.014 819.294L206.77 760.159M394.273 540.378L272.12 612.128M394.273 540.378L394.362 540.458M394.273 540.378L532.92 650.48M394.273 540.378C440.408 577.242 486.764 613.832 533.009 650.559M272.12 612.128L272.193 612.203M272.12 612.128L337.09 663.654M272.193 612.203L394.362 540.458M272.193 612.203L337.18 663.734M394.362 540.458L533.009 650.559M337.09 663.654L532.92 650.48M337.09 663.654L272.103 612.123C293.758 629.372 315.493 646.532 337.18 663.734M532.92 650.48L533.009 650.559M533.009 650.559L337.18 663.734M143.467 510.141C179.43 538.658 215.451 567.097 251.357 595.691M143.467 510.141C179.372 538.735 215.393 567.174 251.357 595.691M143.467 510.141L223.819 405.018M143.467 510.141L143.556 510.22M143.467 510.141L251.267 595.612M251.357 595.691L373.548 523.933M251.357 595.691L251.267 595.612M251.357 595.691L143.556 510.22M223.819 405.018L223.908 405.098M223.819 405.018L373.458 523.854M143.556 510.22L223.908 405.098M223.908 405.098L373.548 523.933M251.267 595.612L373.458 523.854M373.458 523.854L373.548 523.933M373.458 523.854L223.801 405.014C273.592 444.799 323.625 484.298 373.531 523.929L373.441 523.849L373.458 523.854ZM-8.9057 878.524L-12.6088 975.022M-8.9057 878.524L-8.8333 878.599M-8.9057 878.524L169.539 780.473M-12.6088 975.022L-12.5191 975.102M-12.6088 975.022L233.8 839.613M-12.5191 975.102L-8.8333 878.599M-12.5191 975.102L233.89 839.692M-8.8333 878.599L169.624 780.569M169.539 780.473L169.624 780.569M169.539 780.473L233.8 839.613M169.624 780.569L233.89 839.692M233.8 839.613L233.89 839.692M233.8 839.613L169.534 780.49C190.961 800.248 212.436 819.964 233.868 839.705L233.778 839.626L233.8 839.613ZM-107.763 470.58C-85.0981 491.447 -62.4287 512.296 -39.7686 533.18M-107.763 470.58C-85.1027 491.464 -62.4333 512.314 -39.7686 533.18M-107.763 470.58L-14.8074 259.898M-107.763 470.58L-107.673 470.66M-107.763 470.58L-39.8582 533.101L0.694951 441.243M-39.7686 533.18L-107.673 470.66M-39.7686 533.18L0.762865 441.336L-14.735 259.973M0.694951 441.243L-14.8074 259.898M0.694951 441.243C-12.814 471.853 -26.3275 502.479 -39.8365 533.088L-39.7468 533.168L0.784665 441.323L-14.7177 259.978L-14.8074 259.898M-14.8074 259.898L-14.735 259.973M-107.673 470.66L-14.735 259.973M-417.506 1172.72L-236.555 978.777M-417.506 1172.72L-417.416 1172.8M-417.506 1172.72L-324.865 962.733M-417.506 1172.72L-236.573 978.772L-196.109 887.113M-417.506 1172.72C-386.618 1102.72 -355.752 1032.73 -324.865 962.733M-236.555 978.777L-236.466 978.857M-236.555 978.777L-196.109 887.113M-236.466 978.857L-417.416 1172.8M-236.466 978.857L-196.02 887.192M-417.416 1172.8L-324.78 962.83M-417.416 1172.8L-324.775 962.813L-196.02 887.192M-417.416 1172.8L-236.483 978.852L-196.02 887.192M-324.865 962.733L-324.78 962.83M-324.865 962.733L-196.109 887.113M-324.78 962.83L-196.02 887.192M-196.109 887.113L-196.02 887.192" stroke="white" stroke-width="1.24" stroke-miterlimit="10"/>
</g>
</g>
</svg>
