<svg width="1581" height="1580" viewBox="0 0 1581 1580" fill="none" xmlns="http://www.w3.org/2000/svg">
<g style="mix-blend-mode:overlay" opacity="0.5">
<path d="M1.05359 22.7559L639.013 687.794M1.05359 22.7559L1 22.8631M1.05359 22.7559L218.256 138.305M639.013 687.794L638.942 687.901M639.013 687.794L726.215 667.967M638.942 687.901L1 22.8631M638.942 687.901L726.162 668.057M638.942 687.901C668.003 681.292 697.082 674.684 726.144 668.075L726.162 668.057M1 22.8631L218.202 138.412M218.256 138.305L218.202 138.412M218.256 138.305L726.215 667.967M218.202 138.412L726.162 668.057M726.215 667.967L726.162 668.057M2062.74 341.164L1903.21 398.84M2062.74 341.164V341.146L2062.69 341.253L1903.16 398.93L1727.81 801.718M2062.74 341.164L1841.47 848.409M1903.21 398.84C1844.75 533.127 1786.61 667.574 1727.81 801.718M1903.21 398.84L1727.86 801.611M1727.81 801.718L1841.41 848.516M1727.81 801.718L1727.86 801.611M1727.81 801.718L1903.14 398.93L2062.67 341.253L1841.41 848.516M1727.86 801.611L1841.47 848.409M1841.47 848.409L1841.41 848.516M1841.47 848.409L2062.72 341.164C1988.51 510.085 1915.16 679.399 1841.39 848.516L1841.45 848.409L1841.47 848.409ZM606.361 93.0251L705.174 190.391M606.361 93.0251L606.29 93.1323M606.361 93.0251L1436.78 221.239M705.174 190.391L705.12 190.498M705.174 190.391L1396.97 297.331M705.12 190.498L606.29 93.1323M705.12 190.498L1396.92 297.438M705.12 190.498C906.925 221.685 1108.71 252.872 1310.52 284.077C1339.31 288.525 1368.12 292.973 1396.92 297.438M606.29 93.1323L1436.73 221.346M1436.78 221.239L1436.73 221.346M1436.78 221.239L1396.97 297.331M1436.78 221.239C1423.46 246.62 1410.21 272.038 1396.92 297.438M1436.78 221.239C1402.26 215.916 1367.75 210.575 1333.22 205.252C1090.92 167.849 848.642 130.446 606.344 93.043L705.174 190.409L1396.97 297.331M1436.73 221.346L1396.92 297.438M1396.97 297.331L1396.92 297.438M1064.02 1020.19C1051.52 1044.09 1039.01 1067.99 1026.48 1091.89C1038.98 1067.99 1051.48 1044.09 1064.02 1020.19ZM1064.02 1020.19L1429.21 1400.97L1487.85 1572.66M1064.02 1020.19L1063.97 1020.3M1064.02 1020.19L1026.55 1091.78M1026.55 1091.78L1487.85 1572.66M1026.55 1091.78L1026.49 1091.89M1487.85 1572.66L1487.8 1572.77M1487.8 1572.77L1026.49 1091.89M1487.8 1572.77L1429.16 1401.08L1063.97 1020.3M1026.49 1091.89L1063.97 1020.3M1596.49 1103.39C1552.49 1204.47 1508.71 1305.64 1464.47 1406.61M1596.49 1103.39C1552.24 1204.36 1508.46 1305.53 1464.47 1406.61M1596.49 1103.39L1690.05 1195.58M1596.49 1103.39L1596.42 1103.5M1596.49 1103.39L1464.52 1406.51M1464.47 1406.61L1523.08 1578.32M1464.47 1406.61L1464.52 1406.51M1464.47 1406.61L1596.42 1103.5M1690.05 1195.58L1689.98 1195.68M1690.05 1195.58L1523.13 1578.21M1596.42 1103.5L1689.98 1195.68M1689.98 1195.68L1523.08 1578.32M1464.52 1406.51L1523.13 1578.21M1523.13 1578.21L1523.08 1578.32M1523.13 1578.21L1690.03 1195.57C1634.03 1323 1578.72 1450.73 1523.06 1578.32L1523.11 1578.21L1523.13 1578.21ZM289.15 176.03L754.687 661.483M289.15 176.03L289.096 176.137M289.15 176.03L530.358 304.35L851.624 639.442M754.687 661.483L754.634 661.591M754.687 661.483L851.624 639.442M754.634 661.591L289.096 176.137M754.634 661.591L851.553 639.549M754.634 661.591C786.946 654.249 819.258 646.89 851.553 639.549M289.096 176.137L530.305 304.458L851.553 639.549M289.096 176.137L530.287 304.458L851.553 639.549M851.624 639.442L851.553 639.549M737.415 222.168L847.087 330.215M737.415 222.168L737.361 222.275M737.415 222.168L1383.98 322.141M847.087 330.215L847.016 330.322M847.087 330.215L1339.85 406.503M847.087 330.215L737.433 222.168C952.956 255.498 1168.48 288.811 1384 322.141H1383.98M847.016 330.322L737.361 222.275M847.016 330.322L1339.77 406.611M737.361 222.275L1383.93 322.248L1383.98 322.141M1383.98 322.141L1339.85 406.503M1383.98 322.141C1369.21 350.274 1354.51 378.46 1339.77 406.611M1339.85 406.503L1339.77 406.611M1339.85 406.503L1339.83 406.503L1339.77 406.611M1339.77 406.611L1383.91 322.248L737.343 222.275L846.998 330.322C1011.26 355.757 1175.5 381.175 1339.76 406.611L1339.77 406.611ZM1851.2 417.631L1674.46 481.524C1637.86 565.85 1601.44 650.266 1564.62 734.485L1674.38 481.631M1851.2 417.631H1851.18L1851.13 417.738L1674.38 481.631M1851.2 417.631L1690.78 786.339M1851.2 417.631C1797.36 540.415 1744.21 663.502 1690.73 786.446M1851.2 417.631L1674.46 481.542L1564.68 734.396M1674.38 481.631L1851.15 417.739L1690.73 786.446M1674.38 481.631L1564.62 734.504M1564.68 734.396L1690.78 786.339M1564.68 734.396L1564.62 734.504M1690.78 786.339L1690.73 786.446M1690.73 786.446L1564.62 734.504M564.403 86.559L10.2347 1M564.403 86.559L564.332 86.6483M564.403 86.559L663.216 183.907M564.403 86.559L663.233 183.925L227.49 116.567L10.2347 1M564.403 86.559L564.385 86.5589C379.674 58.0333 194.946 29.5256 10.2347 1M10.2347 1L10.1811 1.10717M10.2347 1L227.472 116.567L663.216 183.907M10.1811 1.10717L564.332 86.6483M10.1811 1.10717L227.419 116.674M564.332 86.6483L663.162 184.014M663.216 183.907L663.162 184.014M663.162 184.014L227.419 116.674M663.162 184.014L663.162 184.032C517.909 161.579 372.673 139.127 227.419 116.674M1478.9 227.74C1465.61 253.14 1452.32 278.558 1439 303.94M1478.9 227.74C1465.58 253.122 1452.29 278.54 1439 303.94M1478.9 227.74L2036.64 313.835M1478.9 227.74L1478.83 227.847M1478.9 227.74L1439.07 303.832L1877.12 371.547M1439 303.94L1877.06 371.654L2036.57 313.96L2036.63 313.853L1877.12 371.547M1439 303.94L1439.05 303.832C1585.07 326.41 1731.1 348.97 1877.12 371.547M1439 303.94L1478.83 227.847M1439 303.94L1877.06 371.637L2036.57 313.942M1877.12 371.547L2036.64 313.835M2036.64 313.835L2036.57 313.942M1478.83 227.847L2036.57 313.942M1718.29 823.581C1681.21 908.765 1644.3 994.056 1607.01 1079.15C1644.09 993.967 1680.99 908.676 1718.29 823.581ZM1718.29 823.581L1831.89 870.38M1718.29 823.581L1718.24 823.688M1718.29 823.581L1607.08 1079.04M1831.89 870.38L1831.84 870.487M1831.89 870.38L1700.66 1171.25M1831.89 870.38C1787.9 970.603 1744.35 1071.02 1700.59 1171.35M1718.24 823.688L1831.84 870.487M1718.24 823.688L1607.03 1079.15M1831.84 870.487L1700.59 1171.35M1607.08 1079.04L1700.66 1171.25M1607.08 1079.04L1607.03 1079.15M1700.66 1171.25L1700.59 1171.35M1700.66 1171.25L1700.64 1171.25L1700.59 1171.35M1700.59 1171.35L1607.03 1079.15M1117.93 917.232C1104.01 943.792 1090.14 970.371 1076.2 996.932C1090.12 970.371 1104 943.792 1117.93 917.232ZM1117.93 917.232L1344.83 1153.89L1410.06 1344.88M1117.93 917.232L1117.87 917.321M1117.93 917.232L1076.27 996.807M1076.27 996.807L1410.06 1344.88M1076.27 996.807L1076.2 996.914M1410.06 1344.88L1410.01 1344.99M1410.01 1344.99L1076.2 996.914M1410.01 1344.99L1344.78 1153.99L1117.87 917.321M1076.2 996.914L1117.87 917.321M1565.94 1073.31L1462 970.907M1565.94 1073.31L1565.87 1073.42M1565.94 1073.31L1445.38 1350.42M1462 970.907L1461.95 971.014M1462 970.907L1380.16 1159.42M1461.95 971.014L1565.87 1073.42M1461.95 971.014L1380.11 1159.53L1445.32 1350.53L1565.87 1073.42M1380.16 1159.42L1445.38 1350.44L1445.32 1350.55L1380.11 1159.55C1407.4 1096.67 1434.57 1033.75 1462 970.925L1380.16 1159.44V1159.42ZM1380.16 1159.42L1445.38 1350.42M1445.38 1350.42L1565.94 1073.29C1525.49 1165.58 1485.53 1258.11 1445.32 1350.51L1445.38 1350.4V1350.42ZM752.383 695.242L665.181 715.069M752.383 695.242L752.329 695.35M752.383 695.242L1034.73 989.644M665.181 715.069L665.109 715.176M665.181 715.069L997.271 1061.25M665.109 715.176L752.329 695.35M665.109 715.176L997.2 1061.36M752.329 695.35L1034.67 989.751M1034.73 989.644L1034.67 989.751M1034.73 989.644L997.271 1061.25M1034.67 989.751L997.2 1061.36M997.271 1061.25L997.2 1061.36M997.271 1061.25L1034.75 989.644C1022.21 1013.53 1009.72 1037.44 997.217 1061.36L997.271 1061.25ZM695.457 215.684L298.384 154.292M695.457 215.684L695.403 215.791M695.457 215.684L805.129 323.731M695.457 215.684L805.111 323.731L539.611 282.63L298.384 154.292M695.457 215.684C563.099 195.232 430.742 174.762 298.384 154.292M298.384 154.292L298.331 154.381M298.384 154.292L539.628 282.613L805.129 323.731M298.331 154.381L695.403 215.791M298.331 154.381L539.557 282.72L805.058 323.82M298.331 154.381L695.403 215.773L805.058 323.82M298.331 154.381L539.575 282.72C628.081 296.42 716.57 310.12 805.076 323.82L805.058 323.82M695.403 215.791L805.058 323.82M805.129 323.731L805.058 323.82M1426.07 328.643C1411.33 356.793 1396.59 384.979 1381.84 413.112C1396.58 384.961 1411.31 356.775 1426.07 328.643ZM1426.07 328.643L1825.12 390.356M1426.07 328.643L1426.01 328.75M1426.07 328.643L1381.89 413.023L1648.38 454.284M1648.38 454.284L1825.1 390.356L1825.05 390.463M1648.38 454.284H1648.36C1559.53 440.53 1470.7 426.777 1381.88 413.023L1381.82 413.13L1648.31 454.391L1825.05 390.463M1648.38 454.284L1825.12 390.356M1825.05 390.463L1426.01 328.75M1825.05 390.463L1825.12 390.356M1825.05 390.463L1648.32 454.391L1381.84 413.13L1426.01 328.75M879.31 361.973L985.679 466.788M879.31 361.973L879.239 362.081M879.31 361.973L1326.88 431.296M879.31 361.973C1028.49 385.087 1177.7 408.182 1326.88 431.296M985.679 466.788L985.625 466.877M985.679 466.788L1284.1 513.05M985.679 466.788L1284.1 513.068L1326.88 431.296M985.625 466.877L879.239 362.081M985.625 466.877L1284.03 513.157M879.239 362.081L1326.81 431.403L1326.88 431.296M1284.1 513.05L1284.03 513.157M1284.1 513.05L1326.88 431.278C1312.57 458.553 1298.32 485.864 1284.05 513.14L1284.1 513.032L1284.1 513.05ZM1284.03 513.157L1326.81 431.385L879.239 362.063L985.607 466.877C1085.08 482.31 1184.55 497.725 1284.03 513.157ZM1555.14 756.384C1527.61 819.812 1500.21 883.294 1472.53 946.65C1500.05 883.222 1527.45 819.741 1555.14 756.384ZM1555.14 756.384L1681.23 808.309M1555.14 756.384L1555.08 756.473M1555.14 756.384L1472.58 946.525M1681.23 808.309L1681.17 808.416M1681.23 808.309L1576.54 1048.95M1681.23 808.309C1646.13 888.474 1611.38 968.799 1576.46 1049.05L1576.52 1048.95L1576.54 1048.95M1555.08 756.473L1681.17 808.416M1555.08 756.473L1472.53 946.632M1681.17 808.416L1576.48 1049.05M1472.58 946.525L1576.54 1048.95M1472.58 946.525L1472.53 946.632M1576.54 1048.95L1576.48 1049.05M1576.48 1049.05L1472.53 946.632M601.27 342.075L880.132 632.958M601.27 342.075L601.217 342.164M601.27 342.075L835.406 466.627L974.301 611.541M880.132 632.958L880.061 633.065M880.132 632.958L974.301 611.541M880.061 633.065L601.217 342.164M880.061 633.065L974.229 611.648M601.217 342.164L835.352 466.734M974.301 611.541L974.229 611.648M974.229 611.648L835.352 466.734M974.229 611.648L974.247 611.648C942.863 618.793 911.462 625.92 880.078 633.065L601.217 342.182L835.352 466.734M877.792 666.735L780.873 688.776M877.792 666.735L877.739 666.842M877.792 666.735L1088.62 886.652M780.873 688.776L780.802 688.884M780.873 688.776L1046.96 966.263M780.802 688.884L877.739 666.842M780.802 688.884L1046.91 966.37M877.739 666.842L1088.56 886.759M1088.62 886.652L1088.56 886.759M1088.62 886.652L1046.96 966.263M1088.62 886.652C1074.69 913.213 1060.81 939.792 1046.91 966.37M1088.56 886.759L1046.91 966.37M1046.96 966.263L1046.91 966.37M1622.55 500.297L1451.38 562.189C1435.98 597.734 1420.67 633.333 1405.19 668.843L1451.31 562.296L1622.48 500.404L1622.53 500.297H1622.55ZM1622.55 500.297L1527.61 719.124M1622.55 500.297C1590.68 573.192 1559.21 646.247 1527.56 719.231M1622.55 500.297L1451.39 562.189L1405.26 668.736M1405.26 668.736L1527.61 719.124M1405.26 668.736L1405.2 668.825M1527.61 719.124L1527.56 719.231M1527.56 719.231L1405.2 668.825M1527.56 719.231L1622.49 500.404L1451.32 562.278L1405.2 668.825M1170.69 816.472C1157.17 842.283 1143.69 868.129 1130.15 893.922C1143.67 868.111 1157.15 842.265 1170.69 816.472ZM1170.69 816.472L1262.22 911.963L1325.65 1097.69M1170.69 816.472L1170.62 816.562M1170.69 816.472L1130.2 893.815M1130.2 893.815L1325.65 1097.69M1130.2 893.815L1130.13 893.922M1325.65 1097.69L1325.57 1097.8M1325.57 1097.8L1130.13 893.922M1325.57 1097.8L1262.15 912.07L1170.62 816.562M1130.13 893.922L1170.62 816.562M1431.44 940.792L1330.52 841.372M1431.44 940.792L1431.39 940.899M1431.44 940.792L1360.98 1103.21M1431.44 940.792C1407.78 994.896 1384.43 1049.14 1360.92 1103.32M1330.52 841.372L1330.47 841.461M1330.52 841.372L1297.57 917.464M1330.47 841.461L1431.39 940.899M1330.47 841.461L1297.51 917.571M1431.39 940.899L1360.92 1103.32M1297.57 917.464L1360.98 1103.21M1297.57 917.464L1330.52 841.354C1319.47 866.736 1308.52 892.171 1297.51 917.571M1360.98 1103.21L1360.92 1103.32M1360.92 1103.32L1297.51 917.571M1395.74 690.705C1377.5 732.824 1359.35 774.978 1341.03 817.061M1395.74 690.705C1377.41 732.788 1359.26 774.943 1341.03 817.061M1395.74 690.705L1518.07 741.112M1395.74 690.705L1395.68 690.813M1395.74 690.705L1341.08 816.954M1341.03 817.061L1441.96 916.517M1341.03 817.061L1341.08 816.954M1341.03 817.061L1395.68 690.813M1518.07 741.112L1518.02 741.219M1518.07 741.112L1442.02 916.41M1395.68 690.813L1518.02 741.219M1518.02 741.219L1441.96 916.517M1341.08 816.954L1442.02 916.41M1442.02 916.41L1441.96 916.517M1442.02 916.41L1518.07 741.094C1492.53 799.485 1467.33 858.037 1441.96 916.499L1442.02 916.392L1442.02 916.41ZM1000.47 638.87L906.3 660.269M1000.47 638.87L1000.41 638.959M1000.47 638.87L1141.36 785.856M906.3 660.269L906.246 660.376M906.3 660.269L1100.87 863.234M906.246 660.376L1000.41 638.959M906.246 660.376L1100.82 863.342M1000.41 638.959L1141.29 785.963M1141.36 785.856L1141.29 785.963M1141.36 785.856L1100.87 863.234M1141.29 785.963L1100.82 863.342M1100.87 863.234L1100.82 863.342M1100.87 863.234L1141.35 785.856C1127.81 811.667 1114.32 837.513 1100.8 863.324L1100.85 863.217L1100.87 863.234ZM1368.93 437.798C1354.64 465.091 1340.36 492.384 1326.06 519.677M1368.93 437.798C1354.62 465.091 1340.35 492.384 1326.06 519.677M1368.93 437.798L1596.49 473.057M1368.93 437.798L1368.87 437.905M1368.93 437.798L1326.11 519.57L1425.33 534.967M1326.06 519.677L1368.87 437.905M1326.06 519.677L1425.26 535.056L1596.43 473.146M1425.33 534.967L1596.49 473.057M1425.33 534.967C1392.27 529.84 1359.19 524.714 1326.13 519.588L1326.07 519.695L1425.28 535.074L1596.43 473.164L1596.49 473.057M1596.49 473.057L1596.43 473.146M1368.87 437.905L1596.43 473.146M610.541 320.337L844.712 444.924M610.541 320.337L610.487 320.444M610.541 320.337L837.352 355.472M610.541 320.337L844.712 444.907L943.721 460.268M610.541 320.337C686.151 332.054 761.743 343.754 837.352 355.472M844.712 444.924L844.658 445.032M844.712 444.924L943.721 460.268M844.658 445.032L610.487 320.444M844.658 445.032L943.667 460.375M610.487 320.444L837.281 355.579M610.487 320.444L837.299 355.579L943.667 460.375M610.487 320.444L844.658 445.014L943.667 460.375M837.352 355.472L837.281 355.579M837.352 355.472L943.721 460.268M837.281 355.579L943.667 460.375M943.721 460.268L943.667 460.375" stroke="white" stroke-width="1.24" stroke-miterlimit="10"/>
</g>
</svg>
