<svg width="20" height="20" viewBox="0 0 20 20" fill="none" xmlns="http://www.w3.org/2000/svg">
<path d="M10.0001 6.87579C8.2798 6.87579 6.8759 8.2797 6.8759 10C6.8759 11.7203 8.2798 13.1242 10.0001 13.1242C11.7204 13.1242 13.1243 11.7203 13.1243 10C13.1243 8.2797 11.7204 6.87579 10.0001 6.87579ZM19.3704 10C19.3704 8.70626 19.3822 7.42423 19.3095 6.13282C19.2368 4.63282 18.8947 3.30157 17.7978 2.2047C16.6986 1.10548 15.3697 0.765638 13.8697 0.692982C12.5759 0.620326 11.2939 0.632045 10.0025 0.632045C8.70871 0.632045 7.42668 0.620326 6.13527 0.692982C4.63527 0.765638 3.30402 1.10783 2.20714 2.2047C1.10792 3.30392 0.76808 4.63282 0.695424 6.13282C0.622767 7.42657 0.634486 8.7086 0.634486 10C0.634486 11.2914 0.622767 12.5758 0.695424 13.8672C0.76808 15.3672 1.11027 16.6984 2.20714 17.7953C3.30636 18.8945 4.63527 19.2344 6.13527 19.307C7.42902 19.3797 8.71105 19.368 10.0025 19.368C11.2962 19.368 12.5782 19.3797 13.8697 19.307C15.3697 19.2344 16.7009 18.8922 17.7978 17.7953C18.897 16.6961 19.2368 15.3672 19.3095 13.8672C19.3845 12.5758 19.3704 11.2938 19.3704 10ZM10.0001 14.807C7.33996 14.807 5.19308 12.6602 5.19308 10C5.19308 7.33985 7.33996 5.19298 10.0001 5.19298C12.6603 5.19298 14.8072 7.33985 14.8072 10C14.8072 12.6602 12.6603 14.807 10.0001 14.807ZM15.004 6.11876C14.3829 6.11876 13.8814 5.6172 13.8814 4.99611C13.8814 4.37501 14.3829 3.87345 15.004 3.87345C15.6251 3.87345 16.1267 4.37501 16.1267 4.99611C16.1269 5.14359 16.098 5.28966 16.0416 5.42595C15.9853 5.56224 15.9026 5.68607 15.7983 5.79036C15.694 5.89464 15.5702 5.97733 15.4339 6.03368C15.2976 6.09003 15.1515 6.11895 15.004 6.11876Z" fill="#F1F5F8"/>
</svg>
