<svg width="25" height="24" viewBox="0 0 25 24" fill="none" xmlns="http://www.w3.org/2000/svg">
<path d="M25.4181 12V12.03C25.4181 12.573 25.2621 13.08 24.9931 13.509L25.0001 13.497C24.7311 13.9337 24.3461 14.2871 23.8881 14.518L23.8721 14.525C23.9801 14.928 24.0421 15.39 24.0421 15.868V15.886V15.885C24.0348 17.3818 23.497 18.8275 22.5241 19.965L22.5311 19.956C21.4445 21.2552 20.0522 22.2641 18.4791 22.892L18.4101 22.916C16.7751 23.602 14.8751 24.001 12.8811 24.001L12.7281 24H12.7361L12.5901 24.001C10.5991 24.001 8.70213 23.602 6.97313 22.88L7.06913 22.916C5.47827 22.2915 4.0686 21.2796 2.96813 19.972L2.95513 19.956C1.98665 18.8208 1.45167 17.3792 1.44513 15.887V15.88C1.44513 15.41 1.50113 14.952 1.60613 14.514L1.59813 14.554C1.12561 14.3237 0.725651 13.9677 0.442129 13.525L0.435129 13.514C0.146322 13.0627 -0.00643034 12.5378 -0.00487099 12.002C-0.00487099 11.225 0.309129 10.521 0.818129 10.011C1.07075 9.74822 1.3739 9.53924 1.70935 9.39661C2.04479 9.25397 2.40562 9.18063 2.77013 9.181H2.82013H2.81713H2.85613C3.65513 9.181 4.37513 9.524 4.87513 10.07L4.87713 10.072C7.02734 8.59924 9.56702 7.79932 12.1731 7.774H12.1811L13.8271 0.383999C13.8557 0.261395 13.9316 0.155029 14.0381 0.0879989L14.0401 0.0869989C14.0935 0.0494391 14.1543 0.0236819 14.2185 0.01144C14.2826 -0.000801845 14.3486 0.000752232 14.4121 0.0159989L14.4091 0.0149989L19.6431 1.164C19.8171 0.810999 20.0781 0.524999 20.4001 0.325999L20.4091 0.320999C20.7281 0.120999 21.1161 0.0019989 21.5321 0.0019989C22.1171 0.0019989 22.6481 0.236999 23.0331 0.618999C23.4181 0.987999 23.6571 1.507 23.6571 2.082V2.118V2.116V2.146C23.6571 2.724 23.4181 3.246 23.0331 3.618L23.0321 3.619C22.8351 3.81727 22.6008 3.97451 22.3426 4.08161C22.0845 4.18872 21.8076 4.24358 21.5281 4.243C20.9671 4.2435 20.4288 4.02163 20.0311 3.626C19.8356 3.43628 19.6802 3.20917 19.5742 2.95818C19.4682 2.70719 19.4138 2.43745 19.4141 2.165V2.127V2.129L14.6761 1.079L13.2011 7.773C15.9481 7.793 18.4941 8.638 20.6081 10.073L20.5611 10.043C20.8237 9.76908 21.139 9.55121 21.4881 9.40254C21.8371 9.25387 22.2127 9.17749 22.5921 9.178C23.3721 9.178 24.0781 9.495 24.5891 10.008C25.0981 10.504 25.4141 11.197 25.4141 11.963V12.002V12H25.4181ZM5.92913 14.822V14.854C5.92913 15.43 6.16513 15.951 6.54613 16.325C6.73507 16.5226 6.96215 16.6798 7.21363 16.7871C7.4651 16.8943 7.73573 16.9494 8.00913 16.949H8.04513H8.04313C8.60735 16.9485 9.1483 16.7241 9.54727 16.3251C9.94623 15.9262 10.1706 15.3852 10.1711 14.821V14.787C10.1711 14.212 9.93213 13.693 9.54713 13.325L9.54613 13.324C9.35444 13.1283 9.12556 12.9729 8.87294 12.8669C8.62032 12.761 8.34907 12.7066 8.07513 12.707H8.04113H8.04313C7.48409 12.7117 6.94926 12.9358 6.55385 13.331C6.15844 13.7262 5.93409 14.261 5.92913 14.82V14.821V14.822ZM17.4181 19.858C17.4677 19.8102 17.5071 19.7528 17.534 19.6894C17.5609 19.626 17.5747 19.5579 17.5747 19.489C17.5747 19.4201 17.5609 19.352 17.534 19.2886C17.5071 19.2252 17.4677 19.1678 17.4181 19.12C17.3736 19.0748 17.3205 19.039 17.262 19.0146C17.2034 18.9902 17.1406 18.9778 17.0771 18.978H17.0631H17.0641H17.0561C16.9221 18.9778 16.7931 19.0286 16.6951 19.12C16.2212 19.5614 15.6353 19.8644 15.0011 19.996L14.9781 20C13.4668 20.3832 11.8831 20.3784 10.3741 19.986L10.4381 20C9.79389 19.8709 9.19812 19.5656 8.71713 19.118L8.71913 19.12C8.62128 19.0284 8.49216 18.9776 8.35813 18.978H8.33913C8.27571 18.9779 8.2129 18.9903 8.15436 19.0147C8.09581 19.0391 8.04271 19.0749 7.99813 19.12C7.94792 19.1639 7.90767 19.218 7.88008 19.2787C7.85248 19.3394 7.83818 19.4053 7.83813 19.472V19.486C7.83813 19.632 7.89913 19.764 7.99813 19.858C8.46711 20.2998 9.03178 20.6273 9.64813 20.815L9.67813 20.823C10.2264 21.0221 10.7948 21.1609 11.3731 21.237L11.4161 21.242C11.8601 21.2847 12.2901 21.306 12.7061 21.306C13.1221 21.306 13.5521 21.2847 13.9961 21.242C14.6091 21.163 15.2114 21.0164 15.7921 20.805L15.7341 20.824C16.3634 20.6376 16.9403 20.3068 17.4191 19.858L17.4171 19.86L17.4181 19.858ZM17.3761 16.95H17.4101C17.9851 16.95 18.5041 16.711 18.8721 16.326L18.8731 16.325C19.2541 15.951 19.4901 15.43 19.4901 14.854V14.82V14.822C19.4854 14.263 19.2613 13.7281 18.8661 13.3327C18.4709 12.9373 17.9362 12.713 17.3771 12.708H17.3441C16.7681 12.708 16.2471 12.944 15.8731 13.325C15.6755 13.5139 15.5183 13.741 15.4111 13.9925C15.3038 14.244 15.2487 14.5146 15.2491 14.788V14.824V14.822C15.2497 15.3862 15.474 15.9272 15.873 16.3261C16.272 16.7251 16.8129 16.9495 17.3771 16.95H17.3761Z" fill="white"/>
</svg>
